SplineFontDB: 3.0
FontName: SimonettaX-Regular
FullName: Simonetta X
FamilyName: Simonetta X
Weight: Regular
Copyright: Copyright (c) 2011-2012, Brownfox (www.brownfox.org gayaneh.b@gmail.com), with Reserved Font Name "Simonetta"
UComments: "2014-12-06: Extended with accented characters for the Slovenian and Pali languages."
Version: 001.001
ItalicAngle: 0
UnderlinePosition: -50
UnderlineWidth: 50
Ascent: 800
Descent: 200
InvalidEm: 0
sfntRevision: 0x00010083
LayerCount: 2
Layer: 0 0 "Back" 1
Layer: 1 0 "Fore" 0
XUID: [1021 252 369733978 11092618]
FSType: 0
OS2Version: 2
OS2_WeightWidthSlopeOnly: 0
OS2_UseTypoMetrics: 1
CreationTime: 1333345933
ModificationTime: 1417879941
PfmFamily: 17
TTFWeight: 400
TTFWidth: 5
LineGap: 0
VLineGap: 0
Panose: 2 0 5 4 7 0 0 2 0 3
OS2TypoAscent: 1970
OS2TypoAOffset: 0
OS2TypoDescent: -594
OS2TypoDOffset: 0
OS2TypoLinegap: 0
OS2WinAscent: 1970
OS2WinAOffset: 0
OS2WinDescent: 594
OS2WinDOffset: 0
HheadAscent: 1970
HheadAOffset: 0
HheadDescent: -594
HheadDOffset: 0
OS2SubXSize: 650
OS2SubYSize: 600
OS2SubXOff: 0
OS2SubYOff: 75
OS2SupXSize: 650
OS2SupYSize: 600
OS2SupXOff: 0
OS2SupYOff: 350
OS2StrikeYSize: 102
OS2StrikeYPos: 512
OS2CapHeight: 0
OS2XHeight: 0
OS2Vendor: 'PfEd'
OS2CodePages: 00000001.00000000
OS2UnicodeRanges: 800000a7.40000043.00000000.00000000
Lookup: 1 0 0 "'aalt' Access All Alternates lookup 0" { "'aalt' Access All Alternates lookup 0 subtable"  } ['aalt' ('    ' <'dflt' > 'latn' <'dflt' > ) ]
Lookup: 4 0 0 "'frac' Diagonal Fractions lookup 1" { "'frac' Diagonal Fractions lookup 1 subtable"  } ['frac' ('    ' <'dflt' > 'latn' <'dflt' > ) ]
Lookup: 6 0 0 "'ordn' Ordinals lookup 2" { "'ordn' Ordinals lookup 2 contextual 0"  "'ordn' Ordinals lookup 2 contextual 1"  "'ordn' Ordinals lookup 2 contextual 2"  "'ordn' Ordinals lookup 2 contextual 3"  } ['ordn' ('    ' <'dflt' > 'latn' <'dflt' > ) ]

StartChar: exclam
Encoding: 1 33 2
Width: 238
Flags: W
LayerCount: 2
Back
Fore
SplineSet
180 679 m 1
 164 572 151 452 143 358 c 0
 138 303 133 250 130 198 c 1
 102 198 l 1
 102 250 101 303 100 358 c 0
 97 452 94 572 86 679 c 1
 98 678 116 677 133 677 c 0
 150 677 167 678 180 679 c 1
109 -10 m 0
 81 -10 61 7 61 42 c 0
 61 72 80 98 112 98 c 0
 139 98 159 81 159 46 c 0
 159 17 141 -10 109 -10 c 0
EndSplineSet
Validated: 1
EndChar

StartChar: quotedbl
Encoding: 2 34 3
Width: 352
Flags: W
LayerCount: 2
Back
Fore
SplineSet
226 679 m 1
 321 679 l 1
 293 461 l 1
 254 461 l 1
 226 679 l 1
50 679 m 1
 145 679 l 1
 117 461 l 1
 78 461 l 1
 50 679 l 1
EndSplineSet
Validated: 1
EndChar

StartChar: numbersign
Encoding: 3 35 4
Width: 719
Flags: W
LayerCount: 2
Back
Fore
SplineSet
332 679 m 1
 300 496 l 1
 477 496 l 1
 509 679 l 1
 574 679 l 1
 542 496 l 1
 692 496 l 1
 691 462 l 1
 647 462 l 2
 619 462 580 461 536 461 c 1
 495 230 l 1
 645 230 l 1
 644 196 l 1
 600 196 l 2
 572 196 533 195 488 195 c 1
 454 0 l 1
 389 0 l 1
 423 194 l 1
 246 190 l 1
 212 0 l 1
 147 0 l 1
 180 188 l 1
 123 187 71 184 31 180 c 1
 33 230 l 1
 187 230 l 1
 228 454 l 1
 169 453 118 449 78 446 c 1
 80 496 l 1
 235 496 l 1
 267 679 l 1
 332 679 l 1
430 230 m 1
 470 460 l 1
 292 457 l 1
 252 230 l 1
 430 230 l 1
EndSplineSet
Validated: 1
EndChar

StartChar: dollar
Encoding: 4 36 5
Width: 477
Flags: W
LayerCount: 2
Back
Fore
SplineSet
213 20 m 2
 222 20 l 1
 232 314 l 1
 225 319 218 326 211 331 c 0
 153 375 62 434 62 528 c 0
 62 598 99 690 246 693 c 1
 248 759 l 1
 284 759 l 1
 282 692 l 1
 334 688 383 679 419 668 c 1
 408 521 l 1
 380 521 l 1
 380 534 l 2
 380 579 369 647 280 658 c 1
 271 395 l 1
 356 334 433 274 433 181 c 0
 433 87 352 10 256 -9 c 1
 253 -108 l 1
 218 -108 l 1
 221 -14 l 1
 211 -14 l 2
 143 -14 78 -2 31 13 c 1
 43 168 l 1
 73 168 l 1
 73 151 l 2
 73 95 91 20 213 20 c 2
141 557 m 0
 141 491 188 455 236 420 c 1
 244 660 l 1
 183 655 141 618 141 557 c 0
354 155 m 0
 354 211 312 251 267 288 c 1
 258 26 l 1
 314 42 354 88 354 155 c 0
EndSplineSet
Validated: 1
EndChar

StartChar: percent
Encoding: 5 37 6
Width: 682
Flags: W
LayerCount: 2
Back
Fore
SplineSet
118 -8 m 1
 90 15 l 1
 527 618 l 1
 495 602 446 587 370 587 c 0
 355 587 342 587 327 588 c 1
 336 565 340 542 340 514 c 0
 340 413 275 298 171 298 c 0
 74 298 42 370 42 450 c 0
 42 542 102 659 212 659 c 0
 243 659 266 652 285 640 c 0
 297 633 331 621 391 621 c 0
 471 621 525 641 553 654 c 1
 580 691 l 1
 608 672 l 1
 118 -8 l 1
346 152 m 0
 346 241 405 361 516 361 c 0
 609 361 644 296 644 216 c 0
 644 115 580 0 475 0 c 0
 377 0 346 70 346 152 c 0
500 328 m 0
 430 328 404 239 404 173 c 0
 404 105 430 35 491 35 c 0
 562 35 587 118 587 186 c 0
 587 248 561 328 500 328 c 0
196 626 m 0
 124 626 100 532 100 471 c 0
 100 402 126 333 187 333 c 0
 259 333 283 420 283 484 c 0
 283 546 257 626 196 626 c 0
EndSplineSet
Validated: 1
Ligature2: "'frac' Diagonal Fractions lookup 1 subtable" zero fraction zero
Ligature2: "'frac' Diagonal Fractions lookup 1 subtable" zero slash zero
EndChar

StartChar: ampersand
Encoding: 6 38 7
Width: 775
Flags: W
LayerCount: 2
Back
Fore
SplineSet
300 657 m 0
 238 657 210 597 210 533 c 0
 210 489 233 449 258 408 c 1
 324 453 373 505 373 567 c 0
 373 613 352 657 300 657 c 0
259 41 m 0
 300 41 347 62 394 115 c 1
 330 184 263 250 212 336 c 1
 134 285 112 241 112 179 c 0
 112 103 171 41 259 41 c 0
564 323 m 2
 459 158 l 1
 502 118 594 47 662 47 c 0
 690 47 713 51 741 71 c 1
 754 53 l 1
 719 21 672 -10 624 -10 c 0
 546 -10 473 49 414 95 c 1
 356 18 282 -10 219 -10 c 0
 118 -10 41 54 41 154 c 0
 41 199 52 254 112 304 c 1
 139 328 167 344 196 365 c 1
 169 405 154 457 154 501 c 0
 154 560 178 613 225 656 c 0
 258 685 293 693 332 693 c 0
 393 693 441 648 441 585 c 0
 441 553 433 522 398 485 c 0
 358 442 316 416 273 381 c 1
 320 306 373 233 436 176 c 1
 522 326 l 2
 597 457 649 469 682 469 c 0
 715 469 726 448 726 430 c 0
 726 419 724 406 716 394 c 1
 703 399 689 401 676 401 c 0
 631 401 595 371 564 323 c 2
EndSplineSet
Validated: 1
EndChar

StartChar: quotesingle
Encoding: 7 39 8
Width: 176
Flags: W
LayerCount: 2
Back
Fore
SplineSet
145 679 m 1
 117 461 l 1
 78 461 l 1
 50 679 l 1
 145 679 l 1
EndSplineSet
Validated: 1
EndChar

StartChar: parenleft
Encoding: 8 40 9
Width: 334
Flags: W
LayerCount: 2
Back
Fore
SplineSet
337 733 m 1
 349 711 l 1
 197 602 98 432 98 243 c 0
 98 77 173 -55 318 -181 c 1
 304 -203 l 1
 130 -96 29 48 29 243 c 0
 29 445 144 631 337 733 c 1
EndSplineSet
Validated: 1
EndChar

StartChar: parenright
Encoding: 9 41 10
Width: 333
Flags: W
LayerCount: 2
Back
Fore
SplineSet
-5 -203 m 1
 -17 -181 l 1
 134 -72 234 98 234 287 c 0
 234 453 159 585 14 711 c 1
 28 733 l 1
 202 626 303 482 303 287 c 0
 303 84 188 -101 -5 -203 c 1
EndSplineSet
Validated: 1
EndChar

StartChar: asterisk
Encoding: 10 42 11
Width: 461
Flags: W
HStem: 673 20G<210.529 214.5 274.4 275.093>
LayerCount: 2
Back
Fore
SplineSet
206 496 m 1
 52 565 l 1
 68 588 79 606 88 623 c 1
 222 523 l 1
 209 693 l 1
 220 692 231 691 242 691 c 0
 246.4 691 251.12 690.84 255.968 690.84 c 0
 263.24 690.84 270.8 691.2 278 693 c 1
 253 521 l 1
 396 622 l 1
 408 597 416 579 427 562 c 1
 270 497 l 1
 421 424 l 1
 384 367 l 1
 251 471 l 1
 262 298 l 1
 251 298 l 2
 246 298 237 299 229 299 c 0
 224 299 208 299 195 298 c 1
 222 470 l 1
 79 368 l 1
 71 386 57 412 47 427 c 1
 206 496 l 1
EndSplineSet
Validated: 1
EndChar

StartChar: plus
Encoding: 11 43 12
Width: 530
Flags: W
LayerCount: 2
Back
Fore
SplineSet
36 340 m 1
 242 340 l 1
 242 546 l 1
 290 546 l 1
 290 340 l 1
 496 340 l 1
 496 292 l 1
 290 292 l 1
 290 86 l 1
 242 86 l 1
 242 292 l 1
 36 292 l 1
 36 340 l 1
EndSplineSet
Validated: 1
EndChar

StartChar: comma
Encoding: 12 44 13
Width: 211
Flags: W
LayerCount: 2
Back
Fore
SplineSet
45 -153 m 1
 30 -132 l 1
 64 -107 97 -76 97 -33 c 0
 97 9 67 34 39 45 c 1
 39 68 56 97 93 97 c 0
 123 97 156 74 156 18 c 0
 156 -29 132 -98 45 -153 c 1
EndSplineSet
Validated: 1
EndChar

StartChar: hyphen
Encoding: 13 45 14
Width: 412
Flags: W
LayerCount: 2
Back
Fore
SplineSet
67 266 m 1
 343 266 l 1
 341 210 l 1
 65 210 l 1
 67 266 l 1
EndSplineSet
Validated: 1
EndChar

StartChar: period
Encoding: 14 46 15
Width: 198
Flags: W
LayerCount: 2
Back
Fore
SplineSet
90 -10 m 0
 62 -10 42 7 42 42 c 0
 42 72 61 98 93 98 c 0
 120 98 140 81 140 46 c 0
 140 17 122 -10 90 -10 c 0
EndSplineSet
Validated: 1
EndChar

StartChar: slash
Encoding: 15 47 16
Width: 497
Flags: W
LayerCount: 2
Back
Fore
SplineSet
436 719 m 1
 490 719 l 1
 60 -174 l 1
 6 -174 l 1
 436 719 l 1
EndSplineSet
Validated: 1
EndChar

StartChar: zero
Encoding: 16 48 17
Width: 565
Flags: W
LayerCount: 2
Back
Fore
SplineSet
288 657 m 0
 144 657 121 462 121 356 c 0
 121 228 155 22 287 22 c 0
 430 22 446 247 446 375 c 0
 446 644 320 657 288 657 c 0
50 323 m 0
 50 497 118 693 299 693 c 0
 448 693 520 536 520 389 c 0
 520 237 459 -14 282 -14 c 0
 115 -14 50 154 50 323 c 0
EndSplineSet
Validated: 1
EndChar

StartChar: one
Encoding: 17 49 18
Width: 330
Flags: W
LayerCount: 2
Back
Fore
SplineSet
138 34 m 1
 158 605 l 1
 148 598 136 591 123 584 c 0
 100 572 70 556 37 543 c 1
 25 568 l 1
 89 597 144 630 207 693 c 1
 236 693 l 1
 224 385 216 130 216 102 c 0
 216 46 232 34 265 31 c 1
 286 28 l 1
 286 0 l 1
 260 3 l 2
 244 4 218 7 186 7 c 0
 153 7 113 5 65 0 c 1
 65 28 l 1
 99 31 113 34 138 34 c 1
EndSplineSet
Validated: 1
Substitution2: "'sups' Superscript lookup 3 subtable" onesuperior
Substitution2: "'aalt' Access All Alternates lookup 0 subtable" onesuperior
EndChar

StartChar: two
Encoding: 18 50 19
Width: 495
Flags: W
LayerCount: 2
Back
Fore
SplineSet
227 646 m 0
 155 646 119 606 119 545 c 0
 119 529 121 512 126 493 c 1
 115 482 101 476 88 476 c 0
 67 476 48 491 48 522 c 0
 48 599 164 693 270 693 c 0
 375 693 436 626 436 530 c 0
 436 423 353 302 111 60 c 1
 337 68 l 1
 381 68 404 71 427 149 c 1
 455 145 l 1
 439 83 429 49 424 0 c 1
 32 0 l 1
 23 19 l 1
 162 170 356 328 356 514 c 0
 356 601 307 646 227 646 c 0
EndSplineSet
Validated: 1
Substitution2: "'sups' Superscript lookup 3 subtable" twosuperior
Substitution2: "'aalt' Access All Alternates lookup 0 subtable" twosuperior
EndChar

StartChar: three
Encoding: 19 51 20
Width: 480
Flags: W
LayerCount: 2
Back
Fore
SplineSet
123 -14 m 0
 83 -14 22 -3 22 40 c 0
 22 59 35 79 51 92 c 1
 86 55 130 36 167 36 c 0
 268 36 361 99 361 227 c 0
 361 308 311 353 226 353 c 0
 204 353 174 349 152 341 c 1
 144 370 l 1
 169 378 l 1
 232 397 323 451 323 554 c 0
 323 604 291 647 223 647 c 0
 163 647 119 612 79 577 c 1
 60 599 l 1
 108 644 164 693 261 693 c 0
 351 693 398 646 398 578 c 0
 398 498 321 428 276 401 c 1
 384 401 437 334 437 253 c 0
 437 86 257 -14 123 -14 c 0
EndSplineSet
Validated: 1
Substitution2: "'sups' Superscript lookup 3 subtable" threesuperior
Substitution2: "'aalt' Access All Alternates lookup 0 subtable" threesuperior
EndChar

StartChar: four
Encoding: 20 52 21
Width: 496
Flags: W
LayerCount: 2
Back
Fore
SplineSet
288 34 m 1
 295 222 l 1
 7 222 l 1
 8 252 l 1
 353 693 l 1
 382 677 l 1
 368 271 l 1
 399 274 425 275 444 276 c 2
 474 279 l 1
 451 222 l 1
 366 222 l 1
 363 157 363 113 363 102 c 0
 363 46 377 36 411 31 c 2
 432 28 l 1
 432 0 l 1
 408 3 l 2
 392 4 367 7 335 7 c 0
 303 7 263 5 215 0 c 1
 215 28 l 1
 249 31 265 34 288 34 c 1
308 578 m 1
 59 260 l 1
 133 260 222 264 296 267 c 1
 308 578 l 1
EndSplineSet
Validated: 1
Substitution2: "'sups' Superscript lookup 3 subtable" foursuperior
Substitution2: "'aalt' Access All Alternates lookup 0 subtable" foursuperior
EndChar

StartChar: five
Encoding: 21 53 22
Width: 464
Flags: W
LayerCount: 2
Back
Fore
SplineSet
420 243 m 0
 420 83 243 -14 118 -14 c 0
 80 -14 19 -4 19 43 c 0
 19 68 40 85 48 93 c 1
 79 60 120 37 171 37 c 0
 265 37 346 104 346 217 c 0
 346 310 294 353 193 353 c 0
 161 353 113 347 89 342 c 1
 80 351 l 1
 121 679 l 1
 336 679 l 2
 386 679 402 707 415 731 c 1
 441 720 l 1
 420 678 413 664 394 611 c 1
 153 611 l 1
 126 399 l 1
 150 404 180 410 219 410 c 0
 322 410 420 365 420 243 c 0
EndSplineSet
Validated: 1
EndChar

StartChar: six
Encoding: 22 54 23
Width: 509
Flags: W
LayerCount: 2
Back
Fore
SplineSet
431 693 m 1
 444 668 l 1
 311 607 180 499 135 355 c 1
 183 390 234 405 298 405 c 0
 383 405 474 352 474 222 c 0
 474 71 355 -14 246 -14 c 0
 125 -14 41 77 41 226 c 0
 41 449 216 613 431 693 c 1
255 353 m 0
 204 353 165 339 126 319 c 1
 119 291 116 267 116 236 c 0
 116 84 189 22 261 22 c 0
 323 22 402 66 402 205 c 0
 402 298 347 353 255 353 c 0
EndSplineSet
Validated: 1
EndChar

StartChar: seven
Encoding: 23 55 24
Width: 431
Flags: W
LayerCount: 2
Back
Fore
SplineSet
140 -14 m 1
 66 25 l 1
 166 202 299 428 387 618 c 1
 158 610 l 2
 97 607 83 602 54 514 c 1
 27 522 l 1
 44 583 53 631 60 679 c 1
 435 679 l 1
 447 663 l 1
 324 408 227 178 140 -14 c 1
EndSplineSet
Validated: 1
EndChar

StartChar: eight
Encoding: 24 56 25
Width: 494
Flags: W
LayerCount: 2
Back
Fore
SplineSet
437 555 m 0
 437 478 378 415 320 365 c 1
 384 317 444 262 444 182 c 0
 444 64 337 -14 219 -14 c 0
 122 -14 39 41 39 142 c 0
 39 238 118 312 195 371 c 1
 131 422 83 466 83 533 c 0
 83 629 178 693 273 693 c 0
 358 693 437 648 437 555 c 0
242 335 m 2
 221 351 l 1
 162 308 107 248 107 166 c 0
 107 82 160 22 241 22 c 0
 308 22 371 74 371 150 c 0
 371 241 291 297 242 335 c 2
253 657 m 0
 200 657 151 625 151 564 c 0
 151 491 237 428 283 393 c 2
 295 384 l 1
 337 418 374 467 374 525 c 0
 374 598 321 657 253 657 c 0
EndSplineSet
Validated: 1
EndChar

StartChar: nine
Encoding: 25 57 26
Width: 507
Flags: W
LayerCount: 2
Back
Fore
SplineSet
79 -14 m 1
 66 11 l 1
 203 75 333 186 378 335 c 1
 330 300 278 284 214 284 c 0
 129 284 40 337 40 467 c 0
 40 617 155 693 264 693 c 0
 386 693 469 602 469 453 c 0
 469 230 295 66 79 -14 c 1
257 336 m 0
 310 336 348 348 387 371 c 1
 392 395 394 416 394 443 c 0
 394 595 322 657 249 657 c 0
 187 657 112 613 112 484 c 0
 112 391 166 336 257 336 c 0
EndSplineSet
Validated: 1
EndChar

StartChar: colon
Encoding: 26 58 27
Width: 220
Flags: W
LayerCount: 2
Back
Fore
SplineSet
113 330 m 0
 85 330 65 346 65 382 c 0
 65 412 84 438 116 438 c 0
 143 438 163 421 163 386 c 0
 163 356 145 330 113 330 c 0
100 -10 m 0
 73 -10 52 7 52 42 c 0
 52 72 71 98 103 98 c 0
 130 98 150 81 150 46 c 0
 150 17 131 -10 100 -10 c 0
EndSplineSet
Validated: 1
EndChar

StartChar: semicolon
Encoding: 27 59 28
Width: 237
Flags: W
LayerCount: 2
Back
Fore
SplineSet
117 330 m 0
 90 330 69 346 69 382 c 0
 69 412 88 438 120 438 c 0
 147 438 167 421 167 386 c 0
 167 356 148 330 117 330 c 0
60 -153 m 1
 45 -132 l 1
 80 -108 112 -76 112 -33 c 0
 112 9 82 34 54 45 c 1
 54 68 72 97 108 97 c 0
 139 97 171 74 171 18 c 0
 171 -29 147 -98 60 -153 c 1
EndSplineSet
Validated: 1
EndChar

StartChar: less
Encoding: 28 60 29
Width: 547
Flags: W
LayerCount: 2
Back
Fore
SplineSet
34 298 m 1
 34 339 l 1
 462 556 l 1
 484 513 l 1
 101 318 l 1
 484 124 l 1
 462 81 l 1
 34 298 l 1
EndSplineSet
Validated: 1
EndChar

StartChar: equal
Encoding: 29 61 30
Width: 630
Flags: W
LayerCount: 2
Back
Fore
SplineSet
86 270 m 1
 546 270 l 1
 546 222 l 1
 86 222 l 1
 86 270 l 1
86 411 m 1
 546 411 l 1
 546 363 l 1
 86 363 l 1
 86 411 l 1
EndSplineSet
Validated: 1
EndChar

StartChar: greater
Encoding: 30 62 31
Width: 548
Flags: W
LayerCount: 2
Back
Fore
SplineSet
516 339 m 1
 516 298 l 1
 88 81 l 1
 66 124 l 1
 449 318 l 1
 66 513 l 1
 88 556 l 1
 516 339 l 1
EndSplineSet
Validated: 1
EndChar

StartChar: question
Encoding: 31 63 32
Width: 369
Flags: W
LayerCount: 2
Back
Fore
SplineSet
114 536 m 1
 111 536 l 1
 110 535 107 535 104 535 c 0
 86 535 50 542 50 581 c 0
 50 648 123 689 192 689 c 0
 285 689 337 623 337 548 c 0
 337 394 131 374 131 287 c 0
 131 256 153 244 185 244 c 0
 200 244 216 248 233 257 c 1
 238 251 l 1
 230 219 213 184 174 184 c 0
 133 184 104 215 104 274 c 0
 104 354 156 402 231 466 c 0
 265 495 296 523 296 573 c 0
 296 616 271 659 207 659 c 0
 143 659 112 610 112 557 c 0
 112 550 113 544 114 536 c 1
159 -10 m 0
 132 -10 111 7 111 42 c 0
 111 72 130 98 162 98 c 0
 189 98 209 81 209 46 c 0
 209 17 190 -10 159 -10 c 0
EndSplineSet
Validated: 1
EndChar

StartChar: at
Encoding: 32 64 33
Width: 750
Flags: W
LayerCount: 2
Back
Fore
SplineSet
519 69 m 1
 602 85 676 177 676 291 c 0
 676 435 578 523 430 523 c 0
 244 523 102 380 102 191 c 0
 102 7 223 -115 406 -115 c 0
 482 -115 547 -96 627 -53 c 1
 639 -82 l 1
 546 -133 464 -156 381 -156 c 0
 189 -156 42 -16 42 180 c 0
 42 397 206 559 426 559 c 0
 601 559 715 454 715 291 c 0
 715 151 604 24 468 24 c 1
 453 39 l 1
 458 66 465 152 468 206 c 1
 461 208 l 1
 416 120 339 40 269 24 c 1
 225 39 l 1
 224 54 223 65 223 80 c 0
 223 257 332 407 443 407 c 0
 479 407 501 403 533 395 c 1
 522 280 519 181 519 69 c 1
467 321 m 1
 468 346 l 1
 452 351 431 356 412 356 c 0
 329 356 290 263 290 129 c 0
 290 114 290 99 291 83 c 1
 339 87 459 182 467 321 c 1
EndSplineSet
Validated: 1
EndChar

StartChar: A
Encoding: 33 65 34
Width: 618
Flags: W
LayerCount: 2
Back
Fore
SplineSet
309 571 m 1
 295 571 l 1
 192 271 l 1
 391 271 l 1
 309 571 l 1
299 693 m 1
 338 704 l 1
 503 170 l 2
 527 90 553 40 596 32 c 1
 623 28 l 1
 622 0 l 1
 589 4 549 6 509 6 c 0
 466 6 424 4 387 0 c 1
 388 28 l 1
 457 34 l 1
 401 237 l 1
 382 237 l 2
 347 237 263 235 176 227 c 1
 149 152 l 2
 137 120 127 91 127 71 c 0
 127 50 137 36 164 32 c 2
 193 28 l 1
 192 0 l 1
 157 4 126 7 91 7 c 0
 55 7 20 4 -27 0 c 1
 -26 28 l 1
 1 31 l 2
 16 32 33 34 42 34 c 1
 122 202 227 473 299 693 c 1
EndSplineSet
Validated: 1
Position2: "'cpsp' Capital Spacing lookup 0 subtable" dx=5 dy=0 dh=10 dv=0
EndChar

StartChar: B
Encoding: 34 66 35
Width: 551
Flags: MW
HStem: 351 32<233.5 234.5 190 308.5>
VStem: 103 78<34 106> 432 80<143 228.5>
LayerCount: 2
Back
Fore
SplineSet
461 540 m 0
 461 460 406 401 357 368 c 1
 465 338 512 276 512 193 c 0
 512 93 440 -6 297 -6 c 0
 244 -6 193 6 139 6 c 0
 108 6 73 4 29 0 c 1
 30 28 l 1
 63 31 80 34 103 34 c 1
 112 299 l 1
 115 433 121 567 121 573 c 0
 121 635 105 642 72 648 c 1
 51 651 l 1
 52 679 l 1
 59 678 68 676 78 675 c 0
 95 674 117 672 144 672 c 0
 201 672 221 684 295 684 c 0
 415 684 461 615 461 540 c 0
189 348 m 1
 185 232 l 2
 182 173 181 110 181 102 c 0
 181 49 202 22 279 22 c 0
 311 22 432 32 432 180 c 0
 432 277 375 351 242 351 c 0
 225 351 207 350 189 348 c 1
190 383 m 1
 218 383 l 2
 251 383 280 380 308 377 c 1
 351 409 384 458 384 518 c 0
 384 603 334 652 268 652 c 0
 249 652 232 652 205 649 c 1
 202 612 193 529 193 465 c 1
 190 383 l 1
EndSplineSet
Validated: 1
Position2: "'cpsp' Capital Spacing lookup 0 subtable" dx=5 dy=0 dh=10 dv=0
EndChar

StartChar: C
Encoding: 35 67 36
Width: 689
Flags: MW
VStem: 45 91<242 432.5>
LayerCount: 2
Back
Fore
SplineSet
448 657 m 0
 285 657 136 549 136 352 c 0
 136 132 310 27 459 27 c 0
 520 27 559 34 631 58 c 1
 640 30 l 1
 570 -5 479 -14 424 -14 c 0
 211 -14 45 127 45 325 c 0
 45 540 209 693 442 693 c 0
 541 693 611 680 667 665 c 1
 653 502 l 1
 623 502 l 1
 623 510 l 2
 623 577 600 657 448 657 c 0
EndSplineSet
Validated: 1
Position2: "'cpsp' Capital Spacing lookup 0 subtable" dx=5 dy=0 dh=10 dv=0
EndChar

StartChar: D
Encoding: 36 68 37
Width: 765
Flags: MW
VStem: 104 79<34 114.5> 631 91<273 404>
LayerCount: 2
Back
Fore
SplineSet
31 0 m 1
 31 28 l 1
 64 31 81 34 104 34 c 1
 113 293 l 1
 116 424 122 559 122 574 c 0
 122 634 106 643 74 648 c 2
 53 651 l 1
 53 679 l 1
 84 675 l 1
 103 674 129 672 157 672 c 0
 228 672 301 684 386 684 c 0
 586 684 722 547 722 343 c 0
 722 203 638 -6 347 -6 c 0
 287 -6 224 6 157 6 c 0
 126 6 84 5 31 0 c 1
317 648 m 0
 272 648 227 646 201 643 c 1
 192 385 l 2
 187 253 183 121 183 108 c 0
 183 45 203 26 314 26 c 0
 414 26 631 60 631 332 c 0
 631 476 570 648 317 648 c 0
EndSplineSet
Validated: 1
Position2: "'cpsp' Capital Spacing lookup 0 subtable" dx=5 dy=0 dh=10 dv=0
EndChar

StartChar: E
Encoding: 37 69 38
Width: 518
Flags: MW
VStem: 104 78<34 111.5>
LayerCount: 2
Back
Fore
SplineSet
399 383 m 1
 394 321 l 1
 316 332 229 335 190 338 c 1
 186 231 l 2
 183 175 182 117 182 106 c 0
 182 38 220 30 292 30 c 0
 396 30 436 51 457 149 c 1
 488 149 l 1
 483 115 467 35 443 -10 c 1
 305 -5 186 6 147 6 c 0
 114 6 78 5 30 0 c 1
 31 28 l 1
 64 31 81 34 104 34 c 1
 113 293 l 1
 116 424 122 560 122 575 c 0
 122 634 109 643 73 648 c 2
 53 651 l 1
 53 679 l 1
 62 678 74 676 88 675 c 0
 112 674 148 672 200 672 c 2
 318 672 l 2
 370 672 415 674 477 679 c 1
 462 514 l 1
 432 514 l 1
 435 540 433 543 433 545 c 0
 433 589 416 623 324 631 c 1
 204 639 l 1
 199 586 196 529 195 482 c 2
 191 372 l 1
 399 383 l 1
EndSplineSet
Validated: 1
Position2: "'cpsp' Capital Spacing lookup 0 subtable" dx=5 dy=0 dh=10 dv=0
EndChar

StartChar: F
Encoding: 38 70 39
Width: 484
Flags: MW
VStem: 104 79
LayerCount: 2
Back
Fore
SplineSet
400 374 m 1
 395 312 l 1
 317 320 228 329 190 329 c 1
 187 233 l 1
 184 182 183 129 183 110 c 0
 183 46 201 36 236 31 c 2
 257 28 l 1
 257 0 l 1
 229 3 l 1
 210 4 184 7 152 7 c 0
 119 7 79 5 31 0 c 1
 31 28 l 1
 64 31 81 34 104 34 c 1
 120 563 122 569 122 575 c 0
 122 634 109 643 73 648 c 2
 53 651 l 1
 53 679 l 1
 62 678 74 676 88 675 c 0
 112 674 148 672 200 672 c 2
 318 672 l 2
 370 672 415 674 477 679 c 1
 462 514 l 1
 432 514 l 1
 433 527 433 533 433 542 c 0
 433 586 421 623 325 631 c 1
 204 639 l 1
 199 586 196 529 195 482 c 2
 191 363 l 1
 400 374 l 1
EndSplineSet
Validated: 1
Position2: "'cpsp' Capital Spacing lookup 0 subtable" dx=5 dy=0 dh=10 dv=0
EndChar

StartChar: G
Encoding: 39 71 40
Width: 750
Flags: MW
VStem: 46 90<240.5 434 240.5 444> 577 79<206.5 282>
LayerCount: 2
Back
Fore
SplineSet
656 282 m 1
 647 27 l 1
 589 6 498 -14 423 -14 c 0
 222 -14 46 113 46 334 c 0
 46 554 214 693 441 693 c 0
 523 693 606 678 663 665 c 1
 649 502 l 1
 619 502 l 1
 619 510 l 2
 619 571 593 657 444 657 c 0
 265 657 136 534 136 334 c 0
 136 147 273 26 443 26 c 0
 496 26 535 34 571 53 c 1
 576 180 577 202 577 211 c 0
 577 271 562 279 529 285 c 1
 508 288 l 1
 508 316 l 1
 515 315 524 313 534 312 c 0
 550 311 575 309 608 309 c 0
 641 309 681 311 729 316 c 1
 729 288 l 1
 695 285 681 285 656 282 c 1
EndSplineSet
Validated: 1
Position2: "'cpsp' Capital Spacing lookup 0 subtable" dx=5 dy=0 dh=10 dv=0
EndChar

StartChar: H
Encoding: 40 72 41
Width: 799
Flags: MW
VStem: 103 78 602 78
LayerCount: 2
Back
Fore
SplineSet
529 0 m 1
 529 28 l 1
 563 31 579 34 602 34 c 1
 605 142 609 247 613 338 c 1
 604 338 362 338 188 322 c 1
 183 204 181 118 181 102 c 0
 181 46 198 34 230 31 c 1
 251 28 l 1
 251 0 l 1
 225 3 l 2
 208 4 183 7 151 7 c 0
 118 7 78 5 30 0 c 1
 30 28 l 1
 63 31 80 34 103 34 c 1
 111 294 122 549 122 577 c 0
 122 635 106 643 73 648 c 2
 52 651 l 1
 52 679 l 1
 59 678 67 676 78 675 c 0
 94 674 119 672 152 672 c 0
 185 672 225 674 273 679 c 1
 273 651 l 1
 239 648 225 648 200 645 c 1
 190 372 l 1
 614 372 l 1
 617 481 621 562 621 577 c 0
 621 635 604 643 572 648 c 2
 551 651 l 1
 551 679 l 1
 558 678 567 676 577 675 c 0
 593 674 618 672 651 672 c 0
 684 672 724 674 772 679 c 1
 772 651 l 1
 738 648 724 648 699 645 c 1
 691 385 680 130 680 102 c 0
 680 46 698 34 729 31 c 1
 750 28 l 1
 750 0 l 1
 724 3 l 2
 707 4 682 7 650 7 c 0
 617 7 577 5 529 0 c 1
EndSplineSet
Validated: 1
Position2: "'cpsp' Capital Spacing lookup 0 subtable" dx=5 dy=0 dh=10 dv=0
EndChar

StartChar: I
Encoding: 41 73 42
Width: 300
Flags: MW
VStem: 103 78
LayerCount: 2
Back
Fore
SplineSet
30 0 m 1
 30 28 l 1
 63 31 80 34 103 34 c 1
 111 294 122 549 122 577 c 0
 122 635 106 643 73 648 c 2
 52 651 l 1
 52 679 l 1
 59 678 67 676 78 675 c 0
 94 674 119 672 152 672 c 0
 185 672 225 674 273 679 c 1
 273 651 l 1
 239 648 225 648 200 645 c 1
 192 385 181 130 181 102 c 0
 181 46 198 34 230 31 c 1
 251 28 l 1
 251 0 l 1
 225 3 l 2
 208 4 183 7 151 7 c 0
 118 7 78 5 30 0 c 1
EndSplineSet
Validated: 1
Position2: "'cpsp' Capital Spacing lookup 0 subtable" dx=5 dy=0 dh=10 dv=0
EndChar

StartChar: J
Encoding: 42 74 43
Width: 289
Flags: MW
VStem: 117 79<563 645>
LayerCount: 2
Back
Fore
SplineSet
196 645 m 1
 176 91 l 1
 168 -84 117 -199 -25 -245 c 1
 -38 -215 l 1
 50 -159 93 -125 101 91 c 0
 109 294 117 549 117 577 c 0
 117 635 102 642 69 648 c 1
 48 651 l 1
 48 679 l 1
 55 678 64 676 74 675 c 0
 90 674 115 672 148 672 c 0
 181 672 221 674 269 679 c 1
 269 651 l 1
 235 648 221 648 196 645 c 1
EndSplineSet
Validated: 1
Position2: "'cpsp' Capital Spacing lookup 0 subtable" dx=5 dy=0 dh=10 dv=0
EndChar

StartChar: K
Encoding: 43 75 44
Width: 655
Flags: MW
VStem: 122 78
LayerCount: 2
Back
Fore
SplineSet
211 358 m 1
 320 465 411 552 477 642 c 1
 466 643 452 646 441 647 c 1
 421 651 l 1
 421 679 l 1
 449 675 484 672 523 672 c 0
 558 672 595 674 632 679 c 1
 632 651 l 1
 616 649 l 1
 565 641 526 606 451 539 c 1
 285 386 l 1
 338 312 529 27 639 27 c 0
 647 27 654 28 659 30 c 1
 659 8 l 1
 642 -3 623 -6 604 -6 c 0
 445 -6 278 255 211 358 c 1
30 0 m 1
 30 28 l 1
 63 31 80 34 103 34 c 1
 111 294 122 549 122 577 c 0
 122 635 106 643 73 648 c 2
 52 651 l 1
 52 679 l 1
 59 678 67 676 78 675 c 0
 94 674 119 672 152 672 c 0
 185 672 225 674 273 679 c 1
 273 651 l 1
 239 648 225 648 200 645 c 1
 192 385 181 130 181 102 c 0
 181 46 198 34 230 31 c 1
 251 28 l 1
 251 0 l 1
 225 3 l 2
 208 4 183 7 151 7 c 0
 118 7 78 5 30 0 c 1
EndSplineSet
Validated: 1
Position2: "'cpsp' Capital Spacing lookup 0 subtable" dx=5 dy=0 dh=10 dv=0
EndChar

StartChar: L
Encoding: 44 76 45
Width: 507
Flags: W
LayerCount: 2
Back
Fore
SplineSet
104 34 m 1
 112 294 122 549 122 577 c 0
 122 635 106 643 74 648 c 2
 53 651 l 1
 53 679 l 1
 60 678 69 676 79 675 c 0
 95 674 120 672 153 672 c 0
 186 672 226 674 274 679 c 1
 274 651 l 1
 240 648 226 648 201 645 c 1
 193 385 182 130 182 102 c 0
 182 40 228 30 302 30 c 0
 406 30 445 60 467 157 c 1
 498 157 l 1
 493 123 477 35 453 -10 c 1
 315 -5 186 6 147 6 c 0
 114 6 78 5 30 0 c 1
 31 28 l 1
 64 31 81 34 104 34 c 1
EndSplineSet
Validated: 1
Position2: "'cpsp' Capital Spacing lookup 0 subtable" dx=5 dy=0 dh=10 dv=0
EndChar

StartChar: M
Encoding: 45 77 46
Width: 864
Flags: W
LayerCount: 2
Back
Fore
SplineSet
747 692 m 1
 761 123 l 1
 764 47 775 36 811 31 c 2
 832 28 l 1
 832 0 l 1
 806 3 l 2
 789 4 764 7 732 7 c 0
 699 7 659 5 611 0 c 1
 611 28 l 1
 645 31 661 34 684 34 c 1
 682 535 l 1
 673 535 l 1
 424 27 l 1
 401 27 l 1
 182 537 l 1
 174 537 l 1
 144 161 l 1
 141 143 140 107 140 94 c 0
 140 45 158 34 189 31 c 1
 210 28 l 1
 210 0 l 1
 189 3 l 2
 176 4 153 7 124 7 c 0
 95 7 56 5 8 0 c 1
 8 28 l 1
 42 31 58 34 81 34 c 1
 152 677 l 1
 198 693 l 1
 434 148 l 1
 441 148 l 1
 698 682 l 1
 747 692 l 1
EndSplineSet
Validated: 1
Position2: "'cpsp' Capital Spacing lookup 0 subtable" dx=5 dy=0 dh=10 dv=0
EndChar

StartChar: N
Encoding: 46 78 47
Width: 789
Flags: W
LayerCount: 2
Back
Fore
SplineSet
25 0 m 1
 25 28 l 1
 59 31 75 34 98 34 c 1
 111 411 l 2
 112 458 113 498 113 537 c 0
 113 598 110 647 109 679 c 1
 149 694 l 1
 628 119 l 1
 632 289 642 550 642 577 c 0
 642 635 626 643 594 648 c 2
 573 651 l 1
 573 679 l 1
 578 678 584 676 592 675 c 0
 605 674 625 672 654 672 c 0
 683 672 720 674 768 679 c 1
 768 651 l 1
 734 648 720 648 695 645 c 1
 684 331 l 1
 684 296 680 207 680 161 c 0
 680 103 680 60 683 0 c 1
 641 -14 l 1
 162 554 l 1
 158 388 151 129 151 102 c 0
 151 46 166 37 199 31 c 1
 220 28 l 1
 220 0 l 1
 201 3 l 1
 188 4 168 7 139 7 c 0
 110 7 74 5 25 0 c 1
EndSplineSet
Validated: 1
Position2: "'cpsp' Capital Spacing lookup 0 subtable" dx=5 dy=0 dh=10 dv=0
EndChar

StartChar: O
Encoding: 47 79 48
Width: 764
Flags: MW
VStem: 45 90<263 439> 630 92<246 416>
LayerCount: 2
Back
Fore
SplineSet
135 347 m 0
 135 179 228 22 392 22 c 0
 549 22 630 155 630 322 c 0
 630 510 529 657 387 657 c 0
 277 657 135 589 135 347 c 0
45 337 m 0
 45 541 192 693 409 693 c 0
 608 693 722 521 722 355 c 0
 722 137 571 -14 391 -14 c 0
 159 -14 45 163 45 337 c 0
EndSplineSet
Validated: 1
Position2: "'cpsp' Capital Spacing lookup 0 subtable" dx=5 dy=0 dh=10 dv=0
EndChar

StartChar: P
Encoding: 48 80 49
Width: 532
Flags: W
LayerCount: 2
Back
Fore
SplineSet
201 647 m 1
 193 385 183 130 183 102 c 0
 183 46 200 36 232 31 c 2
 253 28 l 1
 253 0 l 1
 227 3 l 2
 210 4 185 7 153 7 c 0
 120 7 80 5 32 0 c 1
 32 28 l 1
 66 31 82 34 105 34 c 1
 109 294 123 549 123 577 c 0
 123 635 107 643 75 648 c 2
 54 651 l 1
 54 679 l 1
 83 675 l 1
 102 674 124 672 148 672 c 0
 192 672 226 684 296 684 c 0
 445 684 510 597 510 495 c 0
 510 378 410 286 292 286 c 0
 272 286 256 288 244 291 c 1
 245 322 l 1
 256 320 267 319 278 319 c 0
 370 319 432 389 432 486 c 0
 432 590 374 652 257 652 c 0
 234 652 218 650 201 647 c 1
EndSplineSet
Validated: 1
Position2: "'cpsp' Capital Spacing lookup 0 subtable" dx=5 dy=0 dh=10 dv=0
EndChar

StartChar: Q
Encoding: 49 81 50
Width: 764
Flags: MW
VStem: 45 90<263 439> 630 92<246 416>
LayerCount: 2
Back
Fore
SplineSet
689 -143 m 1
 708 -159 l 1
 684 -191 654 -223 581 -223 c 0
 506 -223 445 -190 405 -166 c 0
 311 -110 279 -57 229 -57 c 0
 211 -57 193 -61 176 -70 c 1
 167 -47 l 1
 188 -36 209 -28 236 -28 c 0
 271 -28 326 -36 400 -79 c 1
 534 -154 561 -185 609 -185 c 0
 636 -185 655 -182 689 -143 c 1
45 337 m 0
 45 541 192 693 409 693 c 0
 608 693 722 521 722 355 c 0
 722 137 571 -14 391 -14 c 0
 159 -14 45 163 45 337 c 0
135 347 m 0
 135 179 228 22 392 22 c 0
 549 22 630 155 630 322 c 0
 630 510 529 657 387 657 c 0
 277 657 135 589 135 347 c 0
EndSplineSet
Validated: 1
Position2: "'cpsp' Capital Spacing lookup 0 subtable" dx=5 dy=0 dh=10 dv=0
EndChar

StartChar: R
Encoding: 50 82 51
Width: 605
Flags: W
LayerCount: 2
Back
Fore
SplineSet
30 0 m 1
 30 28 l 1
 63 31 80 34 103 34 c 1
 111 294 122 549 122 577 c 0
 122 635 106 643 73 648 c 2
 52 651 l 1
 52 679 l 1
 61 678 70 676 81 675 c 0
 98 674 122 672 146 672 c 0
 191 672 224 684 283 684 c 0
 440 684 502 600 502 512 c 0
 502 392 403 343 348 325 c 1
 447 146 557 0 637 0 c 1
 636 -17 l 1
 624 -19 612 -20 600 -20 c 0
 441 -16 313 217 264 311 c 1
 247 310 229 309 208 309 c 2
 188 309 l 1
 184 250 181 130 181 102 c 0
 181 46 196 36 230 31 c 2
 251 28 l 1
 251 0 l 1
 225 3 l 2
 208 4 183 7 151 7 c 0
 118 7 78 5 30 0 c 1
199 647 m 1
 189 343 l 1
 217 343 l 2
 380 343 424 425 424 511 c 0
 424 574 387 652 262 652 c 0
 239 652 222 651 199 647 c 1
EndSplineSet
Validated: 1
Position2: "'cpsp' Capital Spacing lookup 0 subtable" dx=5 dy=0 dh=10 dv=0
EndChar

StartChar: S
Encoding: 51 83 52
Width: 492
Flags: MW
VStem: 70 79<516 563.5>
LayerCount: 2
Back
Fore
SplineSet
221 22 m 0
 299 22 362 71 362 155 c 0
 362 235 280 284 219 331 c 1
 163 376 70 434 70 528 c 0
 70 599 109 693 258 693 c 0
 322 693 384 681 427 668 c 1
 416 521 l 1
 388 521 l 1
 388 534 l 2
 388 585 375 657 261 657 c 0
 193 657 149 618 149 557 c 0
 149 475 219 439 278 396 c 0
 363 335 441 275 441 181 c 0
 441 72 334 -14 219 -14 c 0
 150 -14 86 -2 39 13 c 1
 51 168 l 1
 81 168 l 1
 81 151 l 2
 81 96 101 22 221 22 c 0
EndSplineSet
Validated: 1
Position2: "'cpsp' Capital Spacing lookup 0 subtable" dx=5 dy=0 dh=10 dv=0
EndChar

StartChar: T
Encoding: 52 84 53
Width: 587
Flags: W
LayerCount: 2
Back
Fore
SplineSet
248 34 m 1
 269 645 l 1
 232 646 201 647 182 647 c 0
 109 647 73 631 46 521 c 1
 17 521 l 1
 37 685 l 1
 112 680 162 679 203 679 c 0
 381 679 529 681 592 686 c 1
 577 521 l 1
 547 521 l 1
 547 528 548 541 548 549 c 0
 548 592 536 632 440 637 c 2
 344 642 l 1
 336 385 327 130 327 102 c 0
 327 46 344 34 375 31 c 1
 396 28 l 1
 396 0 l 1
 370 3 l 2
 353 4 328 7 296 7 c 0
 263 7 223 5 175 0 c 1
 175 28 l 1
 208 31 225 34 248 34 c 1
EndSplineSet
Validated: 1
Position2: "'cpsp' Capital Spacing lookup 0 subtable" dx=5 dy=0 dh=10 dv=0
EndChar

StartChar: U
Encoding: 53 85 54
Width: 733
Flags: W
LayerCount: 2
Back
Fore
SplineSet
38 651 m 1
 38 679 l 1
 45 678 54 676 64 675 c 0
 81 674 105 672 138 672 c 0
 171 672 211 674 259 679 c 1
 259 651 l 1
 225 648 209 648 186 645 c 1
 174 300 172 251 172 230 c 0
 172 95 234 28 371 28 c 0
 504 28 576 104 581 261 c 0
 588 445 592 549 592 577 c 0
 592 635 576 643 544 648 c 2
 523 651 l 1
 523 679 l 1
 529 678 537 676 546 675 c 0
 562 674 584 672 616 672 c 0
 648 672 686 674 734 679 c 1
 734 651 l 1
 700 648 686 648 661 645 c 1
 628 254 l 1
 612 81 530 -14 364 -14 c 0
 201 -14 94 52 94 196 c 0
 94 251 108 549 108 577 c 0
 108 635 91 643 59 648 c 2
 38 651 l 1
EndSplineSet
Validated: 1
Position2: "'cpsp' Capital Spacing lookup 0 subtable" dx=5 dy=0 dh=10 dv=0
EndChar

StartChar: V
Encoding: 54 86 55
Width: 659
Flags: W
LayerCount: 2
Back
Fore
SplineSet
157 645 m 1
 338 91 l 1
 344 91 l 1
 518 556 l 2
 531 589 537 609 537 624 c 0
 537 640 528 645 509 648 c 2
 488 651 l 1
 488 679 l 1
 493 678 500 676 508 675 c 0
 521 674 542 672 573 672 c 0
 604 672 641 674 689 679 c 1
 689 651 l 1
 655 648 641 648 616 645 c 1
 340 -7 l 1
 301 -15 l 1
 101 556 l 2
 74 634 51 642 15 648 c 2
 -6 651 l 1
 -6 679 l 1
 3 678 12 676 23 675 c 0
 43 674 70 672 105 672 c 0
 140 672 182 674 230 679 c 1
 230 651 l 1
 196 648 182 648 157 645 c 1
EndSplineSet
Validated: 1
Position2: "'cpsp' Capital Spacing lookup 0 subtable" dx=5 dy=0 dh=10 dv=0
EndChar

StartChar: W
Encoding: 55 87 56
Width: 930
Flags: W
LayerCount: 2
Back
Fore
SplineSet
475 595 m 1
 504 604 l 1
 643 125 l 1
 649 125 l 1
 787 555 l 1
 796 587 802 607 802 622 c 0
 802 639 793 645 773 648 c 2
 752 651 l 1
 752 679 l 1
 757 678 764 676 772 675 c 0
 785 674 806 672 837 672 c 0
 868 672 905 674 953 679 c 1
 953 651 l 1
 919 648 903 648 880 645 c 1
 644 -7 l 1
 605 -15 l 1
 469 455 l 1
 305 -7 l 1
 266 -15 l 1
 106 556 l 2
 84 634 46 642 10 648 c 1
 -1 651 l 1
 -1 679 l 1
 8 678 17 676 28 675 c 0
 47 674 74 672 110 672 c 0
 145 672 187 674 235 679 c 1
 235 651 l 1
 201 648 187 648 162 645 c 1
 303 125 l 1
 309 125 l 1
 475 595 l 1
EndSplineSet
Validated: 1
Position2: "'cpsp' Capital Spacing lookup 0 subtable" dx=5 dy=0 dh=10 dv=0
EndChar

StartChar: X
Encoding: 56 88 57
Width: 579
Flags: W
LayerCount: 2
Back
Fore
SplineSet
57 34 m 1
 258 342 l 1
 143 559 l 1
 106 631 82 643 46 648 c 2
 25 651 l 1
 25 679 l 1
 32 678 41 676 52 675 c 0
 71 674 96 672 131 672 c 0
 166 672 206 674 254 679 c 1
 254 651 l 1
 220 648 206 648 181 645 c 1
 306 414 l 1
 399 556 l 2
 418 584 424 603 424 618 c 0
 424 637 411 645 390 648 c 2
 369 651 l 1
 369 679 l 1
 375 678 382 676 391 675 c 0
 406 674 429 672 460 672 c 0
 491 672 530 674 578 679 c 1
 578 651 l 1
 544 648 528 648 505 645 c 1
 328 375 l 1
 471 110 l 1
 502 48 524 34 557 31 c 1
 578 28 l 1
 578 0 l 1
 551 3 l 1
 532 4 507 7 472 7 c 0
 437 7 397 5 349 0 c 1
 349 28 l 1
 383 31 397 34 422 34 c 1
 280 301 l 1
 163 123 l 2
 144 95 138 76 138 61 c 0
 138 42 151 34 172 31 c 2
 193 28 l 1
 193 0 l 1
 171 3 l 1
 156 4 133 7 102 7 c 0
 71 7 33 5 -16 0 c 1
 -16 28 l 1
 18 31 34 34 57 34 c 1
EndSplineSet
Validated: 1
Position2: "'cpsp' Capital Spacing lookup 0 subtable" dx=5 dy=0 dh=10 dv=0
EndChar

StartChar: Y
Encoding: 57 89 58
Width: 613
Flags: W
LayerCount: 2
Back
Fore
SplineSet
564 644 m 1
 346 288 l 1
 343 185 341 130 341 110 c 0
 341 46 354 36 389 31 c 2
 410 28 l 1
 410 0 l 1
 384 3 l 2
 368 4 342 7 310 7 c 0
 277 7 237 5 189 0 c 1
 189 28 l 1
 223 31 237 34 262 34 c 1
 268 296 l 1
 118 555 l 1
 79 626 48 642 13 647 c 2
 -8 650 l 1
 -8 678 l 1
 0 677 10 675 21 674 c 0
 40 673 65 671 100 671 c 0
 133 671 175 673 223 678 c 1
 223 650 l 1
 189 647 173 647 150 644 c 1
 322 340 l 1
 330 340 l 1
 455 555 l 2
 471 584 479 605 479 618 c 0
 479 637 466 644 446 647 c 2
 425 650 l 1
 425 678 l 1
 431 677 439 675 448 674 c 0
 463 673 486 671 518 671 c 0
 550 671 589 673 637 678 c 1
 637 650 l 1
 604 647 587 647 564 644 c 1
EndSplineSet
Validated: 1
Position2: "'cpsp' Capital Spacing lookup 0 subtable" dx=5 dy=0 dh=10 dv=0
EndChar

StartChar: Z
Encoding: 58 90 59
Width: 630
Flags: W
LayerCount: 2
Back
Fore
SplineSet
560 0 m 1
 23 0 l 1
 24 30 l 1
 495 651 l 1
 214 632 l 1
 130 624 119 609 81 528 c 1
 50 528 l 1
 83 679 l 1
 583 679 l 1
 582 647 l 1
 121 28 l 1
 387 41 l 1
 470 44 528 77 565 176 c 1
 598 176 l 1
 560 0 l 1
EndSplineSet
Validated: 1
Position2: "'cpsp' Capital Spacing lookup 0 subtable" dx=5 dy=0 dh=10 dv=0
EndChar

StartChar: bracketleft
Encoding: 59 91 60
Width: 264
Flags: W
LayerCount: 2
Back
Fore
SplineSet
236 -140 m 1
 235 -174 l 1
 64 -174 l 1
 95 719 l 1
 266 719 l 1
 265 685 l 1
 154 685 l 1
 125 -140 l 1
 236 -140 l 1
EndSplineSet
Validated: 1
EndChar

StartChar: backslash
Encoding: 60 92 61
Width: 554
Flags: W
LayerCount: 2
Back
Fore
SplineSet
88 719 m 1
 518 -174 l 1
 464 -174 l 1
 34 719 l 1
 88 719 l 1
EndSplineSet
Validated: 1
EndChar

StartChar: bracketright
Encoding: 61 93 62
Width: 264
Flags: W
LayerCount: 2
Back
Fore
SplineSet
-2 -140 m 1
 109 -140 l 1
 138 685 l 1
 27 685 l 1
 28 719 l 1
 199 719 l 1
 168 -174 l 1
 -3 -174 l 1
 -2 -140 l 1
EndSplineSet
Validated: 1
EndChar

StartChar: asciicircum
Encoding: 62 94 63
Width: 364
Flags: W
LayerCount: 2
Back
Fore
SplineSet
199 595 m 1
 90 424 l 1
 34 424 l 1
 181 654 l 1
 216 654 l 1
 364 424 l 1
 308 424 l 1
 199 595 l 1
EndSplineSet
Validated: 1
EndChar

StartChar: underscore
Encoding: 63 95 64
Width: 800
Flags: W
LayerCount: 2
Back
Fore
SplineSet
93 -196 m 1
 95 -148 l 1
 675 -148 l 1
 673 -196 l 1
 93 -196 l 1
EndSplineSet
Validated: 1
EndChar

StartChar: grave
Encoding: 64 96 65
Width: 333
Flags: W
LayerCount: 2
Back
Fore
SplineSet
320 572 m 1
 296 553 l 1
 130 705 l 1
 151 721 171 737 188 754 c 1
 320 572 l 1
EndSplineSet
Validated: 1
Substitution2: "'aalt' Access All Alternates lookup 0 subtable" grave.case
EndChar

StartChar: a
Encoding: 65 97 66
Width: 451
Flags: W
LayerCount: 2
Back
Fore
SplineSet
27 76 m 0
 27 191 223 211 290 215 c 1
 293 244 294 272 294 296 c 0
 294 357 280 412 205 412 c 0
 152 412 115 371 115 320 c 0
 115 309 117 300 120 289 c 1
 113 281 99 276 86 276 c 0
 66 276 48 287 48 317 c 0
 48 390 160 438 240 438 c 0
 317 438 363 405 363 324 c 0
 363 255 348 148 348 100 c 0
 348 59 358 35 379 35 c 0
 404 35 429 71 440 82 c 1
 458 67 l 1
 413 3 381 -10 349 -10 c 0
 303 -10 278 31 278 74 c 1
 251 32 210 -10 134 -10 c 0
 45 -10 27 41 27 76 c 0
159 26 m 0
 242 26 276 107 287 190 c 1
 220 182 99 177 99 86 c 0
 99 36 136 26 159 26 c 0
EndSplineSet
Validated: 1
Substitution2: "Single Substitution lookup 5 subtable" ordfeminine
EndChar

StartChar: b
Encoding: 66 98 67
Width: 496
Flags: MW
VStem: 53 73 384 73<170.5 277>
LayerCount: 2
Back
Fore
SplineSet
53 37 m 1
 69 216 86 458 86 617 c 0
 86 694 75 710 15 710 c 2
 -3 710 l 1
 -3 733 l 1
 55 736 91 740 164 759 c 1
 160 703 143 518 135 353 c 1
 211 415 264 438 309 438 c 0
 408 438 457 356 457 249 c 0
 457 92 332 -10 218 -10 c 0
 163 -10 89 8 53 37 c 1
134 317 m 1
 129 236 126 118 126 65 c 1
 155 41 199 23 250 23 c 0
 322 23 384 101 384 225 c 0
 384 329 346 388 273 388 c 0
 222 388 161 344 134 317 c 1
EndSplineSet
Validated: 1
EndChar

StartChar: c
Encoding: 67 99 68
Width: 448
Flags: MW
VStem: 34 67<165 253>
LayerCount: 2
Back
Fore
SplineSet
398 97 m 1
 412 78 l 1
 341 17 274 -10 211 -10 c 0
 96 -10 34 78 34 186 c 0
 34 320 130 438 282 438 c 0
 362 438 415 402 415 363 c 0
 415 334 388 314 358 314 c 1
 353 355 325 407 245 407 c 0
 177 407 101 350 101 223 c 0
 101 107 165 47 258 47 c 0
 294 47 339 54 398 97 c 1
EndSplineSet
Validated: 1
EndChar

StartChar: d
Encoding: 68 100 69
Width: 519
Flags: MW
VStem: 34 73<142.5 257.5> 353 69
LayerCount: 2
Back
Fore
SplineSet
379 617 m 0
 379 694 368 710 308 710 c 2
 290 710 l 1
 290 733 l 1
 351 736 400 743 458 759 c 1
 446 648 422 310 422 133 c 0
 422 63 427 23 500 23 c 2
 511 23 l 1
 511 0 l 1
 435 -3 390 -3 351 -16 c 1
 356 7 363 56 366 83 c 1
 301 26 242 -10 187 -10 c 0
 99 -10 34 55 34 178 c 0
 34 337 163 438 272 438 c 0
 311 438 341 432 373 423 c 1
 376 487 379 564 379 617 c 0
224 42 m 0
 271 42 314 73 353 107 c 1
 358 184 365 271 370 374 c 1
 340 396 310 411 261 411 c 0
 176 411 107 331 107 201 c 0
 107 84 168 42 224 42 c 0
EndSplineSet
Validated: 1
EndChar

StartChar: e
Encoding: 69 101 70
Width: 453
Flags: MW
VStem: 34 73<154 233 154 260.5>
LayerCount: 2
Back
Fore
SplineSet
326 257 m 0
 257 257 186 263 110 270 c 1
 108 255 107 240 107 226 c 0
 107 82 184 47 263 47 c 0
 313 47 355 59 409 97 c 1
 422 78 l 1
 357 23 295 -10 222 -10 c 0
 105 -10 34 84 34 191 c 0
 34 330 138 438 255 438 c 0
 372 438 409 348 409 279 c 0
 409 271 409 267 408 260 c 1
 380 258 353 257 326 257 c 0
238 409 m 0
 170 409 134 356 115 293 c 1
 162 292 191 291 214 291 c 2
 262 291 l 2
 285 291 306 292 338 293 c 1
 338 298 l 2
 338 368 297 409 238 409 c 0
EndSplineSet
Validated: 1
EndChar

StartChar: f
Encoding: 70 102 71
Width: 300
Flags: HMW
VStem: 70 81
LayerCount: 2
Back
Fore
SplineSet
95 301 m 2
 99 396 l 1
 72 397 45 401 17 405 c 1
 19 428 l 1
 101 428 l 1
 101 430.8 100.84 439.52 100.84 451.024 c 0
 100.84 468.28 101.2 491.8 103 511 c 1
 107 603 191 759 292 759 c 0
 316 759 329 746 329 726 c 0
 329 711 322 693 315 686 c 1
 295 691 275 695 256 695 c 0
 195 695 174 658 163 455 c 1
 161 428 l 1
 205 428 253 429 304 436 c 1
 283 391 l 1
 251 391 l 2
 220 391 191 391 160 392 c 1
 155 299 l 2
 151 234 151 169 151 126 c 0
 151 42 154 23 215 23 c 2
 236 23 l 1
 236 0 l 1
 173 -3 129 0 70 -16 c 1
 81 99 91 205 95 301 c 2
EndSplineSet
Validated: 1
EndChar

StartChar: g
Encoding: 71 103 72
Width: 477
Flags: MW
HStem: 137 30<200.5 243 178.5 256.5> 410 28<180.5 246>
LayerCount: 2
Back
Fore
SplineSet
232 438 m 0
 297 438 343 417 370 378 c 1
 414 421 446 434 470 434 c 0
 498 434 509 417 509 401 c 0
 509 388 504 373 493 361 c 1
 476 372 466 378 439 378 c 0
 420 378 400 368 379 356 c 1
 383 344 387 323 387 310 c 0
 387 217 306 137 207 137 c 0
 194 137 184 137 173 138 c 1
 157 118 l 2
 148 107 140 92 140 83 c 0
 140 63 163 57 229 46 c 0
 344 27 409 13 409 -69 c 0
 409 -167 281 -266 145 -266 c 0
 28 -266 -9 -216 -9 -160 c 0
 -9 -125 5 -76 93 -28 c 1
 105 -47 l 1
 76 -67 61 -97 61 -136 c 0
 61 -202 124 -227 187 -227 c 0
 257 -227 347 -180 347 -100 c 0
 347 -56 323 -40 256 -27 c 2
 139 -5 l 2
 106 2 81 16 81 47 c 0
 81 76 117 119 141 146 c 1
 88 157 42 200 42 271 c 0
 42 375 127 438 232 438 c 0
212 410 m 0
 149 410 115 351 115 290 c 0
 115 229 144 167 213 167 c 0
 273 167 309 212 309 284 c 0
 309 339 280 410 212 410 c 0
EndSplineSet
Validated: 1
EndChar

StartChar: h
Encoding: 72 104 73
Width: 522
Flags: MW
VStem: 52 81 343 80
LayerCount: 2
Back
Fore
SplineSet
90 617 m 0
 90 694 78 710 19 710 c 2
 1 710 l 1
 1 733 l 1
 58 736 96 740 168 759 c 1
 160 685 147 489 139 353 c 1
 211 411 263 438 325 438 c 0
 365 438 437 419 437 307 c 0
 437 234 423 144 423 86 c 0
 423 35 438 24 482 24 c 2
 509 24 l 1
 509 0 l 1
 440 -3 394 -3 343 -16 c 1
 354 59 370 181 370 252 c 0
 370 320 366 388 278 388 c 0
 228 388 170 349 138 317 c 1
 135 252 133 179 133 124 c 0
 133 40 137 23 194 23 c 2
 218 23 l 1
 218 0 l 1
 146 0 99 -5 52 -16 c 1
 80 256 90 520 90 617 c 0
EndSplineSet
Validated: 1
EndChar

StartChar: i
Encoding: 73 105 74
Width: 255
Flags: W
LayerCount: 2
Back
Fore
SplineSet
177 438 m 1
 161 334 153 223 153 126 c 0
 153 37 158 23 216 23 c 2
 238 23 l 1
 238 0 l 1
 230 0 l 2
 169 0 122 -4 75 -16 c 1
 91 89 99 195 99 296 c 0
 99 357 89 389 20 389 c 2
 10 389 l 1
 10 412 l 1
 75 415 128 425 177 438 c 1
139 553 m 4
 112 553 92 569 92 604 c 4
 92 633 111 659 142 659 c 4
 167 659 188 641 188 608 c 4
 188 579 170 553 139 553 c 4
EndSplineSet
Validated: 1
EndChar

StartChar: j
Encoding: 74 106 75
Width: 238
Flags: W
LayerCount: 2
Back
Fore
SplineSet
-46 -180 m 1
 -29 -185 -13 -189 6 -189 c 0
 74 -189 83 -160 86 -71 c 0
 94 162 98 235 98 286 c 0
 98 350 88 389 17 389 c 2
 9 389 l 1
 9 412 l 1
 74 415 133 425 182 438 c 1
 171 370 164 303 161 236 c 2
 150 -18 l 2
 146 -113 60 -266 -12 -266 c 0
 -41 -266 -58 -247 -58 -223 c 0
 -58 -207 -53 -192 -46 -180 c 1
138 553 m 0
 111 553 91 569 91 604 c 0
 91 633 110 659 141 659 c 0
 166 659 187 641 187 608 c 0
 187 579 169 553 138 553 c 0
EndSplineSet
Validated: 1
EndChar

StartChar: k
Encoding: 75 107 76
Width: 493
Flags: MW
VStem: 52 81
LayerCount: 2
Back
Fore
SplineSet
467 46 m 1
 484 30 l 1
 465 7 440 -10 400 -10 c 0
 299 -10 196 168 160 240 c 1
 223 322 315 438 391 438 c 0
 419 438 434 421 434 398 c 0
 434 387 430 374 422 361 c 1
 409 369 396 372 377 372 c 0
 326 372 256 320 217 268 c 1
 241 221 368 30 437 30 c 0
 445 30 455 31 467 46 c 1
133 112 m 0
 133 27 147 23 198 23 c 1
 198 0 l 1
 136 -3 111 0 52 -16 c 1
 80 250 90 521 90 617 c 0
 90 694 78 710 19 710 c 2
 1 710 l 1
 1 733 l 1
 63 736 109 743 168 759 c 1
 140 481 133 201 133 112 c 0
EndSplineSet
Validated: 1
EndChar

StartChar: l
Encoding: 76 108 77
Width: 236
Flags: MW
VStem: 58 81
LayerCount: 2
Back
Fore
SplineSet
139 112 m 0
 139 37 148 23 203 23 c 2
 224 23 l 1
 224 0 l 1
 162 -3 119 0 58 -16 c 1
 82 225 96 521 96 617 c 0
 96 694 84 710 25 710 c 2
 7 710 l 1
 7 733 l 1
 70 736 114 743 174 759 c 1
 150 510 139 201 139 112 c 0
EndSplineSet
Validated: 1
EndChar

StartChar: m
Encoding: 77 109 78
Width: 787
Flags: MW
VStem: 76 81 342 80 608 80
LayerCount: 2
Back
Fore
SplineSet
774 23 m 1
 774 0 l 1
 707 -3 659 -2 608 -16 c 1
 619 59 635 181 635 252 c 0
 635 320 620 388 554 388 c 0
 510 388 467 350 436 322 c 1
 436 307 l 2
 436 234 422 144 422 86 c 0
 422 34 437 23 481 23 c 2
 508 23 l 1
 508 0 l 1
 439 -3 393 -3 342 -16 c 1
 353 59 369 181 369 252 c 0
 369 320 356 388 288 388 c 0
 242 388 199 348 166 318 c 1
 161 254 157 179 157 124 c 0
 157 40 161 23 217 23 c 2
 242 23 l 1
 242 0 l 1
 233 0 l 2
 172 0 123 -4 76 -16 c 1
 91 79 100 180 100 285 c 0
 100 336 97 388 20 388 c 2
 11 388 l 1
 11 412 l 1
 70 415 103 417 172 438 c 1
 165 409 159 374 156 346 c 1
 222 406 270 438 331 438 c 0
 368 438 415 423 431 354 c 1
 496 411 536 438 598 438 c 0
 638 438 702 419 702 307 c 0
 702 234 688 144 688 86 c 0
 688 34 703 23 747 23 c 2
 774 23 l 1
EndSplineSet
Validated: 1
EndChar

StartChar: n
Encoding: 78 110 79
Width: 544
Flags: MW
HStem: 388 50<316.5 344.5>
VStem: 75 81 366 80
LayerCount: 2
Back
Fore
SplineSet
532 23 m 1
 532 0 l 1
 462 -3 418 -2 366 -16 c 1
 379 58 393 182 393 252 c 0
 393 320 388 388 301 388 c 0
 251 388 197 349 165 320 c 1
 162 255 156 180 156 124 c 0
 156 40 160 23 217 23 c 2
 241 23 l 1
 241 0 l 1
 170 0 122 -4 75 -16 c 1
 90 79 99 180 99 285 c 0
 99 336 97 389 19 389 c 2
 10 389 l 1
 10 412 l 1
 68 415 104 416 171 438 c 1
 166 409 158 374 155 346 c 1
 227 407 285 438 348 438 c 0
 388 438 460 419 460 307 c 0
 460 234 446 144 446 86 c 0
 446 34 461 23 506 23 c 2
 532 23 l 1
EndSplineSet
Validated: 1
EndChar

StartChar: o
Encoding: 79 111 80
Width: 515
Flags: MW
HStem: -10 30<204 303.5 204 304> 410 28<206.5 307>
VStem: 34 72<169.5 253> 405 72<177 252>
LayerCount: 2
Back
Fore
SplineSet
255 410 m 0
 158 410 106 317 106 217 c 0
 106 122 151 20 257 20 c 0
 350 20 405 92 405 209 c 0
 405 295 359 410 255 410 c 0
34 191 m 0
 34 315 125 438 277 438 c 0
 421 438 477 351 477 247 c 0
 477 107 372 -10 236 -10 c 0
 80 -10 34 88 34 191 c 0
EndSplineSet
Validated: 1
Substitution2: "Single Substitution lookup 5 subtable" ordmasculine
EndChar

StartChar: p
Encoding: 80 112 81
Width: 524
Flags: HMW
VStem: 412 73<179.5 290.5>
LayerCount: 2
Back
Fore
SplineSet
63 -266 m 1
 66 -239 76 -193 81 -110 c 0
 89 11 97 175 97 295 c 0
 97 362 73 389 17 389 c 2
 8 389 l 1
 8 412 l 1
 80 415 143 428 169 438 c 1
 164 409 157 378 153 345 c 1
 229 410 287 438 336 438 c 0
 433 438 485 373 485 256 c 0
 485 103 368 -10 206 -10 c 0
 175 -10 158 -8 147 -7 c 1
 145 -46 144 -81 144 -114 c 0
 144 -200 147 -227 214 -227 c 2
 229 -227 l 1
 229 -251 l 1
 222.222222222 -251 215.617283951 -250.987654321 209.150891632 -250.987654321 c 0
 157.419753086 -250.987654321 114.555555556 -251.777777778 63 -266 c 1
163 319 m 1
 151 37 l 1
 172 28 206 21 238 21 c 0
 342 21 412 110 412 238 c 0
 412 343 356 388 300 388 c 0
 249 388 195 348 163 319 c 1
EndSplineSet
Validated: 1
EndChar

StartChar: q
Encoding: 81 113 82
Width: 500
Flags: HMW
VStem: 33 73<141.5 248.5>
LayerCount: 2
Back
Fore
SplineSet
439 408 m 1
 427 309 413 -4 413 -114 c 0
 413 -192 413 -227 481 -227 c 2
 498 -227 l 1
 498 -251 l 1
 482 -251 l 2
 476.666666667 -251 471.469135802 -250.987654321 466.353909465 -250.987654321 c 0
 425.432098765 -250.987654321 389.777777778 -251.777777778 332 -266 c 1
 344 -211 356 7 356 70 c 1
 276 6 226 -10 182 -10 c 0
 90 -10 33 62 33 170 c 0
 33 327 168 438 295 438 c 0
 350 438 399 429 439 408 c 1
356 106 m 1
 368 390 l 1
 339 403 318 411 283 411 c 0
 190 411 106 313 106 191 c 0
 106 92 148 42 225 42 c 0
 273 42 326 78 356 106 c 1
EndSplineSet
Validated: 1
EndChar

StartChar: r
Encoding: 82 114 83
Width: 361
Flags: W
LayerCount: 2
Back
Fore
SplineSet
172 438 m 1
 167 414 161 370 156 344 c 1
 225 413 285 438 314 438 c 0
 351 438 360 416 360 400 c 0
 360 381 348 362 335 349 c 1
 319 368 300 375 277 375 c 0
 240 375 195 352 163 320 c 1
 159 255 153 194 153 126 c 0
 153 37 158 23 216 23 c 2
 238 23 l 1
 238 0 l 1
 229 0 l 2
 168 0 122 -4 75 -16 c 1
 91 88 101 195 101 296 c 0
 101 357 90 389 22 389 c 2
 11 389 l 1
 11 412 l 1
 74 417 101 416 172 438 c 1
EndSplineSet
Validated: 1
EndChar

StartChar: s
Encoding: 83 115 84
Width: 378
Flags: MW
VStem: 55 59<312.5 359 312.5 365> 264 63<85.5 125>
LayerCount: 2
Back
Fore
SplineSet
262 308 m 1
 265 319 266 331 266 340 c 0
 266 383 245 410 198 410 c 0
 145 410 114 378 114 340 c 0
 114 285 172 265 222 241 c 1
 270 214 327 185 327 116 c 0
 327 55 281 -10 156 -10 c 0
 81 -10 30 18 30 63 c 0
 30 98 56 120 92 121 c 1
 92 112 l 2
 92 52 127 16 182 16 c 0
 223 16 264 41 264 97 c 0
 264 153 200 178 155 199 c 1
 138 208 l 2
 87 235 55 255 55 315 c 0
 55 415 155 438 214 438 c 0
 274 438 332 417 332 364 c 0
 332 335 309 308 262 308 c 1
EndSplineSet
Validated: 1
EndChar

StartChar: t
Encoding: 84 116 85
Width: 325
Flags: MW
VStem: 82 65<122.5 148>
LayerCount: 2
Back
Fore
SplineSet
14 428 m 1
 99 428 l 1
 100 471 102 516 102 567 c 1
 175 583 l 1
 168 540 165 487 161 428 c 1
 225 428 269 433 300 438 c 1
 278 391 l 1
 246 391 l 2
 215 391 189 391 158 392 c 1
 150 304 147 218 147 165 c 0
 147 80 161 50 211 50 c 0
 239 50 274 67 298 98 c 1
 314 80 l 1
 271 29 222 -10 169 -10 c 0
 99 -10 82 43 82 114 c 0
 82 182 91 274 98 395 c 1
 70 396 44 400 12 405 c 1
 14 428 l 1
EndSplineSet
Validated: 1
EndChar

StartChar: u
Encoding: 85 117 86
Width: 545
Flags: MW
VStem: 82 64<133 159> 372 71
LayerCount: 2
Back
Fore
SplineSet
9 389 m 1
 9 412 l 1
 68 415 125 423 176 438 c 1
 163 351 146 262 146 169 c 0
 146 97 160 40 243 40 c 0
 288 40 346 81 377 110 c 1
 381 170 385 231 385 296 c 0
 385 357 378 389 304 389 c 2
 297 389 l 1
 297 412 l 1
 366 416 418 423 467 438 c 1
 455 395 443 231 443 126 c 0
 443 65 449 23 522 23 c 2
 532 23 l 1
 532 0 l 1
 456 -3 411 -3 372 -16 c 1
 377 14 384 55 387 82 c 1
 312 15 247 -10 195 -10 c 0
 126 -10 82 32 82 127 c 0
 82 191 93 275 93 326 c 0
 93 371 74 389 18 389 c 2
 9 389 l 1
EndSplineSet
Validated: 1
EndChar

StartChar: v
Encoding: 86 118 87
Width: 439
Flags: W
LayerCount: 2
Back
Fore
SplineSet
132 438 m 1
 139 391 147 353 162 306 c 2
 232 79 l 1
 242 79 l 1
 281 144 340 256 340 346 c 0
 340 375 334 401 319 424 c 1
 331 431 348 438 364 438 c 0
 399 438 413 415 413 379 c 0
 413 279 288 111 232 4 c 1
 197 -10 l 1
 84 324 l 2
 70 368 56 389 8 389 c 2
 1 389 l 1
 1 412 l 1
 58 415 79 425 132 438 c 1
EndSplineSet
Validated: 1
EndChar

StartChar: w
Encoding: 87 119 88
Width: 672
Flags: W
LayerCount: 2
Back
Fore
SplineSet
180 -10 m 1
 86 324 l 1
 76 368 57 389 10 389 c 2
 3 389 l 1
 3 412 l 1
 60 415 81 424 130 438 c 1
 140 391 161 302 217 91 c 1
 225 91 l 1
 344 428 l 1
 380 428 l 1
 480 88 l 1
 488 88 l 1
 521 145 573 250 573 338 c 0
 573 371 566 401 547 424 c 1
 558 432 574 438 590 438 c 0
 625 438 645 417 645 374 c 0
 645 274 532 112 476 4 c 1
 443 -10 l 1
 347 320 l 1
 339 320 l 1
 225 4 l 1
 180 -10 l 1
EndSplineSet
Validated: 1
EndChar

StartChar: x
Encoding: 88 120 89
Width: 434
Flags: W
LayerCount: 2
Back
Fore
SplineSet
158 192 m 1
 182 211 l 1
 117 327 l 2
 96 364 83 385 37 385 c 2
 24 385 l 1
 23 408 l 1
 80 416 85 422 136 438 c 1
 234 255 l 1
 243 262 l 2
 275 286 308 332 308 375 c 0
 308 391 303 408 292 424 c 1
 301 431 317 438 336 438 c 0
 359 438 380 425 380 394 c 0
 380 343 323 287 261 238 c 1
 249 228 l 1
 290 152 l 2
 327 83 353 43 411 43 c 2
 419 43 l 1
 420 20 l 1
 362 12 354 9 304 -10 c 1
 196 185 l 1
 176 168 l 2
 144 141 103 94 103 48 c 0
 103 33 106 19 117 4 c 1
 108 -3 91 -10 74 -10 c 0
 52 -10 30 3 30 34 c 0
 30 85 96 141 158 192 c 1
EndSplineSet
Validated: 1
EndChar

StartChar: y
Encoding: 89 121 90
Width: 440
Flags: W
LayerCount: 2
Back
Fore
SplineSet
162 310 m 1
 233 79 l 1
 243 79 l 1
 282 150 342 256 342 344 c 0
 342 373 336 400 320 424 c 1
 333 435 350 438 366 438 c 0
 398 438 414 417 414 382 c 0
 414 315 363 229 328 164 c 1
 236 0 l 2
 180 -100 94 -266 28 -266 c 0
 -9 -266 -24 -244 -24 -213 c 0
 -24 -201 -22 -192 -18 -181 c 1
 -9 -185 5 -189 21 -189 c 0
 85 -189 141 -109 194 -14 c 1
 85 323 l 2
 69 373 51 389 10 389 c 2
 2 389 l 1
 2 412 l 1
 59 415 79 425 133 438 c 1
 138 390 149 358 162 310 c 1
EndSplineSet
Validated: 1
EndChar

StartChar: z
Encoding: 90 122 91
Width: 416
Flags: W
LayerCount: 2
Back
Fore
SplineSet
291 399 m 1
 200 396 l 2
 122 393 97 368 86 322 c 1
 52 332 43 354 43 376 c 0
 43 413 75 433 122 433 c 0
 146 433 172 432 195 429 c 1
 219 428 226 427 258 427 c 0
 293 427 336 429 372 438 c 1
 382 419 l 1
 102 29 l 1
 292 37 314 52 348 99 c 1
 371 88 383 71 383 47 c 0
 383 12 354 -7 313 -7 c 0
 278 -7 252 -6 216 -3 c 1
 180 -2 136 0 96 0 c 0
 81 0 48 -2 24 -6 c 1
 15 15 l 1
 291 399 l 1
EndSplineSet
Validated: 1
EndChar

StartChar: braceleft
Encoding: 91 123 92
Width: 277
Flags: W
LayerCount: 2
Back
Fore
SplineSet
267 733 m 1
 270 708 l 1
 222 697 190 655 190 590 c 0
 190 562 192 533 192 505 c 0
 192 390 172 318 68 265 c 1
 163 220 176 149 176 77 c 0
 176 26 167 -19 167 -81 c 0
 167 -144 208 -170 239 -178 c 1
 234 -203 l 1
 114 -184 96 -104 96 -37 c 0
 96 6 103 47 103 94 c 0
 103 149 94 239 16 250 c 1
 17 280 l 1
 110 292 116 410 116 460 c 2
 116 533 l 2
 116 605 126 709 267 733 c 1
EndSplineSet
Validated: 1
EndChar

StartChar: bar
Encoding: 92 124 93
Width: 211
Flags: W
LayerCount: 2
Back
Fore
SplineSet
81 -196 m 1
 81 759 l 1
 129 759 l 1
 129 -196 l 1
 81 -196 l 1
EndSplineSet
Validated: 1
EndChar

StartChar: braceright
Encoding: 93 125 94
Width: 277
Flags: W
LayerCount: 2
Back
Fore
SplineSet
8 -203 m 1
 5 -178 l 1
 54 -167 85 -125 85 -60 c 0
 85 -32 83 -3 83 25 c 0
 83 140 103 212 207 265 c 1
 112 312 99 379 99 453 c 0
 99 505 108 548 108 611 c 0
 108 673 67 700 36 708 c 1
 41 733 l 1
 162 714 179 634 179 567 c 0
 179 524 172 483 172 436 c 0
 172 381 180 291 259 280 c 1
 258 250 l 1
 165 238 159 120 159 70 c 2
 159 -3 l 2
 159 -76 149 -179 8 -203 c 1
EndSplineSet
Validated: 1
EndChar

StartChar: asciitilde
Encoding: 94 126 95
Width: 456
Flags: W
LayerCount: 2
Back
Fore
SplineSet
387 351 m 1
 414 341 l 1
 400 289 368 218 296 218 c 0
 264 218 236 238 204 263 c 0
 169 290 159 303 138 303 c 0
 103 303 85 248 74 218 c 1
 47 228 l 1
 60 279 93 351 165 351 c 0
 197 351 225 331 257 306 c 0
 291 280 304 266 323 266 c 0
 356 266 376 322 387 351 c 1
EndSplineSet
Validated: 1
EndChar

StartChar: exclamdown
Encoding: 96 161 97
Width: 207
Flags: W
LayerCount: 2
Back
Fore
SplineSet
37 -251 m 1
 53 -144 63 -23 74 70 c 1
 79 125 84 178 87 230 c 1
 115 230 l 1
 118 70 l 1
 118 -23 123 -145 131 -251 c 1
 118 -250 101 -250 84 -250 c 0
 67 -250 49 -250 37 -251 c 1
106 330 m 0
 78 330 58 346 58 382 c 0
 58 412 77 438 109 438 c 0
 134 438 156 421 156 386 c 0
 156 356 138 330 106 330 c 0
EndSplineSet
Validated: 1
EndChar

StartChar: cent
Encoding: 97 162 98
Width: 461
Flags: W
LayerCount: 2
Back
Fore
SplineSet
212 -108 m 1
 215 -10 l 1
 102 -7 40 76 40 186 c 0
 40 302 112 405 230 432 c 1
 234 537 l 1
 268 537 l 1
 264 437 l 1
 272 438 280 438 289 438 c 0
 369 438 422 402 422 363 c 0
 422 334 395 314 365 314 c 1
 362 353 333 403 263 408 c 1
 250 48 l 1
 265 48 l 2
 301 48 346 54 405 97 c 1
 419 78 l 1
 360 27 304 0 249 -7 c 1
 245 -108 l 1
 212 -108 l 1
108 223 m 0
 108 128 150 70 217 53 c 1
 229 406 l 1
 168 393 108 339 108 223 c 0
EndSplineSet
Validated: 1
EndChar

StartChar: sterling
Encoding: 98 163 99
Width: 488
Flags: W
LayerCount: 2
Back
Fore
SplineSet
51 329 m 1
 50 350 l 1
 77 350 105 349 133 349 c 1
 128 404 122 454 122 482 c 0
 122 535 153 580 196 615 c 0
 250 658 293 693 361 693 c 0
 397 693 438 674 438 630 c 0
 438 589 409 567 372 567 c 1
 369 634 331 647 304 647 c 0
 235 647 204 585 204 489 c 0
 204 476 205 461 206 448 c 2
 213 349 l 1
 287 349 355 352 385 357 c 1
 365 312 l 1
 347 310 327 309 306 309 c 0
 278 309 247 310 216 313 c 1
 216 300 l 2
 216 212 180 126 128 72 c 1
 143 76 162 85 191 85 c 0
 256 85 317 48 359 48 c 0
 387 48 406 56 429 81 c 1
 446 60 l 1
 406 17 376 -14 327 -14 c 0
 269 -14 194 50 134 50 c 0
 125 50 116 49 109 46 c 1
 44 -14 l 1
 23 10 l 1
 109 91 139 126 139 246 c 0
 139 255 138 266 138 277 c 2
 135 320 l 1
 51 329 l 1
EndSplineSet
Validated: 1
EndChar

StartChar: currency
Encoding: 99 164 100
Width: 729
Flags: W
LayerCount: 2
Back
Fore
SplineSet
87 340 m 0
 87 409 111 473 154 524 c 1
 53 625 l 1
 87 659 l 1
 188 558 l 1
 236 599 296 625 364 625 c 0
 433 625 497 599 546 558 c 1
 647 659 l 1
 681 625 l 1
 579 523 l 1
 622 472 647 409 647 340 c 0
 647 273 623 212 583 163 c 1
 681 65 l 1
 647 31 l 1
 550 128 l 1
 499 84 435 58 364 58 c 0
 295 58 232 84 183 127 c 1
 87 31 l 1
 53 65 l 1
 150 162 l 1
 111 211 87 273 87 340 c 0
135 344 m 0
 135 215 238 107 366 107 c 0
 496 107 599 215 599 344 c 0
 599 475 496 583 366 583 c 0
 238 583 135 475 135 344 c 0
EndSplineSet
Validated: 1
EndChar

StartChar: yen
Encoding: 100 165 101
Width: 701
Flags: W
LayerCount: 2
Back
Fore
SplineSet
121 254 m 1
 123 304 l 1
 311 304 l 1
 273 369 l 1
 221 368 169 364 125 360 c 1
 127 410 l 1
 250 410 l 1
 166 555 l 1
 127 626 98 642 61 647 c 2
 40 650 l 1
 40 678 l 1
 48 677 57 675 68 674 c 0
 88 673 113 671 148 671 c 0
 183 671 223 673 271 678 c 1
 271 650 l 1
 237 647 223 647 198 644 c 1
 370 340 l 1
 378 340 l 1
 503 555 l 2
 519 584 527 605 527 618 c 0
 527 637 514 644 494 647 c 2
 473 650 l 1
 473 678 l 1
 480 677 487 675 496 674 c 0
 511 673 534 671 566 671 c 0
 597 671 637 673 685 678 c 1
 685 650 l 1
 651 647 637 647 612 644 c 1
 469 410 l 1
 593 410 l 1
 592 376 l 1
 579 375 565 375 550 375 c 0
 523 375 488 375 447 374 c 1
 404 304 l 1
 590 304 l 1
 588 270 l 1
 531 270 l 1
 393 267 l 1
 392 184 389 131 389 110 c 0
 389 46 403 36 437 31 c 2
 458 28 l 1
 458 0 l 1
 432 3 l 2
 415 4 390 7 358 7 c 0
 325 7 285 5 237 0 c 1
 237 28 l 1
 271 31 287 34 310 34 c 1
 315 265 l 1
 247 262 178 259 121 254 c 1
EndSplineSet
Validated: 1
EndChar

StartChar: brokenbar
Encoding: 101 166 102
Width: 219
Flags: W
LayerCount: 2
Back
Fore
SplineSet
86 419 m 1
 86 759 l 1
 134 759 l 1
 134 419 l 1
 86 419 l 1
86 -196 m 1
 86 144 l 1
 134 144 l 1
 134 -196 l 1
 86 -196 l 1
EndSplineSet
Validated: 1
EndChar

StartChar: section
Encoding: 102 167 103
Width: 459
Flags: W
LayerCount: 2
Back
Fore
SplineSet
137 572 m 1
 127 575 l 1
 100 534 86 483 86 420 c 0
 86 327 136 252 179 184 c 1
 245 83 313 9 313 -66 c 0
 313 -85 312 -98 307 -121 c 1
 317 -124 l 1
 348 -76 364 -22 364 45 c 0
 364 163 320 228 257 312 c 1
 203 382 136 443 136 541 c 0
 136 550 136 561 137 572 c 1
195 -201 m 0
 235 -201 264 -174 264 -126 c 0
 264 -61 227 -10 168 73 c 0
 88 187 40 258 40 389 c 0
 40 516 124 693 273 693 c 0
 340 693 371 667 371 632 c 0
 371 607 357 580 315 575 c 1
 307 631 275 652 239 652 c 0
 208 652 178 627 178 587 c 0
 178 539 200 503 258 431 c 0
 344 326 417 223 417 93 c 0
 417 -45 321 -242 158 -242 c 0
 90 -242 59 -216 59 -181 c 0
 59 -157 74 -127 119 -122 c 1
 127 -181 162 -201 195 -201 c 0
EndSplineSet
Validated: 1
EndChar

StartChar: dieresis
Encoding: 103 168 104
Width: 446
Flags: W
LayerCount: 2
Back
Fore
SplineSet
197 551 m 0
 170 551 150 568 150 603 c 0
 150 633 169 659 200 659 c 0
 225 659 246 642 246 607 c 0
 246 577 227 551 197 551 c 0
378 551 m 0
 351 551 331 568 331 603 c 0
 331 633 350 659 381 659 c 0
 405 659 427 642 427 607 c 0
 427 577 409 551 378 551 c 0
EndSplineSet
Validated: 1
Substitution2: "'aalt' Access All Alternates lookup 0 subtable" dieresis.case
EndChar

StartChar: copyright
Encoding: 104 169 105
Width: 803
Flags: W
LayerCount: 2
Back
Fore
SplineSet
79 340 m 0
 79 162 225 16 403 16 c 0
 581 16 727 162 727 340 c 0
 727 518 581 664 403 664 c 0
 225 664 79 518 79 340 c 0
45 340 m 0
 45 538 205 698 403 698 c 0
 601 698 761 538 761 340 c 0
 761 142 601 -18 403 -18 c 0
 205 -18 45 142 45 340 c 0
428 521 m 0
 336 521 255 463 255 354 c 0
 255 229 351 173 438 173 c 0
 474 173 495 177 537 187 c 1
 546 159 l 1
 504 141 450 133 417 133 c 0
 292 133 192 217 192 335 c 0
 192 466 297 553 429 553 c 0
 486 553 529 545 562 536 c 1
 554 440 l 1
 524 440 l 1
 524 444 l 2
 524 480 511 521 428 521 c 0
EndSplineSet
Validated: 1
EndChar

StartChar: ordfeminine
Encoding: 105 170 106
Width: 412
Flags: W
LayerCount: 2
Back
Fore
SplineSet
46 448 m 0
 46 545 196 562 254 566 c 1
 256 586 257 606 257 627 c 0
 257 677 243 710 190 710 c 0
 148 710 120 684 120 646 c 0
 120 638 121 629 124 620 c 1
 119 613 107 608 96 608 c 0
 80 608 63 618 63 642 c 0
 63 702 153 740 217 740 c 0
 278 740 316 713 316 648 c 0
 316 593 304 503 304 468 c 0
 304 437 312 420 329 420 c 0
 348 420 369 445 378 454 c 1
 393 441 l 1
 356 388 330 379 305 379 c 0
 265 379 251 411 248 447 c 1
 226 411 194 379 136 379 c 0
 75 379 46 413 46 448 c 0
156 417 m 0
 209 417 240 468 251 540 c 1
 197 537 110 525 110 463 c 0
 110 427 136 417 156 417 c 0
EndSplineSet
Validated: 1
EndChar

StartChar: guillemotleft
Encoding: 106 171 107
Width: 461
Flags: W
LayerCount: 2
Back
Fore
SplineSet
315 255 m 1
 405 82 l 1
 393 71 l 1
 213 255 l 1
 406 440 l 1
 417 427 l 1
 315 255 l 1
132 255 m 1
 280 57 l 1
 264 42 l 1
 24 255 l 1
 279 479 l 1
 295 464 l 1
 132 255 l 1
EndSplineSet
Validated: 1
EndChar

StartChar: logicalnot
Encoding: 107 172 108
Width: 578
Flags: W
LayerCount: 2
Back
Fore
SplineSet
74 340 m 1
 504 340 l 1
 504 168 l 1
 456 168 l 1
 456 292 l 1
 74 292 l 1
 74 340 l 1
EndSplineSet
Validated: 1
EndChar

StartChar: uni00AD
Encoding: 108 173 109
Width: 412
Flags: W
LayerCount: 2
Back
Fore
SplineSet
67 267 m 1
 343 267 l 1
 341 210 l 1
 65 210 l 1
 67 267 l 1
EndSplineSet
Validated: 1
EndChar

StartChar: registered
Encoding: 109 174 110
Width: 544
Flags: W
LayerCount: 2
Back
Fore
SplineSet
170 361 m 1
 197 363 l 1
 198 398 200 429 201 453 c 0
 205 514 205 549 205 564 c 0
 205 583 200 587 192 588 c 0
 188 588 183 589 179 589 c 1
 179 610 l 1
 182 609 186 609 190 609 c 2
 220 609 l 2
 236 609 252 612 279 612 c 0
 335 612 361 577 361 540 c 0
 361 497 339 473 303 457 c 1
 346 390 381 350 410 350 c 1
 410 334 l 1
 401 333 397 332 392 332 c 0
 332 335 291 404 266 449 c 1
 259 448 248 448 240 448 c 1
 239 419 238 395 238 386 c 0
 238 367 243 363 252 362 c 0
 255 362 263 361 264 361 c 1
 264 339 l 1
 251 341 l 2
 244 342 233 343 221 343 c 0
 210 343 194 342 170 339 c 1
 170 361 l 1
244 589 m 1
 240 468 l 1
 245 468 l 2
 290 468 321 489 321 533 c 0
 321 560 309 590 264 590 c 0
 257 590 252 590 244 589 c 1
48 468 m 0
 48 596 150 698 278 698 c 0
 404 698 508 596 508 468 c 0
 508 340 404 238 278 238 c 0
 150 238 48 340 48 468 c 0
75 467 m 0
 75 356 166 265 277 265 c 0
 387 265 479 356 479 467 c 0
 479 577 387 669 277 669 c 0
 166 669 75 577 75 467 c 0
EndSplineSet
Validated: 1
EndChar

StartChar: macron
Encoding: 110 175 111
Width: 577
Flags: W
LayerCount: 2
Back
Fore
SplineSet
131 633 m 1
 407 633 l 1
 405 576 l 1
 129 576 l 1
 131 633 l 1
EndSplineSet
Validated: 1
EndChar

StartChar: degree
Encoding: 111 176 112
Width: 286
Flags: W
LayerCount: 2
Back
Fore
SplineSet
85 594 m 0
 85 556 113 526 153 526 c 0
 191 526 221 556 221 594 c 0
 221 633 191 662 153 662 c 0
 113 662 85 633 85 594 c 0
47 594 m 0
 47 654 93 700 153 700 c 0
 213 700 259 654 259 594 c 0
 259 534 213 488 153 488 c 0
 93 488 47 534 47 594 c 0
EndSplineSet
Validated: 1
EndChar

StartChar: plusminus
Encoding: 112 177 113
Width: 586
Flags: W
LayerCount: 2
Back
Fore
SplineSet
62 124 m 1
 522 124 l 1
 522 76 l 1
 62 76 l 1
 62 124 l 1
62 381 m 1
 268 381 l 1
 268 587 l 1
 316 587 l 1
 316 381 l 1
 522 381 l 1
 522 333 l 1
 316 333 l 1
 316 173 l 1
 268 173 l 1
 268 333 l 1
 62 333 l 1
 62 381 l 1
EndSplineSet
Validated: 1
EndChar

StartChar: twosuperior
Encoding: 113 178 114
Width: 309
Flags: W
LayerCount: 2
Back
Fore
SplineSet
154 734 m 0
 122 734 108 711 108 678 c 0
 108 667 108 657 112 646 c 1
 105 641 97 638 90 638 c 0
 75 638 62 648 62 671 c 0
 62 710 125 759 179 759 c 0
 234 759 264 726 264 675 c 0
 264 620 235 571 111 447 c 1
 212 450 l 1
 234 453 241 457 255 495 c 1
 273 491 l 1
 265 460 258 427 254 403 c 1
 53 403 l 1
 48 416 l 1
 120 494 209 574 209 667 c 0
 209 708 189 734 154 734 c 0
EndSplineSet
Validated: 1
EndChar

StartChar: threesuperior
Encoding: 114 179 115
Width: 279
Flags: W
LayerCount: 2
Back
Fore
SplineSet
89 398 m 0
 65 398 38 409 38 430 c 0
 38 447 48 456 59 463 c 1
 76 444 97 431 121 431 c 0
 164 431 201 457 201 517 c 0
 201 556 180 581 137 581 c 0
 128 581 117 579 106 575 c 1
 99 596 l 1
 112 600 l 1
 148 614 182 639 182 685 c 0
 182 709 169 726 138 726 c 0
 111 726 91 712 71 695 c 1
 57 711 l 1
 78 735 112 759 159 759 c 0
 203 759 233 737 233 696 c 0
 233 652 194 623 171 610 c 1
 222 607 254 572 254 530 c 0
 254 446 157 398 89 398 c 0
EndSplineSet
Validated: 1
EndChar

StartChar: acute
Encoding: 115 180 116
Width: 324
Flags: W
LayerCount: 2
Back
Fore
SplineSet
243 553 m 1
 220 569 l 1
 343 754 l 1
 360 735 383 722 404 711 c 1
 243 553 l 1
EndSplineSet
Validated: 1
Substitution2: "'aalt' Access All Alternates lookup 0 subtable" acute.case
EndChar

StartChar: mu
Encoding: 116 181 117
AltUni2: 0003bc.ffffffff.0
Width: 570
Flags: W
LayerCount: 2
Back
Fore
SplineSet
107 60 m 1
 104 44 103 24 103 4 c 0
 103 -66 120 -149 174 -157 c 1
 167 -174 151 -197 119 -197 c 0
 92 -197 64 -178 64 -111 c 0
 64 -12 91 175 91 310 c 0
 91 351 89 380 89 428 c 1
 120 431 145 431 176 438 c 1
 157 352 146 243 146 169 c 0
 146 97 160 40 243 40 c 0
 288 40 346 78 377 107 c 1
 380 158 388 242 388 358 c 0
 388 381 388 404 387 428 c 1
 416 431 438 433 467 438 c 1
 455 394 443 249 443 143 c 0
 443 82 448 23 524 23 c 2
 532 23 l 1
 532 0 l 1
 456 -3 411 -3 372 -16 c 1
 377 12 384 58 387 85 c 1
 313 19 259 -10 206 -10 c 0
 159 -10 122 16 107 60 c 1
EndSplineSet
Validated: 1
EndChar

StartChar: paragraph
Encoding: 117 182 118
Width: 465
Flags: W
LayerCount: 2
Back
Fore
SplineSet
373 645 m 1
 341 -266 l 1
 294 -266 l 1
 325 629 l 1
 241 629 l 1
 209 -266 l 1
 162 -266 l 1
 186 427 l 1
 172 427 l 2
 72 427 37 488 37 548 c 0
 37 625 98 679 181 679 c 0
 210 679 256 675 325 675 c 0
 360 675 398 676 446 679 c 1
 446 651 l 1
 417 648 395 648 373 645 c 1
EndSplineSet
Validated: 1
EndChar

StartChar: periodcentered
Encoding: 118 183 119
Width: 202
Flags: W
LayerCount: 2
Back
Fore
SplineSet
102 293 m 0
 75 293 54 310 54 345 c 0
 54 374 73 401 105 401 c 0
 132 401 152 384 152 349 c 0
 152 319 133 293 102 293 c 0
EndSplineSet
Validated: 1
EndChar

StartChar: cedilla
Encoding: 119 184 120
Width: 312
Flags: W
LayerCount: 2
Back
Fore
SplineSet
179 -78 m 1
 190 -56 210 -9 215 9 c 1
 245 9 l 1
 230 -32 l 1
 283 -41 312 -73 312 -114 c 0
 312 -165 263 -215 195 -215 c 0
 163 -215 148 -196 148 -177 c 0
 148 -167 152 -158 159 -151 c 1
 169 -159 206 -177 233 -177 c 0
 256 -177 281 -161 281 -137 c 0
 281 -89 239 -78 179 -78 c 1
EndSplineSet
Validated: 1
EndChar

StartChar: onesuperior
Encoding: 120 185 121
Width: 239
Flags: W
LayerCount: 2
Back
Fore
SplineSet
107 426 m 1
 116 700 l 1
 96 687 l 1
 83 680 67 671 48 664 c 1
 40 681 l 1
 80 700 112 720 149 759 c 1
 169 759 l 1
 164 582 160 494 160 474 c 0
 160 433 170 427 193 424 c 2
 207 422 l 1
 207 403 l 1
 189 405 l 2
 178 406 162 407 139 407 c 0
 116 407 89 406 58 403 c 1
 58 422 l 1
 81 423 91 425 107 426 c 1
EndSplineSet
Validated: 1
EndChar

StartChar: ordmasculine
Encoding: 121 186 122
Width: 371
Flags: W
LayerCount: 2
Back
Fore
SplineSet
44 531 m 0
 44 621 104 740 214 740 c 0
 306 740 342 675 342 595 c 0
 342 494 277 379 173 379 c 0
 76 379 44 451 44 531 c 0
198 707 m 0
 130 707 102 618 102 552 c 0
 102 483 128 414 189 414 c 0
 259 414 285 497 285 565 c 0
 285 627 259 707 198 707 c 0
EndSplineSet
Validated: 1
EndChar

StartChar: guillemotright
Encoding: 122 187 123
Width: 461
Flags: W
LayerCount: 2
Back
Fore
SplineSet
327 255 m 1
 180 464 l 1
 196 479 l 1
 435 255 l 1
 181 42 l 1
 165 57 l 1
 327 255 l 1
144 255 m 1
 54 427 l 1
 67 440 l 1
 246 255 l 1
 54 71 l 1
 42 82 l 1
 144 255 l 1
EndSplineSet
Validated: 1
EndChar

StartChar: onequarter
Encoding: 123 188 124
Width: 597
Flags: W
LayerCount: 2
Back
Fore
SplineSet
113 326 m 1
 122 600 l 1
 102 587 l 1
 89 580 73 571 54 564 c 1
 46 581 l 1
 86 600 118 620 155 659 c 1
 175 659 l 1
 170 482 166 394 166 374 c 0
 166 333 176 327 199 324 c 2
 213 322 l 1
 213 303 l 1
 195 305 l 2
 184 306 168 307 145 307 c 0
 122 307 95 306 64 303 c 1
 64 322 l 1
 87 323 97 325 113 326 c 1
76 -8 m 1
 48 15 l 1
 538 691 l 1
 566 672 l 1
 76 -8 l 1
443 23 m 1
 446 113 l 1
 307 113 l 1
 308 131 l 1
 487 356 l 1
 505 348 l 1
 502 243 501 184 498 143 c 1
 538 146 l 2
 543 146 548 146 553 147 c 1
 540 113 l 1
 497 113 l 1
 497 76 496 75 496 73 c 0
 496 25 509 24 528 21 c 2
 543 19 l 1
 543 0 l 1
 523 3 501 5 473 5 c 0
 450 5 425 3 394 0 c 1
 394 19 l 1
 417 20 426 22 443 23 c 1
452 274 m 1
 344 138 l 1
 377 138 414 139 447 140 c 1
 452 274 l 1
EndSplineSet
Validated: 1
Ligature2: "'frac' Diagonal Fractions lookup 1 subtable" one fraction four
Ligature2: "'frac' Diagonal Fractions lookup 1 subtable" one slash four
EndChar

StartChar: onehalf
Encoding: 124 189 125
Width: 629
Flags: W
LayerCount: 2
Back
Fore
SplineSet
113 326 m 1
 122 600 l 1
 102 587 l 1
 89 580 73 571 54 564 c 1
 46 581 l 1
 86 600 118 620 155 659 c 1
 175 659 l 1
 170 482 166 394 166 374 c 0
 166 333 176 327 199 324 c 2
 213 322 l 1
 213 303 l 1
 195 305 l 2
 184 306 168 307 145 307 c 0
 122 307 95 306 64 303 c 1
 64 322 l 1
 87 323 97 325 113 326 c 1
76 -8 m 1
 48 15 l 1
 538 691 l 1
 566 672 l 1
 76 -8 l 1
465 329 m 0
 433 329 419 306 419 273 c 0
 419 262 419 252 423 241 c 1
 416 236 408 233 401 233 c 0
 386 233 373 243 373 266 c 0
 373 305 436 354 490 354 c 0
 545 354 575 321 575 270 c 0
 575 215 546 166 422 42 c 1
 523 45 l 1
 545 48 552 52 566 90 c 1
 584 86 l 1
 576 55 569 22 565 -2 c 1
 364 -2 l 1
 359 11 l 1
 431 89 520 169 520 262 c 0
 520 303 500 329 465 329 c 0
EndSplineSet
Validated: 1
Ligature2: "'frac' Diagonal Fractions lookup 1 subtable" one fraction two
Ligature2: "'frac' Diagonal Fractions lookup 1 subtable" one slash two
EndChar

StartChar: threequarters
Encoding: 125 190 126
Width: 610
Flags: W
LayerCount: 2
Back
Fore
SplineSet
93 298 m 0
 69 298 42 309 42 330 c 0
 42 347 52 356 63 363 c 1
 80 344 101 331 125 331 c 0
 168 331 205 357 205 417 c 0
 205 456 184 481 141 481 c 0
 132 481 121 479 110 475 c 1
 103 496 l 1
 116 500 l 1
 152 514 186 539 186 585 c 0
 186 609 173 626 142 626 c 0
 115 626 95 612 75 595 c 1
 61 611 l 1
 82 635 116 659 163 659 c 0
 207 659 237 637 237 596 c 0
 237 552 198 523 175 510 c 1
 226 507 258 472 258 430 c 0
 258 346 161 298 93 298 c 0
90 -8 m 1
 62 15 l 1
 552 691 l 1
 580 672 l 1
 90 -8 l 1
456 23 m 1
 459 113 l 1
 320 113 l 1
 321 131 l 1
 500 356 l 1
 518 348 l 1
 515 243 514 184 511 143 c 1
 551 146 l 2
 556 146 561 146 566 147 c 1
 553 113 l 1
 510 113 l 1
 510 76 509 75 509 73 c 0
 509 25 522 24 541 21 c 2
 556 19 l 1
 556 0 l 1
 536 3 514 5 486 5 c 0
 463 5 438 3 407 0 c 1
 407 19 l 1
 430 20 439 22 456 23 c 1
465 274 m 1
 357 138 l 1
 390 138 427 139 460 140 c 1
 465 274 l 1
EndSplineSet
Validated: 1
Ligature2: "'frac' Diagonal Fractions lookup 1 subtable" three fraction four
Ligature2: "'frac' Diagonal Fractions lookup 1 subtable" three slash four
EndChar

StartChar: questiondown
Encoding: 126 191 127
Width: 362
Flags: W
LayerCount: 2
Back
Fore
SplineSet
201 438 m 0
 229 438 249 422 249 386 c 0
 249 356 230 330 198 330 c 0
 171 330 151 347 151 382 c 0
 151 412 169 438 201 438 c 0
246 -108 m 1
 247 -108 248 -108 249 -107 c 1
 256 -107 l 2
 274 -107 310 -113 310 -153 c 0
 310 -220 237 -261 168 -261 c 0
 75 -261 23 -195 23 -120 c 0
 23 35 229 54 229 141 c 0
 229 172 207 184 175 184 c 0
 162 184 144 182 127 171 c 1
 122 177 l 1
 127 209 147 244 186 244 c 0
 227 244 256 213 256 154 c 0
 256 74 204 26 129 -38 c 0
 95 -67 64 -95 64 -145 c 0
 64 -188 89 -231 153 -231 c 0
 216 -231 248 -182 248 -129 c 0
 248 -122 247 -115 246 -108 c 1
EndSplineSet
Validated: 1
EndChar

StartChar: Agrave
Encoding: 127 192 128
Width: 618
Flags: W
LayerCount: 2
Back
Fore
SplineSet
309 571 m 1
 295 571 l 1
 192 271 l 1
 391 271 l 1
 309 571 l 1
299 693 m 1
 338 704 l 1
 503 170 l 2
 527 90 553 40 596 32 c 1
 623 28 l 1
 622 0 l 1
 589 4 549 6 509 6 c 0
 466 6 424 4 387 0 c 1
 388 28 l 1
 457 34 l 1
 401 237 l 1
 382 237 l 2
 347 237 263 235 176 227 c 1
 149 152 l 2
 137 120 127 91 127 71 c 0
 127 50 137 36 164 32 c 2
 193 28 l 1
 192 0 l 1
 157 4 126 7 91 7 c 0
 55 7 20 4 -27 0 c 1
 -26 28 l 1
 1 31 l 2
 16 32 33 34 42 34 c 1
 122 202 227 473 299 693 c 1
352 779 m 1
 333 755 l 1
 135 859 l 1
 151 879 165 900 177 921 c 1
 352 779 l 1
EndSplineSet
Validated: 1
Position2: "'cpsp' Capital Spacing lookup 0 subtable" dx=5 dy=0 dh=10 dv=0
EndChar

StartChar: Aacute
Encoding: 128 193 129
Width: 618
Flags: W
LayerCount: 2
Back
Fore
SplineSet
309 571 m 1
 295 571 l 1
 192 271 l 1
 391 271 l 1
 309 571 l 1
299 693 m 1
 338 704 l 1
 503 170 l 2
 527 90 553 40 596 32 c 1
 623 28 l 1
 622 0 l 1
 589 4 549 6 509 6 c 0
 466 6 424 4 387 0 c 1
 388 28 l 1
 457 34 l 1
 401 237 l 1
 382 237 l 2
 347 237 263 235 176 227 c 1
 149 152 l 2
 137 120 127 91 127 71 c 0
 127 50 137 36 164 32 c 2
 193 28 l 1
 192 0 l 1
 157 4 126 7 91 7 c 0
 55 7 20 4 -27 0 c 1
 -26 28 l 1
 1 31 l 2
 16 32 33 34 42 34 c 1
 122 202 227 473 299 693 c 1
314 755 m 1
 296 777 l 1
 463 924 l 1
 476 901 492 881 511 866 c 1
 314 755 l 1
EndSplineSet
Validated: 1
Position2: "'cpsp' Capital Spacing lookup 0 subtable" dx=5 dy=0 dh=10 dv=0
EndChar

StartChar: Acircumflex
Encoding: 129 194 130
Width: 618
Flags: W
LayerCount: 2
Back
Fore
SplineSet
309 571 m 1
 295 571 l 1
 192 271 l 1
 391 271 l 1
 309 571 l 1
299 693 m 1
 338 704 l 1
 503 170 l 2
 527 90 553 40 596 32 c 1
 623 28 l 1
 622 0 l 1
 589 4 549 6 509 6 c 0
 466 6 424 4 387 0 c 1
 388 28 l 1
 457 34 l 1
 401 237 l 1
 382 237 l 2
 347 237 263 235 176 227 c 1
 149 152 l 2
 137 120 127 91 127 71 c 0
 127 50 137 36 164 32 c 2
 193 28 l 1
 192 0 l 1
 157 4 126 7 91 7 c 0
 55 7 20 4 -27 0 c 1
 -26 28 l 1
 1 31 l 2
 16 32 33 34 42 34 c 1
 122 202 227 473 299 693 c 1
326 842 m 1
 177 755 l 1
 158 775 l 1
 329 924 l 1
 489 775 l 1
 468 755 l 1
 326 842 l 1
EndSplineSet
Validated: 1
Position2: "'cpsp' Capital Spacing lookup 0 subtable" dx=5 dy=0 dh=10 dv=0
EndChar

StartChar: Atilde
Encoding: 130 195 131
Width: 618
Flags: W
LayerCount: 2
Back
Fore
SplineSet
309 571 m 1
 295 571 l 1
 192 271 l 1
 391 271 l 1
 309 571 l 1
299 693 m 1
 338 704 l 1
 503 170 l 2
 527 90 553 40 596 32 c 1
 623 28 l 1
 622 0 l 1
 589 4 549 6 509 6 c 0
 466 6 424 4 387 0 c 1
 388 28 l 1
 457 34 l 1
 401 237 l 1
 382 237 l 2
 347 237 263 235 176 227 c 1
 149 152 l 2
 137 120 127 91 127 71 c 0
 127 50 137 36 164 32 c 2
 193 28 l 1
 192 0 l 1
 157 4 126 7 91 7 c 0
 55 7 20 4 -27 0 c 1
 -26 28 l 1
 1 31 l 2
 16 32 33 34 42 34 c 1
 122 202 227 473 299 693 c 1
490 888 m 1
 517 878 l 1
 503 826 471 755 399 755 c 0
 367 755 339 775 307 800 c 0
 272 827 262 840 241 840 c 0
 208 840 188 784 177 755 c 1
 150 765 l 1
 163 816 196 888 268 888 c 0
 300 888 328 868 360 843 c 0
 395 816 405 803 426 803 c 0
 460 803 479 859 490 888 c 1
EndSplineSet
Validated: 1
Position2: "'cpsp' Capital Spacing lookup 0 subtable" dx=5 dy=0 dh=10 dv=0
EndChar

StartChar: Adieresis
Encoding: 131 196 132
Width: 618
Flags: W
LayerCount: 2
Back
Fore
SplineSet
309 571 m 1
 295 571 l 1
 192 271 l 1
 391 271 l 1
 309 571 l 1
299 693 m 1
 338 704 l 1
 503 170 l 2
 527 90 553 40 596 32 c 1
 623 28 l 1
 622 0 l 1
 589 4 549 6 509 6 c 0
 466 6 424 4 387 0 c 1
 388 28 l 1
 457 34 l 1
 401 237 l 1
 382 237 l 2
 347 237 263 235 176 227 c 1
 149 152 l 2
 137 120 127 91 127 71 c 0
 127 50 137 36 164 32 c 2
 193 28 l 1
 192 0 l 1
 157 4 126 7 91 7 c 0
 55 7 20 4 -27 0 c 1
 -26 28 l 1
 1 31 l 2
 16 32 33 34 42 34 c 1
 122 202 227 473 299 693 c 1
369 811 m 0
 369 846 393 861 417 861 c 0
 440 861 465 846 465 811 c 0
 465 778 444 755 417 755 c 0
 389 755 369 778 369 811 c 0
189 811 m 0
 189 846 213 861 237 861 c 0
 262 861 285 846 285 811 c 0
 285 778 265 755 237 755 c 0
 210 755 189 778 189 811 c 0
EndSplineSet
Validated: 1
Position2: "'cpsp' Capital Spacing lookup 0 subtable" dx=5 dy=0 dh=10 dv=0
EndChar

StartChar: Aring
Encoding: 132 197 133
Width: 618
Flags: W
LayerCount: 2
Back
Fore
SplineSet
309 571 m 1
 295 571 l 1
 192 271 l 1
 391 271 l 1
 309 571 l 1
299 693 m 1
 338 704 l 1
 503 170 l 2
 527 90 553 40 596 32 c 1
 623 28 l 1
 622 0 l 1
 589 4 549 6 509 6 c 0
 466 6 424 4 387 0 c 1
 388 28 l 1
 457 34 l 1
 401 237 l 1
 382 237 l 2
 347 237 263 235 176 227 c 1
 149 152 l 2
 137 120 127 91 127 71 c 0
 127 50 137 36 164 32 c 2
 193 28 l 1
 192 0 l 1
 157 4 126 7 91 7 c 0
 55 7 20 4 -27 0 c 1
 -26 28 l 1
 1 31 l 2
 16 32 33 34 42 34 c 1
 122 202 227 473 299 693 c 1
322 913 m 0
 286 913 264 882 264 848 c 0
 264 819 283 784 323 784 c 0
 359 784 381 808 381 848 c 0
 381 875 362 913 322 913 c 0
223 841 m 0
 223 892 266 941 333 941 c 0
 395 941 424 902 424 859 c 0
 424 800 373 755 315 755 c 0
 247 755 223 798 223 841 c 0
EndSplineSet
Validated: 1
Position2: "'cpsp' Capital Spacing lookup 0 subtable" dx=5 dy=0 dh=10 dv=0
EndChar

StartChar: AE
Encoding: 133 198 134
Width: 835
Flags: W
LayerCount: 2
Back
Fore
SplineSet
421 34 m 1
 427 238 l 1
 398 238 296 235 196 227 c 1
 153 153 l 2
 134 120 116 88 116 65 c 0
 116 48 125 37 148 33 c 2
 177 29 l 1
 176 1 l 1
 140 5 111 8 75 8 c 0
 40 8 4 5 -43 1 c 1
 -42 29 l 1
 -15 32 l 2
 0 33 17 35 26 35 c 1
 328 528 l 2
 348 560 365 593 365 616 c 0
 365 633 356 645 333 648 c 2
 304 652 l 1
 305 680 l 1
 374 672 489 670 540 670 c 0
 593 670 729 675 794 679 c 1
 779 514 l 1
 749 514 l 1
 752 540 750 543 750 545 c 0
 750 589 733 623 641 631 c 1
 521 639 l 1
 516 586 513 529 512 482 c 2
 508 372 l 1
 716 383 l 1
 711 321 l 1
 634 332 545 335 507 338 c 1
 503 231 l 2
 500 175 499 117 499 106 c 0
 499 38 537 30 609 30 c 0
 713 30 753 51 774 149 c 1
 805 149 l 1
 800 115 784 35 760 -10 c 1
 622 -5 503 6 464 6 c 0
 431 6 395 5 347 0 c 1
 348 28 l 1
 382 31 396 34 421 34 c 1
432 639 m 1
 219 272 l 1
 428 272 l 1
 440 639 l 1
 432 639 l 1
EndSplineSet
Validated: 1
Position2: "'cpsp' Capital Spacing lookup 0 subtable" dx=5 dy=0 dh=10 dv=0
EndChar

StartChar: Ccedilla
Encoding: 134 199 135
Width: 689
Flags: W
LayerCount: 2
Back
Fore
SplineSet
312 -78 m 1
 320 -61 334 -29 342 -7 c 1
 169 25 45 152 45 325 c 0
 45 540 209 693 442 693 c 0
 541 693 611 680 667 665 c 1
 653 502 l 1
 623 502 l 1
 623 510 l 2
 623 577 600 657 448 657 c 0
 285 657 136 549 136 352 c 0
 136 132 310 27 459 27 c 0
 520 27 559 34 631 58 c 1
 640 30 l 1
 570 -5 479 -14 424 -14 c 0
 405 -14 387 -12 371 -11 c 1
 363 -32 l 1
 415 -41 445 -73 445 -114 c 0
 445 -165 395 -215 328 -215 c 0
 296 -215 281 -196 281 -177 c 0
 281 -167 285 -158 292 -151 c 1
 303 -159 338 -177 366 -177 c 0
 389 -177 414 -161 414 -137 c 0
 414 -89 371 -78 312 -78 c 1
EndSplineSet
Validated: 1
Position2: "'cpsp' Capital Spacing lookup 0 subtable" dx=5 dy=0 dh=10 dv=0
EndChar

StartChar: Egrave
Encoding: 135 200 136
Width: 518
Flags: MW
VStem: 104 78<34 111.5>
LayerCount: 2
Back
Fore
SplineSet
399 383 m 1
 394 321 l 1
 316 332 229 335 190 338 c 1
 186 231 l 2
 183 175 182 117 182 106 c 0
 182 38 220 30 292 30 c 0
 396 30 436 51 457 149 c 1
 488 149 l 1
 483 115 467 35 443 -10 c 1
 305 -5 186 6 147 6 c 0
 114 6 78 5 30 0 c 1
 31 28 l 1
 64 31 81 34 104 34 c 1
 113 293 l 1
 116 424 122 560 122 575 c 0
 122 634 109 643 73 648 c 2
 53 651 l 1
 53 679 l 1
 62 678 74 676 88 675 c 0
 112 674 148 672 200 672 c 2
 318 672 l 2
 370 672 415 674 477 679 c 1
 462 514 l 1
 432 514 l 1
 435 540 433 543 433 545 c 0
 433 589 416 623 324 631 c 1
 204 639 l 1
 199 586 196 529 195 482 c 2
 191 372 l 1
 399 383 l 1
374 779 m 1
 355 755 l 1
 157 859 l 1
 173 879 187 900 199 921 c 1
 374 779 l 1
EndSplineSet
Validated: 1
Position2: "'cpsp' Capital Spacing lookup 0 subtable" dx=5 dy=0 dh=10 dv=0
EndChar

StartChar: Eacute
Encoding: 136 201 137
Width: 518
Flags: MW
VStem: 104 78<34 111.5>
LayerCount: 2
Back
Fore
SplineSet
399 383 m 1
 394 321 l 1
 316 332 229 335 190 338 c 1
 186 231 l 2
 183 175 182 117 182 106 c 0
 182 38 220 30 292 30 c 0
 396 30 436 51 457 149 c 1
 488 149 l 1
 483 115 467 35 443 -10 c 1
 305 -5 186 6 147 6 c 0
 114 6 78 5 30 0 c 1
 31 28 l 1
 64 31 81 34 104 34 c 1
 113 293 l 1
 116 424 122 560 122 575 c 0
 122 634 109 643 73 648 c 2
 53 651 l 1
 53 679 l 1
 62 678 74 676 88 675 c 0
 112 674 148 672 200 672 c 2
 318 672 l 2
 370 672 415 674 477 679 c 1
 462 514 l 1
 432 514 l 1
 435 540 433 543 433 545 c 0
 433 589 416 623 324 631 c 1
 204 639 l 1
 199 586 196 529 195 482 c 2
 191 372 l 1
 399 383 l 1
210 755 m 1
 192 777 l 1
 359 924 l 1
 372 901 388 881 407 866 c 1
 210 755 l 1
EndSplineSet
Validated: 1
Position2: "'cpsp' Capital Spacing lookup 0 subtable" dx=5 dy=0 dh=10 dv=0
EndChar

StartChar: Ecircumflex
Encoding: 137 202 138
Width: 518
Flags: MW
VStem: 104 78<34 111.5>
LayerCount: 2
Back
Fore
SplineSet
399 383 m 1
 394 321 l 1
 316 332 229 335 190 338 c 1
 186 231 l 2
 183 175 182 117 182 106 c 0
 182 38 220 30 292 30 c 0
 396 30 436 51 457 149 c 1
 488 149 l 1
 483 115 467 35 443 -10 c 1
 305 -5 186 6 147 6 c 0
 114 6 78 5 30 0 c 1
 31 28 l 1
 64 31 81 34 104 34 c 1
 113 293 l 1
 116 424 122 560 122 575 c 0
 122 634 109 643 73 648 c 2
 53 651 l 1
 53 679 l 1
 62 678 74 676 88 675 c 0
 112 674 148 672 200 672 c 2
 318 672 l 2
 370 672 415 674 477 679 c 1
 462 514 l 1
 432 514 l 1
 435 540 433 543 433 545 c 0
 433 589 416 623 324 631 c 1
 204 639 l 1
 199 586 196 529 195 482 c 2
 191 372 l 1
 399 383 l 1
293 842 m 1
 144 755 l 1
 125 775 l 1
 296 924 l 1
 456 775 l 1
 435 755 l 1
 293 842 l 1
EndSplineSet
Validated: 1
Position2: "'cpsp' Capital Spacing lookup 0 subtable" dx=5 dy=0 dh=10 dv=0
EndChar

StartChar: Edieresis
Encoding: 138 203 139
Width: 518
Flags: MW
VStem: 104 78<34 111.5>
LayerCount: 2
Back
Fore
SplineSet
399 383 m 1
 394 321 l 1
 316 332 229 335 190 338 c 1
 186 231 l 2
 183 175 182 117 182 106 c 0
 182 38 220 30 292 30 c 0
 396 30 436 51 457 149 c 1
 488 149 l 1
 483 115 467 35 443 -10 c 1
 305 -5 186 6 147 6 c 0
 114 6 78 5 30 0 c 1
 31 28 l 1
 64 31 81 34 104 34 c 1
 113 293 l 1
 116 424 122 560 122 575 c 0
 122 634 109 643 73 648 c 2
 53 651 l 1
 53 679 l 1
 62 678 74 676 88 675 c 0
 112 674 148 672 200 672 c 2
 318 672 l 2
 370 672 415 674 477 679 c 1
 462 514 l 1
 432 514 l 1
 435 540 433 543 433 545 c 0
 433 589 416 623 324 631 c 1
 204 639 l 1
 199 586 196 529 195 482 c 2
 191 372 l 1
 399 383 l 1
325 811 m 0
 325 846 349 861 373 861 c 0
 396 861 421 846 421 811 c 0
 421 778 400 755 373 755 c 0
 345 755 325 778 325 811 c 0
145 811 m 0
 145 846 169 861 193 861 c 0
 218 861 241 846 241 811 c 0
 241 778 221 755 193 755 c 0
 166 755 145 778 145 811 c 0
EndSplineSet
Validated: 1
Position2: "'cpsp' Capital Spacing lookup 0 subtable" dx=5 dy=0 dh=10 dv=0
EndChar

StartChar: Igrave
Encoding: 139 204 140
Width: 300
Flags: MW
VStem: 103 78
LayerCount: 2
Back
Fore
SplineSet
30 0 m 1
 30 28 l 1
 63 31 80 34 103 34 c 1
 111 294 122 549 122 577 c 0
 122 635 106 643 73 648 c 2
 52 651 l 1
 52 679 l 1
 59 678 67 676 78 675 c 0
 94 674 119 672 152 672 c 0
 185 672 225 674 273 679 c 1
 273 651 l 1
 239 648 225 648 200 645 c 1
 192 385 181 130 181 102 c 0
 181 46 198 34 230 31 c 1
 251 28 l 1
 251 0 l 1
 225 3 l 2
 208 4 183 7 151 7 c 0
 118 7 78 5 30 0 c 1
190 779 m 1
 171 755 l 1
 -27 859 l 1
 -11 879 3 900 15 921 c 1
 190 779 l 1
EndSplineSet
Validated: 1
Position2: "'cpsp' Capital Spacing lookup 0 subtable" dx=5 dy=0 dh=10 dv=0
EndChar

StartChar: Iacute
Encoding: 140 205 141
Width: 300
Flags: MW
VStem: 103 78
LayerCount: 2
Back
Fore
SplineSet
30 0 m 1
 30 28 l 1
 63 31 80 34 103 34 c 1
 111 294 122 549 122 577 c 0
 122 635 106 643 73 648 c 2
 52 651 l 1
 52 679 l 1
 59 678 67 676 78 675 c 0
 94 674 119 672 152 672 c 0
 185 672 225 674 273 679 c 1
 273 651 l 1
 239 648 225 648 200 645 c 1
 192 385 181 130 181 102 c 0
 181 46 198 34 230 31 c 1
 251 28 l 1
 251 0 l 1
 225 3 l 2
 208 4 183 7 151 7 c 0
 118 7 78 5 30 0 c 1
141 755 m 1
 123 777 l 1
 290 924 l 1
 303 901 319 881 338 866 c 1
 141 755 l 1
EndSplineSet
Validated: 1
Position2: "'cpsp' Capital Spacing lookup 0 subtable" dx=5 dy=0 dh=10 dv=0
EndChar

StartChar: Icircumflex
Encoding: 141 206 142
Width: 300
Flags: MW
VStem: 103 78
LayerCount: 2
Back
Fore
SplineSet
30 0 m 1
 30 28 l 1
 63 31 80 34 103 34 c 1
 111 294 122 549 122 577 c 0
 122 635 106 643 73 648 c 2
 52 651 l 1
 52 679 l 1
 59 678 67 676 78 675 c 0
 94 674 119 672 152 672 c 0
 185 672 225 674 273 679 c 1
 273 651 l 1
 239 648 225 648 200 645 c 1
 192 385 181 130 181 102 c 0
 181 46 198 34 230 31 c 1
 251 28 l 1
 251 0 l 1
 225 3 l 2
 208 4 183 7 151 7 c 0
 118 7 78 5 30 0 c 1
172 842 m 1
 23 755 l 1
 4 775 l 1
 175 924 l 1
 335 775 l 1
 314 755 l 1
 172 842 l 1
EndSplineSet
Validated: 1
Position2: "'cpsp' Capital Spacing lookup 0 subtable" dx=5 dy=0 dh=10 dv=0
EndChar

StartChar: Idieresis
Encoding: 142 207 143
Width: 300
Flags: MW
VStem: 103 78
LayerCount: 2
Back
Fore
SplineSet
30 0 m 1
 30 28 l 1
 63 31 80 34 103 34 c 1
 111 294 122 549 122 577 c 0
 122 635 106 643 73 648 c 2
 52 651 l 1
 52 679 l 1
 59 678 67 676 78 675 c 0
 94 674 119 672 152 672 c 0
 185 672 225 674 273 679 c 1
 273 651 l 1
 239 648 225 648 200 645 c 1
 192 385 181 130 181 102 c 0
 181 46 198 34 230 31 c 1
 251 28 l 1
 251 0 l 1
 225 3 l 2
 208 4 183 7 151 7 c 0
 118 7 78 5 30 0 c 1
214 811 m 0
 214 846 238 861 262 861 c 0
 285 861 310 846 310 811 c 0
 310 778 289 755 262 755 c 0
 234 755 214 778 214 811 c 0
34 811 m 0
 34 846 58 861 82 861 c 0
 107 861 130 846 130 811 c 0
 130 778 110 755 82 755 c 0
 55 755 34 778 34 811 c 0
EndSplineSet
Validated: 1
Position2: "'cpsp' Capital Spacing lookup 0 subtable" dx=5 dy=0 dh=10 dv=0
EndChar

StartChar: Eth
Encoding: 143 208 144
Width: 801
Flags: W
LayerCount: 2
Back
Fore
SplineSet
4 322 m 1
 6 372 l 1
 151 372 l 1
 152 378 152 384 152 390 c 0
 156 484 158 562 158 574 c 0
 158 635 143 642 110 648 c 1
 89 651 l 1
 89 679 l 1
 120 675 l 1
 139 674 165 672 193 672 c 0
 264 672 337 684 422 684 c 0
 622 684 758 547 758 343 c 0
 758 203 674 -6 383 -6 c 0
 322 -6 260 6 193 6 c 0
 161 6 120 5 67 0 c 1
 67 28 l 1
 101 31 117 34 140 34 c 1
 149 293 l 2
 149 306 149 319 150 332 c 1
 78 328 l 1
 4 322 l 1
353 648 m 0
 309 648 261 646 237 643 c 1
 228 385 l 1
 228 372 l 1
 406 372 l 1
 405 338 l 1
 370 338 305 338 231 334 c 1
 227 334 l 1
 225 288 l 2
 221 195 219 117 219 108 c 0
 219 45 239 26 350 26 c 0
 450 26 667 60 667 332 c 0
 667 476 607 648 353 648 c 0
EndSplineSet
Validated: 1
Position2: "'cpsp' Capital Spacing lookup 0 subtable" dx=5 dy=0 dh=10 dv=0
EndChar

StartChar: Ntilde
Encoding: 144 209 145
Width: 789
Flags: W
LayerCount: 2
Back
Fore
SplineSet
25 0 m 1
 25 28 l 1
 59 31 75 34 98 34 c 1
 111 411 l 2
 112 458 113 498 113 537 c 0
 113 598 110 647 109 679 c 1
 149 694 l 1
 628 119 l 1
 632 289 642 550 642 577 c 0
 642 635 626 643 594 648 c 2
 573 651 l 1
 573 679 l 1
 578 678 584 676 592 675 c 0
 605 674 625 672 654 672 c 0
 683 672 720 674 768 679 c 1
 768 651 l 1
 734 648 720 648 695 645 c 1
 684 331 l 1
 684 296 680 207 680 161 c 0
 680 103 680 60 683 0 c 1
 641 -14 l 1
 162 554 l 1
 158 388 151 129 151 102 c 0
 151 46 166 37 199 31 c 1
 220 28 l 1
 220 0 l 1
 201 3 l 1
 188 4 168 7 139 7 c 0
 110 7 74 5 25 0 c 1
578 888 m 1
 605 878 l 1
 591 826 559 755 487 755 c 0
 455 755 427 775 395 800 c 0
 360 827 350 840 329 840 c 0
 296 840 276 784 265 755 c 1
 238 765 l 1
 251 816 284 888 356 888 c 0
 388 888 416 868 448 843 c 0
 483 816 493 803 514 803 c 0
 548 803 567 859 578 888 c 1
EndSplineSet
Validated: 1
Position2: "'cpsp' Capital Spacing lookup 0 subtable" dx=5 dy=0 dh=10 dv=0
EndChar

StartChar: Ograve
Encoding: 145 210 146
Width: 764
Flags: MW
VStem: 45 90<263 439> 630 92<246 416>
LayerCount: 2
Back
Fore
SplineSet
135 347 m 0
 135 179 228 22 392 22 c 0
 549 22 630 155 630 322 c 0
 630 510 529 657 387 657 c 0
 277 657 135 589 135 347 c 0
45 337 m 0
 45 541 192 693 409 693 c 0
 608 693 722 521 722 355 c 0
 722 137 571 -14 391 -14 c 0
 159 -14 45 163 45 337 c 0
462 779 m 1
 443 755 l 1
 245 859 l 1
 261 879 275 900 287 921 c 1
 462 779 l 1
EndSplineSet
Validated: 1
Position2: "'cpsp' Capital Spacing lookup 0 subtable" dx=5 dy=0 dh=10 dv=0
EndChar

StartChar: Oacute
Encoding: 146 211 147
Width: 764
Flags: MW
VStem: 45 90<263 439> 630 92<246 416>
LayerCount: 2
Back
Fore
SplineSet
135 347 m 0
 135 179 228 22 392 22 c 0
 549 22 630 155 630 322 c 0
 630 510 529 657 387 657 c 0
 277 657 135 589 135 347 c 0
45 337 m 0
 45 541 192 693 409 693 c 0
 608 693 722 521 722 355 c 0
 722 137 571 -14 391 -14 c 0
 159 -14 45 163 45 337 c 0
354 755 m 1
 336 777 l 1
 503 924 l 1
 516 901 532 881 551 866 c 1
 354 755 l 1
EndSplineSet
Validated: 1
Position2: "'cpsp' Capital Spacing lookup 0 subtable" dx=5 dy=0 dh=10 dv=0
EndChar

StartChar: Ocircumflex
Encoding: 147 212 148
Width: 764
Flags: MW
VStem: 45 90<263 439> 630 92<246 416>
LayerCount: 2
Back
Fore
SplineSet
135 347 m 0
 135 179 228 22 392 22 c 0
 549 22 630 155 630 322 c 0
 630 510 529 657 387 657 c 0
 277 657 135 589 135 347 c 0
45 337 m 0
 45 541 192 693 409 693 c 0
 608 693 722 521 722 355 c 0
 722 137 571 -14 391 -14 c 0
 159 -14 45 163 45 337 c 0
406 842 m 1
 257 755 l 1
 238 775 l 1
 409 924 l 1
 569 775 l 1
 548 755 l 1
 406 842 l 1
EndSplineSet
Validated: 1
Position2: "'cpsp' Capital Spacing lookup 0 subtable" dx=5 dy=0 dh=10 dv=0
EndChar

StartChar: Otilde
Encoding: 148 213 149
Width: 764
Flags: MW
VStem: 45 90<263 439> 630 92<246 416>
LayerCount: 2
Back
Fore
SplineSet
135 347 m 0
 135 179 228 22 392 22 c 0
 549 22 630 155 630 322 c 0
 630 510 529 657 387 657 c 0
 277 657 135 589 135 347 c 0
45 337 m 0
 45 541 192 693 409 693 c 0
 608 693 722 521 722 355 c 0
 722 137 571 -14 391 -14 c 0
 159 -14 45 163 45 337 c 0
561 888 m 1
 588 878 l 1
 574 826 542 755 470 755 c 0
 438 755 410 775 378 800 c 0
 343 827 333 840 312 840 c 0
 279 840 259 784 248 755 c 1
 221 765 l 1
 234 816 267 888 339 888 c 0
 371 888 399 868 431 843 c 0
 466 816 476 803 497 803 c 0
 531 803 550 859 561 888 c 1
EndSplineSet
Validated: 1
Position2: "'cpsp' Capital Spacing lookup 0 subtable" dx=5 dy=0 dh=10 dv=0
EndChar

StartChar: Odieresis
Encoding: 149 214 150
Width: 764
Flags: MW
VStem: 45 90<263 439> 630 92<246 416>
LayerCount: 2
Back
Fore
SplineSet
135 347 m 0
 135 179 228 22 392 22 c 0
 549 22 630 155 630 322 c 0
 630 510 529 657 387 657 c 0
 277 657 135 589 135 347 c 0
45 337 m 0
 45 541 192 693 409 693 c 0
 608 693 722 521 722 355 c 0
 722 137 571 -14 391 -14 c 0
 159 -14 45 163 45 337 c 0
443 811 m 0
 443 846 467 861 491 861 c 0
 514 861 539 846 539 811 c 0
 539 778 518 755 491 755 c 0
 463 755 443 778 443 811 c 0
263 811 m 0
 263 846 287 861 311 861 c 0
 336 861 359 846 359 811 c 0
 359 778 339 755 311 755 c 0
 284 755 263 778 263 811 c 0
EndSplineSet
Validated: 1
Position2: "'cpsp' Capital Spacing lookup 0 subtable" dx=5 dy=0 dh=10 dv=0
EndChar

StartChar: multiply
Encoding: 150 215 151
Width: 522
Flags: W
LayerCount: 2
Back
Fore
SplineSet
463 483 m 1
 296 316 l 1
 463 149 l 1
 429 115 l 1
 262 282 l 1
 95 115 l 1
 61 149 l 1
 228 316 l 1
 61 483 l 1
 95 517 l 1
 262 350 l 1
 429 517 l 1
 463 483 l 1
EndSplineSet
Validated: 1
EndChar

StartChar: Oslash
Encoding: 151 216 152
Width: 764
Flags: W
LayerCount: 2
Back
Fore
SplineSet
45 337 m 0
 45 541 192 693 409 693 c 0
 474 693 528 674 575 645 c 1
 634 734 l 1
 666 712 l 1
 605 622 l 1
 681 556 722 455 722 355 c 0
 722 137 571 -14 391 -14 c 0
 319 -14 259 2 210 31 c 1
 134 -83 l 1
 104 -63 l 1
 180 51 l 1
 89 118 45 229 45 337 c 0
135 347 m 0
 135 254 162 164 214 103 c 1
 539 591 l 1
 498 636 447 661 387 661 c 0
 277 661 135 594 135 347 c 0
630 322 m 0
 630 415 605 499 564 560 c 1
 240 76 l 1
 281 39 331 18 392 18 c 0
 549 18 630 154 630 322 c 0
EndSplineSet
Validated: 1
Position2: "'cpsp' Capital Spacing lookup 0 subtable" dx=5 dy=0 dh=10 dv=0
EndChar

StartChar: Ugrave
Encoding: 152 217 153
Width: 733
Flags: W
LayerCount: 2
Back
Fore
SplineSet
38 651 m 1
 38 679 l 1
 45 678 54 676 64 675 c 0
 81 674 105 672 138 672 c 0
 171 672 211 674 259 679 c 1
 259 651 l 1
 225 648 209 648 186 645 c 1
 174 300 172 251 172 230 c 0
 172 95 234 28 371 28 c 0
 504 28 576 104 581 261 c 0
 588 445 592 549 592 577 c 0
 592 635 576 643 544 648 c 2
 523 651 l 1
 523 679 l 1
 529 678 537 676 546 675 c 0
 562 674 584 672 616 672 c 0
 648 672 686 674 734 679 c 1
 734 651 l 1
 700 648 686 648 661 645 c 1
 628 254 l 1
 612 81 530 -14 364 -14 c 0
 201 -14 94 52 94 196 c 0
 94 251 108 549 108 577 c 0
 108 635 91 643 59 648 c 2
 38 651 l 1
464 779 m 1
 445 755 l 1
 247 859 l 1
 263 879 277 900 289 921 c 1
 464 779 l 1
EndSplineSet
Validated: 1
Position2: "'cpsp' Capital Spacing lookup 0 subtable" dx=5 dy=0 dh=10 dv=0
EndChar

StartChar: Uacute
Encoding: 153 218 154
Width: 733
Flags: W
LayerCount: 2
Back
Fore
SplineSet
38 651 m 1
 38 679 l 1
 45 678 54 676 64 675 c 0
 81 674 105 672 138 672 c 0
 171 672 211 674 259 679 c 1
 259 651 l 1
 225 648 209 648 186 645 c 1
 174 300 172 251 172 230 c 0
 172 95 234 28 371 28 c 0
 504 28 576 104 581 261 c 0
 588 445 592 549 592 577 c 0
 592 635 576 643 544 648 c 2
 523 651 l 1
 523 679 l 1
 529 678 537 676 546 675 c 0
 562 674 584 672 616 672 c 0
 648 672 686 674 734 679 c 1
 734 651 l 1
 700 648 686 648 661 645 c 1
 628 254 l 1
 612 81 530 -14 364 -14 c 0
 201 -14 94 52 94 196 c 0
 94 251 108 549 108 577 c 0
 108 635 91 643 59 648 c 2
 38 651 l 1
346 755 m 1
 328 777 l 1
 495 924 l 1
 508 901 524 881 543 866 c 1
 346 755 l 1
EndSplineSet
Validated: 1
Position2: "'cpsp' Capital Spacing lookup 0 subtable" dx=5 dy=0 dh=10 dv=0
EndChar

StartChar: Ucircumflex
Encoding: 154 219 155
Width: 733
Flags: W
LayerCount: 2
Back
Fore
SplineSet
38 651 m 1
 38 679 l 1
 45 678 54 676 64 675 c 0
 81 674 105 672 138 672 c 0
 171 672 211 674 259 679 c 1
 259 651 l 1
 225 648 209 648 186 645 c 1
 174 300 172 251 172 230 c 0
 172 95 234 28 371 28 c 0
 504 28 576 104 581 261 c 0
 588 445 592 549 592 577 c 0
 592 635 576 643 544 648 c 2
 523 651 l 1
 523 679 l 1
 529 678 537 676 546 675 c 0
 562 674 584 672 616 672 c 0
 648 672 686 674 734 679 c 1
 734 651 l 1
 700 648 686 648 661 645 c 1
 628 254 l 1
 612 81 530 -14 364 -14 c 0
 201 -14 94 52 94 196 c 0
 94 251 108 549 108 577 c 0
 108 635 91 643 59 648 c 2
 38 651 l 1
398 842 m 1
 249 755 l 1
 230 775 l 1
 401 924 l 1
 561 775 l 1
 540 755 l 1
 398 842 l 1
EndSplineSet
Validated: 1
Position2: "'cpsp' Capital Spacing lookup 0 subtable" dx=5 dy=0 dh=10 dv=0
EndChar

StartChar: Udieresis
Encoding: 155 220 156
Width: 733
Flags: W
LayerCount: 2
Back
Fore
SplineSet
38 651 m 1
 38 679 l 1
 45 678 54 676 64 675 c 0
 81 674 105 672 138 672 c 0
 171 672 211 674 259 679 c 1
 259 651 l 1
 225 648 209 648 186 645 c 1
 174 300 172 251 172 230 c 0
 172 95 234 28 371 28 c 0
 504 28 576 104 581 261 c 0
 588 445 592 549 592 577 c 0
 592 635 576 643 544 648 c 2
 523 651 l 1
 523 679 l 1
 529 678 537 676 546 675 c 0
 562 674 584 672 616 672 c 0
 648 672 686 674 734 679 c 1
 734 651 l 1
 700 648 686 648 661 645 c 1
 628 254 l 1
 612 81 530 -14 364 -14 c 0
 201 -14 94 52 94 196 c 0
 94 251 108 549 108 577 c 0
 108 635 91 643 59 648 c 2
 38 651 l 1
438 811 m 0
 438 846 462 861 486 861 c 0
 509 861 534 846 534 811 c 0
 534 778 513 755 486 755 c 0
 458 755 438 778 438 811 c 0
258 811 m 0
 258 846 282 861 306 861 c 0
 331 861 354 846 354 811 c 0
 354 778 334 755 306 755 c 0
 279 755 258 778 258 811 c 0
EndSplineSet
Validated: 1
Position2: "'cpsp' Capital Spacing lookup 0 subtable" dx=5 dy=0 dh=10 dv=0
EndChar

StartChar: Yacute
Encoding: 156 221 157
Width: 613
Flags: W
LayerCount: 2
Back
Fore
SplineSet
564 644 m 1
 346 288 l 1
 343 185 341 130 341 110 c 0
 341 46 354 36 389 31 c 2
 410 28 l 1
 410 0 l 1
 384 3 l 2
 368 4 342 7 310 7 c 0
 277 7 237 5 189 0 c 1
 189 28 l 1
 223 31 237 34 262 34 c 1
 268 296 l 1
 118 555 l 1
 79 626 48 642 13 647 c 2
 -8 650 l 1
 -8 678 l 1
 0 677 10 675 21 674 c 0
 40 673 65 671 100 671 c 0
 133 671 175 673 223 678 c 1
 223 650 l 1
 189 647 173 647 150 644 c 1
 322 340 l 1
 330 340 l 1
 455 555 l 2
 471 584 479 605 479 618 c 0
 479 637 466 644 446 647 c 2
 425 650 l 1
 425 678 l 1
 431 677 439 675 448 674 c 0
 463 673 486 671 518 671 c 0
 550 671 589 673 637 678 c 1
 637 650 l 1
 604 647 587 647 564 644 c 1
267 755 m 1
 249 777 l 1
 416 924 l 1
 429 901 445 881 464 866 c 1
 267 755 l 1
EndSplineSet
Validated: 1
Position2: "'cpsp' Capital Spacing lookup 0 subtable" dx=5 dy=0 dh=10 dv=0
EndChar

StartChar: Thorn
Encoding: 157 222 158
Width: 532
Flags: W
LayerCount: 2
Back
Fore
SplineSet
290 547 m 0
 439 547 504 458 504 358 c 0
 504 240 403 152 286 152 c 0
 267 152 251 154 238 157 c 1
 239 182 l 1
 250 180 261 179 272 179 c 0
 363 179 426 257 426 343 c 0
 426 449 367 515 251 515 c 0
 228 515 212 513 195 510 c 1
 191 384 182 133 182 103 c 0
 182 46 195 36 230 31 c 2
 251 28 l 1
 251 0 l 1
 225 3 l 2
 208 4 183 7 151 7 c 0
 118 7 78 5 30 0 c 1
 30 28 l 1
 63 31 80 34 103 34 c 1
 111 295 122 549 122 577 c 0
 122 635 106 643 73 648 c 2
 52 651 l 1
 52 679 l 1
 59 678 67 676 78 675 c 0
 94 674 119 672 152 672 c 0
 185 672 225 674 273 679 c 1
 273 651 l 1
 239 648 225 648 200 645 c 1
 196 542 l 1
 219 543 246 547 290 547 c 0
EndSplineSet
Validated: 1
Position2: "'cpsp' Capital Spacing lookup 0 subtable" dx=5 dy=0 dh=10 dv=0
EndChar

StartChar: germandbls
Encoding: 158 223 159
Width: 587
Flags: W
LayerCount: 2
Back
Fore
SplineSet
110 428 m 1
 114 513 l 1
 114 557 170 759 353 759 c 0
 506 759 542 638 542 563 c 0
 542 520 537 481 518 442 c 1
 486 462 458 471 422 471 c 0
 381 471 346 439 346 395 c 0
 346 341 393 310 443 273 c 0
 505 227 560 187 560 115 c 0
 560 54 511 -10 394 -10 c 0
 318 -10 263 18 263 63 c 0
 263 98 289 120 325 121 c 1
 325 112 l 2
 325 52 361 16 412 16 c 0
 454 16 497 40 497 96 c 0
 497 147 458 179 423 206 c 0
 364 251 303 281 303 356 c 0
 303 437 365 509 447 509 c 0
 452 509 458 508 469 507 c 1
 478 523 485 552 485 591 c 0
 485 663 449 729 349 729 c 0
 195 729 172 566 168 428 c 1
 163 308 159 181 159 116 c 0
 159 39 168 23 226 23 c 2
 244 23 l 1
 244 0 l 1
 182 -3 139 0 78 -16 c 1
 91 107 100 254 108 385 c 1
 75 382 44 381 15 378 c 1
 17 428 l 1
 110 428 l 1
EndSplineSet
Validated: 1
EndChar

StartChar: aacute
Encoding: 160 225 161
Width: 451
Flags: W
LayerCount: 2
Back
Fore
SplineSet
27 76 m 0
 27 191 223 211 290 215 c 1
 293 244 294 272 294 296 c 0
 294 357 280 412 205 412 c 0
 152 412 115 371 115 320 c 0
 115 309 117 300 120 289 c 1
 113 281 99 276 86 276 c 0
 66 276 48 287 48 317 c 0
 48 390 160 438 240 438 c 0
 317 438 363 405 363 324 c 0
 363 255 348 148 348 100 c 0
 348 59 358 35 379 35 c 0
 404 35 429 71 440 82 c 1
 458 67 l 1
 413 3 381 -10 349 -10 c 0
 303 -10 278 31 278 74 c 1
 251 32 210 -10 134 -10 c 0
 45 -10 27 41 27 76 c 0
159 26 m 0
 242 26 276 107 287 190 c 1
 220 182 99 177 99 86 c 0
 99 36 136 26 159 26 c 0
198 553 m 1
 175 569 l 1
 298 754 l 1
 315 735 338 722 359 711 c 1
 198 553 l 1
EndSplineSet
Validated: 1
EndChar

StartChar: atilde
Encoding: 162 227 163
Width: 451
Flags: W
LayerCount: 2
Back
Fore
SplineSet
27 76 m 0
 27 191 223 211 290 215 c 1
 293 244 294 272 294 296 c 0
 294 357 280 412 205 412 c 0
 152 412 115 371 115 320 c 0
 115 309 117 300 120 289 c 1
 113 281 99 276 86 276 c 0
 66 276 48 287 48 317 c 0
 48 390 160 438 240 438 c 0
 317 438 363 405 363 324 c 0
 363 255 348 148 348 100 c 0
 348 59 358 35 379 35 c 0
 404 35 429 71 440 82 c 1
 458 67 l 1
 413 3 381 -10 349 -10 c 0
 303 -10 278 31 278 74 c 1
 251 32 210 -10 134 -10 c 0
 45 -10 27 41 27 76 c 0
159 26 m 0
 242 26 276 107 287 190 c 1
 220 182 99 177 99 86 c 0
 99 36 136 26 159 26 c 0
394 686 m 1
 421 676 l 1
 408 625 375 553 303 553 c 0
 271 553 243 574 211 598 c 1
 177 625 166 638 145 638 c 0
 110 638 92 583 81 553 c 1
 54 563 l 1
 67 614 100 686 172 686 c 0
 204 686 232 666 264 641 c 0
 298 615 311 601 330 601 c 0
 362 601 383 657 394 686 c 1
EndSplineSet
Validated: 1
EndChar

StartChar: aring
Encoding: 164 229 165
Width: 451
Flags: W
LayerCount: 2
Back
Fore
SplineSet
27 76 m 0
 27 191 223 211 290 215 c 1
 293 244 294 272 294 296 c 0
 294 357 280 412 205 412 c 0
 152 412 115 371 115 320 c 0
 115 309 117 300 120 289 c 1
 113 281 99 276 86 276 c 0
 66 276 48 287 48 317 c 0
 48 390 160 438 240 438 c 0
 317 438 363 405 363 324 c 0
 363 255 348 148 348 100 c 0
 348 59 358 35 379 35 c 0
 404 35 429 71 440 82 c 1
 458 67 l 1
 413 3 381 -10 349 -10 c 0
 303 -10 278 31 278 74 c 1
 251 32 210 -10 134 -10 c 0
 45 -10 27 41 27 76 c 0
159 26 m 0
 242 26 276 107 287 190 c 1
 220 182 99 177 99 86 c 0
 99 36 136 26 159 26 c 0
235 711 m 0
 199 711 177 680 177 646 c 0
 177 617 196 582 236 582 c 0
 272 582 294 606 294 646 c 0
 294 673 275 711 235 711 c 0
136 639 m 0
 136 690 179 739 246 739 c 0
 308 739 337 701 337 657 c 0
 337 598 286 553 228 553 c 0
 160 553 136 596 136 639 c 0
EndSplineSet
Validated: 1
EndChar

StartChar: ae
Encoding: 165 230 166
Width: 709
Flags: W
LayerCount: 2
Back
Fore
SplineSet
582 257 m 0
 513 257 442 263 366 270 c 1
 363 255 363 241 363 226 c 0
 363 82 440 47 519 47 c 0
 569 47 611 59 665 97 c 1
 678 78 l 1
 613 23 551 -10 478 -10 c 0
 397 -10 333 37 307 103 c 1
 272 39 215 -10 134 -10 c 0
 45 -10 27 41 27 76 c 0
 27 191 223 207 290 215 c 1
 293 244 294 272 294 296 c 0
 294 357 280 412 205 412 c 0
 152 412 115 371 115 320 c 0
 115 309 117 300 120 289 c 1
 113 281 99 276 86 276 c 0
 66 276 48 287 48 317 c 0
 48 390 160 438 240 438 c 0
 301 438 342 418 357 367 c 1
 398 411 452 438 511 438 c 0
 628 438 665 348 665 279 c 0
 665 271 665 267 664 260 c 1
 636 258 609 257 582 257 c 0
159 26 m 0
 242 26 276 107 287 190 c 1
 220 186 99 176 99 86 c 0
 99 36 136 26 159 26 c 0
494 411 m 0
 429 411 387 355 371 293 c 1
 418 292 449 291 470 291 c 2
 518 291 l 2
 541 291 563 292 594 293 c 1
 594 298 l 2
 594 368 554 411 494 411 c 0
EndSplineSet
Validated: 1
EndChar

StartChar: ccedilla
Encoding: 166 231 167
Width: 448
Flags: W
LayerCount: 2
Back
Fore
SplineSet
180 -78 m 1
 188 -63 204 -31 209 -10 c 1
 97 -7 34 76 34 186 c 0
 34 320 130 438 282 438 c 0
 362 438 415 402 415 363 c 0
 415 334 388 314 358 314 c 1
 353 355 325 407 245 407 c 0
 177 407 101 350 101 223 c 0
 101 107 165 47 258 47 c 0
 294 47 339 54 398 97 c 1
 412 78 l 1
 352 26 295 0 240 -8 c 1
 231 -32 l 1
 284 -41 313 -73 313 -114 c 0
 313 -165 264 -215 196 -215 c 0
 164 -215 149 -196 149 -177 c 0
 149 -167 153 -158 160 -151 c 1
 170 -159 207 -177 234 -177 c 0
 257 -177 282 -161 282 -137 c 0
 282 -89 240 -78 180 -78 c 1
EndSplineSet
Validated: 1
EndChar

StartChar: eacute
Encoding: 168 233 169
Width: 453
Flags: MW
VStem: 34 73<154 233 154 260.5>
LayerCount: 2
Back
Fore
SplineSet
326 257 m 0
 257 257 186 263 110 270 c 1
 108 255 107 240 107 226 c 0
 107 82 184 47 263 47 c 0
 313 47 355 59 409 97 c 1
 422 78 l 1
 357 23 295 -10 222 -10 c 0
 105 -10 34 84 34 191 c 0
 34 330 138 438 255 438 c 0
 372 438 409 348 409 279 c 0
 409 271 409 267 408 260 c 1
 380 258 353 257 326 257 c 0
238 409 m 0
 170 409 134 356 115 293 c 1
 162 292 191 291 214 291 c 2
 262 291 l 2
 285 291 306 292 338 293 c 1
 338 298 l 2
 338 368 297 409 238 409 c 0
240 553 m 1
 217 569 l 1
 340 754 l 1
 357 735 380 722 401 711 c 1
 240 553 l 1
EndSplineSet
Validated: 1
EndChar

StartChar: edieresis
Encoding: 170 235 171
Width: 453
Flags: MW
VStem: 34 73<154 233 154 260.5>
LayerCount: 2
Back
Fore
SplineSet
326 257 m 0
 257 257 186 263 110 270 c 1
 108 255 107 240 107 226 c 0
 107 82 184 47 263 47 c 0
 313 47 355 59 409 97 c 1
 422 78 l 1
 357 23 295 -10 222 -10 c 0
 105 -10 34 84 34 191 c 0
 34 330 138 438 255 438 c 0
 372 438 409 348 409 279 c 0
 409 271 409 267 408 260 c 1
 380 258 353 257 326 257 c 0
238 409 m 0
 170 409 134 356 115 293 c 1
 162 292 191 291 214 291 c 2
 262 291 l 2
 285 291 306 292 338 293 c 1
 338 298 l 2
 338 368 297 409 238 409 c 0
163 551 m 0
 136 551 116 568 116 603 c 0
 116 633 135 659 166 659 c 0
 191 659 212 642 212 607 c 0
 212 577 193 551 163 551 c 0
344 551 m 0
 317 551 297 568 297 603 c 0
 297 633 316 659 347 659 c 0
 371 659 393 642 393 607 c 0
 393 577 375 551 344 551 c 0
EndSplineSet
Validated: 1
EndChar

StartChar: iacute
Encoding: 172 237 173
Width: 255
Flags: W
LayerCount: 2
Back
Fore
SplineSet
177 438 m 1
 161 334 153 223 153 126 c 0
 153 37 158 23 216 23 c 2
 238 23 l 1
 238 0 l 1
 230 0 l 2
 169 0 122 -4 75 -16 c 1
 91 89 99 195 99 296 c 0
 99 357 89 389 20 389 c 2
 10 389 l 1
 10 412 l 1
 75 415 128 425 177 438 c 1
131 553 m 1
 108 569 l 1
 231 754 l 1
 248 735 271 722 292 711 c 1
 131 553 l 1
EndSplineSet
Validated: 1
EndChar

StartChar: idieresis
Encoding: 174 239 175
Width: 255
Flags: W
LayerCount: 2
Back
Fore
SplineSet
177 438 m 1
 161 334 153 223 153 126 c 0
 153 37 158 23 216 23 c 2
 238 23 l 1
 238 0 l 1
 230 0 l 2
 169 0 122 -4 75 -16 c 1
 91 89 99 195 99 296 c 0
 99 357 89 389 20 389 c 2
 10 389 l 1
 10 412 l 1
 75 415 128 425 177 438 c 1
52 551 m 0
 25 551 5 568 5 603 c 0
 5 633 24 659 55 659 c 0
 80 659 101 642 101 607 c 0
 101 577 82 551 52 551 c 0
233 551 m 0
 206 551 186 568 186 603 c 0
 186 633 205 659 236 659 c 0
 260 659 282 642 282 607 c 0
 282 577 264 551 233 551 c 0
EndSplineSet
Validated: 1
EndChar

StartChar: eth
Encoding: 175 240 176
Width: 506
Flags: W
LayerCount: 2
Back
Fore
SplineSet
458 699 m 1
 466 680 l 1
 430 668 395 653 359 640 c 1
 424 564 466 454 466 318 c 0
 466 173 405 -10 233 -10 c 0
 118 -10 33 56 33 192 c 0
 33 310 133 438 270 438 c 0
 305 438 346 436 383 419 c 1
 369 488 349 558 306 618 c 1
 265 599 225 579 186 555 c 1
 188 605 l 1
 217 620 250 634 283 646 c 1
 242 691 186 726 111 739 c 1
 112 759 l 1
 195 759 273 725 336 664 c 1
 377 677 417 688 458 699 c 1
393 286 m 0
 393 310 393 337 389 365 c 1
 357 393 314 411 267 411 c 0
 171 411 113 333 113 213 c 0
 113 119 161 19 258 19 c 0
 377 19 393 189 393 286 c 0
EndSplineSet
Validated: 1
EndChar

StartChar: oacute
Encoding: 178 243 179
Width: 515
Flags: MW
HStem: -10 30<204 303.5 204 304> 410 28<206.5 307>
VStem: 34 72<169.5 253> 405 72<177 252>
LayerCount: 2
Back
Fore
SplineSet
255 410 m 0
 158 410 106 317 106 217 c 0
 106 122 151 20 257 20 c 0
 350 20 405 92 405 209 c 0
 405 295 359 410 255 410 c 0
34 191 m 0
 34 315 125 438 277 438 c 0
 421 438 477 351 477 247 c 0
 477 107 372 -10 236 -10 c 0
 80 -10 34 88 34 191 c 0
256 553 m 1
 233 569 l 1
 356 754 l 1
 373 735 396 722 417 711 c 1
 256 553 l 1
EndSplineSet
Validated: 1
EndChar

StartChar: otilde
Encoding: 180 245 181
Width: 515
Flags: MW
HStem: -10 30<204 303.5 204 304> 410 28<206.5 307>
VStem: 34 72<169.5 253> 405 72<177 252>
LayerCount: 2
Back
Fore
SplineSet
255 410 m 0
 158 410 106 317 106 217 c 0
 106 122 151 20 257 20 c 0
 350 20 405 92 405 209 c 0
 405 295 359 410 255 410 c 0
34 191 m 0
 34 315 125 438 277 438 c 0
 421 438 477 351 477 247 c 0
 477 107 372 -10 236 -10 c 0
 80 -10 34 88 34 191 c 0
425 686 m 1
 452 676 l 1
 439 625 406 553 334 553 c 0
 302 553 274 574 242 598 c 1
 208 625 197 638 176 638 c 0
 141 638 123 583 112 553 c 1
 85 563 l 1
 98 614 131 686 203 686 c 0
 235 686 263 666 295 641 c 0
 329 615 342 601 361 601 c 0
 393 601 414 657 425 686 c 1
EndSplineSet
Validated: 1
EndChar

StartChar: divide
Encoding: 182 247 183
Width: 576
Flags: W
LayerCount: 2
Back
Fore
SplineSet
242 140 m 0
 242 153 244 194 289 194 c 0
 334 194 336 153 336 140 c 0
 336 127 334 86 289 86 c 0
 244 86 242 127 242 140 c 0
59 292 m 1
 59 340 l 1
 519 340 l 1
 519 292 l 1
 59 292 l 1
242 492 m 0
 242 505 244 546 289 546 c 0
 334 546 336 505 336 492 c 0
 336 479 334 438 289 438 c 0
 244 438 242 479 242 492 c 0
EndSplineSet
Validated: 1
EndChar

StartChar: oslash
Encoding: 183 248 184
Width: 515
Flags: W
LayerCount: 2
Back
Fore
SplineSet
34 191 m 0
 34 315 125 438 277 438 c 0
 338 438 383 422 415 397 c 1
 487 472 l 1
 510 449 l 1
 437 374 l 1
 465 339 477 296 477 247 c 0
 477 107 372 -10 236 -10 c 0
 177 -10 135 3 104 26 c 1
 27 -54 l 1
 4 -31 l 1
 80 48 l 1
 47 85 34 136 34 191 c 0
255 411 m 0
 158 411 106 316 106 217 c 0
 106 177 114 135 131 102 c 1
 366 346 l 1
 342 385 306 411 255 411 c 0
405 209 m 0
 405 242 398 281 382 316 c 1
 148 73 l 1
 173 40 208 19 257 19 c 0
 350 19 405 93 405 209 c 0
EndSplineSet
Validated: 1
EndChar

StartChar: uacute
Encoding: 185 250 186
Width: 545
Flags: MW
VStem: 82 64<133 159> 372 71
LayerCount: 2
Back
Fore
SplineSet
9 389 m 1
 9 412 l 1
 68 415 125 423 176 438 c 1
 163 351 146 262 146 169 c 0
 146 97 160 40 243 40 c 0
 288 40 346 81 377 110 c 1
 381 170 385 231 385 296 c 0
 385 357 378 389 304 389 c 2
 297 389 l 1
 297 412 l 1
 366 416 418 423 467 438 c 1
 455 395 443 231 443 126 c 0
 443 65 449 23 522 23 c 2
 532 23 l 1
 532 0 l 1
 456 -3 411 -3 372 -16 c 1
 377 14 384 55 387 82 c 1
 312 15 247 -10 195 -10 c 0
 126 -10 82 32 82 127 c 0
 82 191 93 275 93 326 c 0
 93 371 74 389 18 389 c 2
 9 389 l 1
260 553 m 1
 237 569 l 1
 360 754 l 1
 377 735 400 722 421 711 c 1
 260 553 l 1
EndSplineSet
Validated: 1
EndChar

StartChar: udieresis
Encoding: 187 252 188
Width: 545
Flags: MW
VStem: 82 64<133 159> 372 71
LayerCount: 2
Back
Fore
SplineSet
9 389 m 1
 9 412 l 1
 68 415 125 423 176 438 c 1
 163 351 146 262 146 169 c 0
 146 97 160 40 243 40 c 0
 288 40 346 81 377 110 c 1
 381 170 385 231 385 296 c 0
 385 357 378 389 304 389 c 2
 297 389 l 1
 297 412 l 1
 366 416 418 423 467 438 c 1
 455 395 443 231 443 126 c 0
 443 65 449 23 522 23 c 2
 532 23 l 1
 532 0 l 1
 456 -3 411 -3 372 -16 c 1
 377 14 384 55 387 82 c 1
 312 15 247 -10 195 -10 c 0
 126 -10 82 32 82 127 c 0
 82 191 93 275 93 326 c 0
 93 371 74 389 18 389 c 2
 9 389 l 1
189 551 m 0
 162 551 142 568 142 603 c 0
 142 633 161 659 192 659 c 0
 217 659 238 642 238 607 c 0
 238 577 219 551 189 551 c 0
370 551 m 0
 343 551 323 568 323 603 c 0
 323 633 342 659 373 659 c 0
 397 659 419 642 419 607 c 0
 419 577 401 551 370 551 c 0
EndSplineSet
Validated: 1
EndChar

StartChar: thorn
Encoding: 189 254 190
Width: 495
Flags: W
HStem: -266 21G<36.5 61.1111> -250.988 23.9877<136.314 200> -10 31<123.785 274.246> 388 50<227.999 333.073> 710 23<-3 65.1341>
VStem: 383 73<149.992 332.7>
LayerCount: 2
Back
Fore
SplineSet
52 -110 m 1xbc
 68 134 86 515 86 624 c 0
 86 692 73 710 13 710 c 2
 -3 710 l 1
 -3 733 l 1
 55 736 91 740 164 759 c 1
 152 665 139 428 135 353 c 1
 211 412 257 438 307 438 c 0
 403 438 456 373 456 256 c 0
 456 103 339 -10 177 -10 c 0
 145 -10 129 -8 118 -7 c 1
 116 -46 115 -81 115 -114 c 0
 115 -200 119 -227 185 -227 c 2
 200 -227 l 1
 200 -251 l 1
 193.111111111 -251 186.456790123 -250.987654321 179.986282579 -250.987654321 c 0x7c
 128.222222222 -250.987654321 88.2222222222 -251.777777778 34 -266 c 1
 39 -239 44 -193 52 -110 c 1xbc
134 319 m 1
 122 37 l 1
 143 28 177 21 209 21 c 0
 314 21 383 110 383 238 c 0
 383 343 327 388 271 388 c 0
 220 388 166 348 134 319 c 1
EndSplineSet
Validated: 1
EndChar

StartChar: ydieresis
Encoding: 190 255 191
Width: 440
Flags: W
LayerCount: 2
Back
Fore
SplineSet
162 310 m 1
 233 79 l 1
 243 79 l 1
 282 150 342 256 342 344 c 0
 342 373 336 400 320 424 c 1
 333 435 350 438 366 438 c 0
 398 438 414 417 414 382 c 0
 414 315 363 229 328 164 c 1
 236 0 l 2
 180 -100 94 -266 28 -266 c 0
 -9 -266 -24 -244 -24 -213 c 0
 -24 -201 -22 -192 -18 -181 c 1
 -9 -185 5 -189 21 -189 c 0
 85 -189 141 -109 194 -14 c 1
 85 323 l 2
 69 373 51 389 10 389 c 2
 2 389 l 1
 2 412 l 1
 59 415 79 425 133 438 c 1
 138 390 149 358 162 310 c 1
166 551 m 0
 139 551 119 568 119 603 c 0
 119 633 138 659 169 659 c 0
 194 659 215 642 215 607 c 0
 215 577 196 551 166 551 c 0
347 551 m 0
 320 551 300 568 300 603 c 0
 300 633 319 659 350 659 c 0
 374 659 396 642 396 607 c 0
 396 577 378 551 347 551 c 0
EndSplineSet
Validated: 1
EndChar

StartChar: dotlessi
Encoding: 197 305 192
Width: 255
Flags: W
LayerCount: 2
Back
Fore
SplineSet
177 438 m 1
 161 334 153 223 153 126 c 0
 153 37 158 23 216 23 c 2
 238 23 l 1
 238 0 l 1
 230 0 l 2
 169 0 122 -4 75 -16 c 1
 91 89 99 195 99 296 c 0
 99 357 89 389 20 389 c 2
 10 389 l 1
 10 412 l 1
 75 415 128 425 177 438 c 1
EndSplineSet
Validated: 1
EndChar

StartChar: OE
Encoding: 198 338 193
Width: 1010
Flags: W
LayerCount: 2
Back
Fore
SplineSet
784 30 m 0
 888 30 928 51 949 149 c 1
 980 149 l 1
 975 115 959 35 935 -10 c 1
 806 -6 694 0 613 0 c 2
 596 0 l 1
 599 91 l 1
 542 24 463 -14 376 -14 c 0
 149 -14 46 166 46 344 c 0
 46 537 180 693 378 693 c 0
 485 693 566 632 614 549 c 1
 618 672 l 1
 810 672 l 2
 863 672 905 674 969 679 c 1
 954 514 l 1
 924 514 l 1
 924 540 925 543 925 545 c 0
 925 589 908 623 816 631 c 1
 696 639 l 1
 691 586 688 529 687 482 c 2
 683 372 l 1
 891 383 l 1
 886 321 l 1
 808 332 721 335 682 338 c 1
 678 231 l 2
 675 175 674 118 674 106 c 0
 674 38 710 30 784 30 c 0
375 661 m 0
 212 661 136 516 136 346 c 0
 136 177 225 18 380 18 c 0
 537 18 605 164 605 326 c 0
 605 502 520 661 375 661 c 0
EndSplineSet
Validated: 1
Position2: "'cpsp' Capital Spacing lookup 0 subtable" dx=5 dy=0 dh=10 dv=0
EndChar

StartChar: oe
Encoding: 199 339 194
Width: 811
Flags: W
LayerCount: 2
Back
Fore
SplineSet
684 257 m 0
 615 257 544 263 468 270 c 1
 466 255 465 240 465 226 c 0
 465 82 542 47 621 47 c 0
 671 47 713 59 767 97 c 1
 780 78 l 1
 715 23 653 -10 580 -10 c 0
 502 -10 444 31 415 91 c 1
 372 28 306 -10 231 -10 c 0
 85 -10 34 88 34 191 c 0
 34 317 129 438 272 438 c 0
 360 438 414 401 441 346 c 1
 482 403 545 438 613 438 c 0
 730 438 767 348 767 279 c 0
 767 271 767 267 766 260 c 1
 738 258 711 257 684 257 c 0
252 410 m 0
 160 410 106 318 106 217 c 0
 106 122 153 20 254 20 c 0
 340 20 391 92 391 209 c 0
 391 295 348 410 252 410 c 0
596 411 m 0
 530 411 489 355 473 293 c 1
 520 292 549 291 572 291 c 2
 620 291 l 2
 643 291 664 292 696 293 c 1
 696 298 l 2
 696 368 655 411 596 411 c 0
EndSplineSet
Validated: 1
EndChar

StartChar: Ydieresis
Encoding: 202 376 195
Width: 613
Flags: W
LayerCount: 2
Back
Fore
SplineSet
564 644 m 1
 346 288 l 1
 343 185 341 130 341 110 c 0
 341 46 354 36 389 31 c 2
 410 28 l 1
 410 0 l 1
 384 3 l 2
 368 4 342 7 310 7 c 0
 277 7 237 5 189 0 c 1
 189 28 l 1
 223 31 237 34 262 34 c 1
 268 296 l 1
 118 555 l 1
 79 626 48 642 13 647 c 2
 -8 650 l 1
 -8 678 l 1
 0 677 10 675 21 674 c 0
 40 673 65 671 100 671 c 0
 133 671 175 673 223 678 c 1
 223 650 l 1
 189 647 173 647 150 644 c 1
 322 340 l 1
 330 340 l 1
 455 555 l 2
 471 584 479 605 479 618 c 0
 479 637 466 644 446 647 c 2
 425 650 l 1
 425 678 l 1
 431 677 439 675 448 674 c 0
 463 673 486 671 518 671 c 0
 550 671 589 673 637 678 c 1
 637 650 l 1
 604 647 587 647 564 644 c 1
368 811 m 0
 368 846 392 861 416 861 c 0
 439 861 464 846 464 811 c 0
 464 778 443 755 416 755 c 0
 388 755 368 778 368 811 c 0
188 811 m 0
 188 846 212 861 236 861 c 0
 261 861 284 846 284 811 c 0
 284 778 264 755 236 755 c 0
 209 755 188 778 188 811 c 0
EndSplineSet
Validated: 1
Position2: "'cpsp' Capital Spacing lookup 0 subtable" dx=5 dy=0 dh=10 dv=0
EndChar

StartChar: circumflex
Encoding: 205 710 196
Width: 472
Flags: W
LayerCount: 2
Back
Fore
SplineSet
319 672 m 1
 169 553 l 1
 150 573 l 1
 322 754 l 1
 481 573 l 1
 460 553 l 1
 319 672 l 1
EndSplineSet
Validated: 1
Substitution2: "'aalt' Access All Alternates lookup 0 subtable" circumflex.case
EndChar

StartChar: caron
Encoding: 206 711 197
Width: 471
Flags: W
HStem: 553 201
VStem: 130 331
LayerCount: 2
Back
Fore
SplineSet
292 635 m 1
 442 754 l 1
 461 734 l 1
 289 553 l 1
 130 734 l 1
 151 754 l 1
 292 635 l 1
EndSplineSet
Validated: 1
Substitution2: "'aalt' Access All Alternates lookup 0 subtable" caron.case
EndChar

StartChar: ring
Encoding: 207 730 198
Width: 342
Flags: W
LayerCount: 2
Back
Fore
SplineSet
239 711 m 0
 203 711 181 680 181 646 c 0
 181 617 200 582 240 582 c 0
 276 582 298 606 298 646 c 0
 298 673 279 711 239 711 c 0
140 639 m 0
 140 690 183 739 250 739 c 0
 312 739 341 701 341 657 c 0
 341 598 290 553 232 553 c 0
 164 553 140 596 140 639 c 0
EndSplineSet
Validated: 1
Substitution2: "'aalt' Access All Alternates lookup 0 subtable" ring.case
EndChar

StartChar: tilde
Encoding: 208 732 199
Width: 477
Flags: W
LayerCount: 2
Back
Fore
SplineSet
454 686 m 1
 481 676 l 1
 468 625 435 553 363 553 c 0
 331 553 303 574 271 598 c 1
 237 625 226 638 205 638 c 0
 170 638 152 583 141 553 c 1
 114 563 l 1
 127 614 160 686 232 686 c 0
 264 686 292 666 324 641 c 0
 358 615 371 601 390 601 c 0
 422 601 443 657 454 686 c 1
EndSplineSet
Validated: 1
Substitution2: "'aalt' Access All Alternates lookup 0 subtable" tilde.case
EndChar

StartChar: endash
Encoding: 210 8211 200
Width: 581
Flags: W
LayerCount: 2
Back
Fore
SplineSet
512 266 m 1
 510 210 l 1
 65 210 l 1
 67 266 l 1
 512 266 l 1
EndSplineSet
Validated: 1
EndChar

StartChar: emdash
Encoding: 211 8212 201
Width: 748
Flags: W
LayerCount: 2
Back
Fore
SplineSet
679 266 m 1
 677 210 l 1
 65 210 l 1
 67 266 l 1
 679 266 l 1
EndSplineSet
Validated: 1
EndChar

StartChar: quoteleft
Encoding: 212 8216 202
Width: 192
Flags: W
LayerCount: 2
Back
Fore
SplineSet
161 758 m 1
 177 737 l 1
 142 713 110 681 110 637 c 0
 110 590 141 571 168 560 c 1
 168 537 151 508 114 508 c 0
 83 508 51 531 51 587 c 0
 51 634 74 703 161 758 c 1
EndSplineSet
Validated: 1
EndChar

StartChar: quoteright
Encoding: 213 8217 203
Width: 180
Flags: W
LayerCount: 2
Back
Fore
SplineSet
57 509 m 1
 42 530 l 1
 77 554 109 587 109 629 c 0
 109 670 79 697 51 707 c 1
 51 730 68 759 105 759 c 0
 136 759 168 736 168 680 c 0
 168 634 144 562 57 509 c 1
EndSplineSet
Validated: 1
EndChar

StartChar: quotesinglbase
Encoding: 214 8218 204
Width: 211
Flags: W
LayerCount: 2
Back
Fore
SplineSet
45 -153 m 1
 30 -132 l 1
 64 -107 97 -76 97 -33 c 0
 97 9 67 34 39 45 c 1
 39 68 56 97 93 97 c 0
 123 97 156 74 156 18 c 0
 156 -29 132 -98 45 -153 c 1
EndSplineSet
Validated: 1
EndChar

StartChar: quotedblleft
Encoding: 215 8220 205
Width: 373
Flags: W
LayerCount: 2
Back
Fore
SplineSet
163 759 m 1
 178 738 l 1
 145 713 111 682 111 639 c 0
 111 597 141 572 169 561 c 1
 169 538 152 509 115 509 c 0
 85 509 52 532 52 588 c 0
 52 636 75 703 163 759 c 1
341 759 m 1
 357 738 l 1
 321 713 290 683 290 638 c 0
 290 592 320 571 348 561 c 1
 348 538 331 509 294 509 c 0
 263 509 231 532 231 588 c 0
 231 635 254 704 341 759 c 1
EndSplineSet
Validated: 1
EndChar

StartChar: quotedblright
Encoding: 216 8221 206
Width: 359
Flags: W
LayerCount: 2
Back
Fore
SplineSet
58 509 m 1
 42 530 l 1
 78 555 109 585 109 630 c 0
 109 676 79 697 51 707 c 1
 51 730 68 759 105 759 c 0
 136 759 168 736 168 680 c 0
 168 634 145 562 58 509 c 1
236 509 m 1
 221 530 l 1
 256 554 288 587 288 629 c 0
 288 671 258 696 230 707 c 1
 230 730 247 759 284 759 c 0
 315 759 347 736 347 680 c 0
 347 634 324 563 236 509 c 1
EndSplineSet
Validated: 1
EndChar

StartChar: quotedblbase
Encoding: 217 8222 207
Width: 390
Flags: W
LayerCount: 2
Back
Fore
SplineSet
45 -153 m 1
 30 -132 l 1
 64 -107 97 -76 97 -33 c 0
 97 9 67 34 39 45 c 1
 39 68 56 97 93 97 c 0
 123 97 156 74 156 18 c 0
 156 -29 132 -98 45 -153 c 1
224 -153 m 1
 209 -132 l 1
 244 -108 276 -76 276 -33 c 0
 276 8 246 35 218 45 c 1
 218 68 235 97 272 97 c 0
 303 97 335 74 335 18 c 0
 335 -29 311 -98 224 -153 c 1
EndSplineSet
Validated: 1
EndChar

StartChar: bullet
Encoding: 218 8226 208
Width: 323
Flags: W
LayerCount: 2
Back
Fore
SplineSet
79 340 m 0
 79 386 117 424 163 424 c 0
 210 424 247 386 247 340 c 0
 247 293 210 256 163 256 c 0
 117 256 79 293 79 340 c 0
EndSplineSet
Validated: 1
EndChar

StartChar: guilsinglleft
Encoding: 219 8249 209
Width: 326
Flags: W
LayerCount: 2
Back
Fore
SplineSet
132 255 m 1
 280 57 l 1
 264 42 l 1
 24 255 l 1
 279 479 l 1
 295 464 l 1
 132 255 l 1
EndSplineSet
Validated: 1
EndChar

StartChar: guilsinglright
Encoding: 220 8250 210
Width: 325
Flags: W
LayerCount: 2
Back
Fore
SplineSet
191 255 m 1
 44 464 l 1
 60 479 l 1
 299 255 l 1
 45 42 l 1
 29 57 l 1
 191 255 l 1
EndSplineSet
Validated: 1
EndChar

StartChar: fraction
Encoding: 221 8260 211
Width: 471
Flags: W
LayerCount: 2
Back
Fore
SplineSet
7 -8 m 1
 -21 15 l 1
 469 691 l 1
 497 672 l 1
 7 -8 l 1
EndSplineSet
Validated: 1
EndChar

StartChar: foursuperior
Encoding: 222 8308 212
Width: 312
Flags: W
LayerCount: 2
Back
Fore
SplineSet
168 426 m 1
 171 516 l 1
 32 516 l 1
 33 534 l 1
 212 759 l 1
 230 751 l 1
 227 646 226 587 223 546 c 1
 263 549 l 2
 268 549 273 549 278 550 c 1
 265 516 l 1
 222 516 l 1
 222 479 221 478 221 476 c 0
 221 428 234 427 253 424 c 2
 268 422 l 1
 268 403 l 1
 248 406 226 408 198 408 c 0
 175 408 150 406 119 403 c 1
 119 422 l 1
 142 423 151 425 168 426 c 1
177 677 m 1
 69 541 l 1
 102 541 139 542 172 543 c 1
 177 677 l 1
EndSplineSet
Validated: 1
EndChar

StartChar: Euro
Encoding: 223 8364 213
Width: 647
Flags: W
LayerCount: 2
Back
Fore
SplineSet
36 360 m 1
 38 410 l 1
 139 410 l 1
 166 557 277 693 449 693 c 0
 509 693 566 680 606 665 c 1
 592 502 l 1
 562 502 l 1
 562 509 l 2
 562 567 548 657 444 657 c 0
 343 657 245 572 226 410 c 1
 555 410 l 1
 543 376 l 1
 511 375 477 375 442 375 c 0
 381 375 301 373 223 370 c 1
 222 363 222 357 222 350 c 0
 222 334 223 319 224 304 c 1
 518 304 l 1
 506 270 l 1
 420 270 l 1
 368 269 299 268 228 265 c 1
 252 87 360 27 454 27 c 0
 499 27 527 34 579 58 c 1
 589 30 l 1
 534 -5 477 -14 430 -14 c 0
 275 -14 159 81 135 261 c 1
 98 258 64 257 32 254 c 1
 34 304 l 1
 131 304 l 1
 131 331 l 2
 131 343 131 355 132 366 c 1
 97 365 65 363 36 360 c 1
EndSplineSet
Validated: 1
EndChar

StartChar: minus
Encoding: 224 8722 214
Width: 624
Flags: W
LayerCount: 2
Back
Fore
SplineSet
543 340 m 1
 543 292 l 1
 83 292 l 1
 83 340 l 1
 543 340 l 1
EndSplineSet
Validated: 1
EndChar

StartChar: f_f_i
Encoding: 228 64259 215
Width: 806
Flags: W
LayerCount: 2
Back
Fore
SplineSet
728 438 m 1
 711 333 704 222 704 126 c 0
 704 37 709 23 767 23 c 2
 789 23 l 1
 789 0 l 1
 781 0 l 2
 720 0 673 -4 626 -16 c 1
 642 89 650 195 650 296 c 0
 650 368 628 387 590 387 c 0
 538 387 488 387 437 388 c 1
 433 300 l 2
 429 233 429 169 429 126 c 0
 429 42 432 23 493 23 c 2
 514 23 l 1
 514 0 l 1
 451 -3 407 0 348 -16 c 1
 359 99 366 205 373 301 c 1
 376 389 l 1
 300 390 228 393 160 396 c 1
 155 300 l 2
 151 233 151 169 151 126 c 0
 151 42 154 23 215 23 c 2
 236 23 l 1
 236 0 l 1
 173 -3 129 0 70 -16 c 1
 81 98 92 219 95 315 c 2
 98 399 l 1
 71 400 44 403 19 404 c 1
 21 428 l 1
 99 428 l 1
 101 487 l 2
 105 576 258 710 375 710 c 0
 414 710 441 701 458 686 c 1
 493 721 550 759 619 759 c 0
 660 759 677 743 677 719 c 0
 677 707 673 697 664 686 c 1
 644 691 624 695 605 695 c 0
 475 695 452 668 440 455 c 1
 439 428 l 1
 512 428 l 2
 579 428 651 431 728 438 c 1
162 428 m 1
 378 428 l 1
 378 470 380 489 380 506 c 0
 380 547 388 589 411 628 c 1
 386 641 357 646 326 646 c 0
 252 646 170 630 162 428 c 1
EndSplineSet
Validated: 1
Ligature2: "'liga' Standard Ligatures lookup 4 subtable" f f i
EndChar

StartChar: f_f_l
Encoding: 229 64260 216
Width: 803
Flags: W
LayerCount: 2
Back
Fore
SplineSet
162 428 m 1
 378 428 l 1
 378 470 380 489 380 506 c 0
 380 547 388 589 411 628 c 1
 386 641 357 646 326 646 c 0
 252 646 170 630 162 428 c 1
619 759 m 0
 642 759 659 754 668 743 c 1
 692 747 714 752 741 759 c 1
 717 510 706 201 706 112 c 0
 706 37 715 23 770 23 c 2
 791 23 l 1
 791 0 l 1
 730 -3 683 0 625 -16 c 1
 649 226 663 495 663 686 c 1
 643 691 620 695 603 695 c 0
 476 695 452 668 440 455 c 1
 439 429 l 1
 486 430 532 432 581 436 c 1
 560 391 l 1
 437 391 l 1
 433 300 l 1
 429 233 429 169 429 126 c 0
 429 42 432 23 493 23 c 2
 514 23 l 1
 514 0 l 1
 451 -3 407 0 348 -16 c 1
 359 99 366 205 373 301 c 1
 376 392 l 1
 299 393 229 393 160 396 c 1
 155 300 l 2
 151 233 151 169 151 126 c 0
 151 42 154 23 215 23 c 2
 236 23 l 1
 236 0 l 1
 173 -3 129 0 70 -16 c 1
 81 98 92 219 95 315 c 2
 98 399 l 1
 71 400 46 403 19 404 c 1
 21 428 l 1
 99 428 l 1
 101 487 l 2
 105 576 258 710 375 710 c 0
 414 710 441 701 458 686 c 1
 493 721 550 759 619 759 c 0
EndSplineSet
Validated: 1
Ligature2: "'liga' Standard Ligatures lookup 4 subtable" f f l
EndChar

StartChar: f_f
Encoding: 225 64256 217
Width: 578
Flags: W
LayerCount: 2
Back
Fore
SplineSet
162 431 m 1
 162 428 l 1
 300 428 l 1
 377 428 l 1
 380 511 l 2
 381 548 392 590 412 629 c 1
 387 642 366 646 337 646 c 0
 252 646 174 634 162 431 c 1
451 691 m 1
 482 731 523 759 570 759 c 0
 593 759 607 746 607 726 c 0
 607 711 600 693 593 686 c 1
 573 691 553 695 534 695 c 0
 473 695 452 658 441 455 c 1
 439 429 l 1
 486 430 532 432 581 436 c 1
 560 391 l 1
 437 391 l 1
 433 300 l 1
 429 233 429 169 429 126 c 0
 429 42 432 23 493 23 c 2
 514 23 l 1
 514 0 l 1
 451 -3 407 0 348 -16 c 1
 359 99 370 225 373 320 c 2
 375 392 l 1
 299 393 228 393 160 396 c 1
 155 300 l 2
 151 233 151 169 151 126 c 0
 151 42 154 23 215 23 c 2
 236 23 l 1
 236 0 l 1
 173 -3 129 0 70 -16 c 1
 81 98 92 219 95 315 c 2
 98 399 l 1
 71 400 46 403 19 404 c 1
 21 428 l 1
 99 428 l 1
 101 487 l 2
 105 576 260 710 375 710 c 0
 410 710 435 703 451 691 c 1
EndSplineSet
Validated: 1
Ligature2: "'liga' Standard Ligatures lookup 4 subtable" f f
EndChar

StartChar: f_b
Encoding: 231 -1 218
Width: 795
Flags: W
LayerCount: 2
Back
Fore
SplineSet
353 37 m 1
 365 214 385 494 385 686 c 1
 365 691 344 695 321 695 c 0
 202 695 174 658 163 455 c 1
 161 428 l 1
 205 428 253 429 304 436 c 1
 283 391 l 1
 251 391 l 2
 220 391 191 391 160 392 c 1
 155 300 l 2
 151 233 151 169 151 126 c 0
 151 42 154 23 215 23 c 2
 236 23 l 1
 236 0 l 1
 173 -3 129 0 70 -16 c 1
 81 99 88 205 95 301 c 1
 99 396 l 1
 72 397 45 401 17 405 c 1
 19 428 l 1
 101 428 l 1
 101 435 102 479 102 511 c 0
 102 600 213 759 341 759 c 0
 366 759 382 752 391 743 c 1
 411 747 434 751 463 759 c 1
 459 703 442 518 434 353 c 1
 509 415 565 438 608 438 c 0
 708 438 756 356 756 249 c 0
 756 92 633 -10 517 -10 c 0
 464 -10 387 8 353 37 c 1
433 317 m 1
 428 236 425 118 425 65 c 1
 454 41 498 23 549 23 c 0
 622 23 683 101 683 225 c 0
 683 329 645 388 572 388 c 0
 523 388 460 344 433 317 c 1
EndSplineSet
Validated: 1
Ligature2: "'liga' Standard Ligatures lookup 4 subtable" f b
EndChar

StartChar: f_h
Encoding: 232 -1 219
Width: 818
Flags: W
LayerCount: 2
Back
Fore
SplineSet
95 301 m 1
 99 396 l 1
 72 397 45 401 17 405 c 1
 19 428 l 1
 101 428 l 1
 101 435 102 479 102 511 c 0
 102 600 213 759 341 759 c 0
 365 759 382 754 391 743 c 1
 412 747 435 751 464 759 c 1
 456 685 443 489 435 353 c 1
 507 411 559 438 621 438 c 0
 661 438 733 419 733 307 c 0
 733 234 719 144 719 86 c 0
 719 35 734 24 778 24 c 2
 805 24 l 1
 805 0 l 1
 736 -3 690 -3 639 -16 c 1
 650 59 666 181 666 252 c 0
 666 320 661 388 574 388 c 0
 524 388 466 349 434 317 c 1
 431 252 429 179 429 124 c 0
 429 40 433 23 490 23 c 2
 514 23 l 1
 514 0 l 1
 442 0 395 -5 348 -16 c 1
 375 255 386 517 386 686 c 1
 369 691 342 695 321 695 c 0
 198 695 175 659 163 455 c 1
 161 428 l 1
 205 428 253 429 304 436 c 1
 283 391 l 1
 251 391 l 2
 220 391 191 391 160 392 c 1
 155 300 l 2
 151 233 151 169 151 126 c 0
 151 42 154 23 215 23 c 2
 236 23 l 1
 236 0 l 1
 173 -3 129 0 70 -16 c 1
 81 99 88 205 95 301 c 1
EndSplineSet
Validated: 1
Ligature2: "'liga' Standard Ligatures lookup 4 subtable" f h
EndChar

StartChar: f_l
Encoding: 227 64258 220
Width: 525
Flags: W
LayerCount: 2
Back
Fore
SplineSet
386 686 m 1
 369 691 342 695 321 695 c 0
 198 695 175 659 163 455 c 1
 161 428 l 1
 205 428 253 429 304 436 c 1
 283 391 l 1
 251 391 l 2
 220 391 191 391 160 392 c 1
 155 300 l 2
 151 233 151 169 151 126 c 0
 151 42 154 23 215 23 c 2
 236 23 l 1
 236 0 l 1
 173 -3 129 0 70 -16 c 1
 81 99 88 205 95 301 c 1
 99 396 l 1
 72 397 45 401 17 405 c 1
 19 428 l 1
 101 428 l 1
 101 435 102 479 102 511 c 0
 102 600 213 759 341 759 c 0
 366 759 382 752 391 743 c 1
 414 747 436 752 463 759 c 1
 443 510 429 201 429 112 c 0
 429 37 437 23 493 23 c 2
 514 23 l 1
 514 0 l 1
 451 -3 407 0 348 -16 c 1
 369 225 386 496 386 686 c 1
EndSplineSet
Validated: 1
Ligature2: "'liga' Standard Ligatures lookup 4 subtable" f l
EndChar

StartChar: f_i
Encoding: 226 64257 221
Width: 528
Flags: W
LayerCount: 2
Back
Fore
SplineSet
450 438 m 1
 433 333 426 222 426 126 c 0
 426 37 431 23 489 23 c 2
 511 23 l 1
 511 0 l 1
 503 0 l 2
 442 0 395 -4 348 -16 c 1
 364 89 372 195 372 296 c 0
 372 369 351 384 312 387 c 1
 159 394 l 1
 155 300 l 1
 151 233 151 169 151 126 c 0
 151 42 154 23 215 23 c 2
 236 23 l 1
 236 0 l 1
 173 -3 129 0 70 -16 c 1
 81 99 88 205 95 301 c 1
 99 398 l 1
 72 399 45 402 17 405 c 1
 20 428 l 1
 100 428 l 1
 101 469 102 492 102 511 c 0
 102 600 213 759 341 759 c 0
 384 759 399 743 399 719 c 0
 399 707 395 697 386 686 c 1
 366 691 346 695 327 695 c 0
 198 695 171 658 163 455 c 1
 161 428 l 1
 234 428 l 2
 301 428 373 431 450 438 c 1
EndSplineSet
Validated: 1
Ligature2: "'liga' Standard Ligatures lookup 4 subtable" f i
EndChar

StartChar: f_j
Encoding: 233 -1 222
Width: 506
Flags: W
LayerCount: 2
Back
Fore
SplineSet
372 296 m 0
 372 369 351 384 312 387 c 1
 159 394 l 1
 155 300 l 1
 151 233 151 169 151 126 c 0
 151 42 154 23 215 23 c 2
 236 23 l 1
 236 0 l 1
 173 -3 129 0 70 -16 c 1
 81 99 88 205 95 301 c 1
 99 398 l 1
 72 399 45 402 17 405 c 1
 20 428 l 1
 100 428 l 1
 101 469 102 492 102 511 c 0
 102 600 213 759 341 759 c 0
 384 759 399 743 399 719 c 0
 399 707 395 697 386 686 c 1
 366 691 346 695 327 695 c 0
 198 695 171 658 163 455 c 1
 161 428 l 1
 234 428 l 2
 301 428 373 431 450 438 c 1
 439 370 432 303 429 236 c 2
 418 -18 l 2
 414 -111 333 -266 233 -266 c 0
 209 -266 196 -254 196 -233 c 0
 196 -218 203 -201 210 -193 c 1
 230 -198 250 -202 269 -202 c 0
 330 -202 350 -164 355 -79 c 0
 367 155 372 224 372 296 c 0
EndSplineSet
Validated: 1
Ligature2: "'liga' Standard Ligatures lookup 4 subtable" f j
EndChar

StartChar: f_k
Encoding: 234 -1 223
Width: 789
Flags: W
LayerCount: 2
Back
Fore
SplineSet
386 686 m 1
 369 691 342 695 321 695 c 0
 198 695 175 659 163 455 c 1
 161 428 l 1
 205 428 253 429 304 436 c 1
 283 391 l 1
 251 391 l 2
 220 391 191 391 160 392 c 1
 155 300 l 2
 151 233 151 169 151 126 c 0
 151 42 154 23 215 23 c 2
 236 23 l 1
 236 0 l 1
 173 -3 129 0 70 -16 c 1
 81 99 88 205 95 301 c 1
 99 396 l 1
 72 397 45 401 17 405 c 1
 19 428 l 1
 101 428 l 1
 101 435 102 479 102 511 c 0
 102 600 213 759 341 759 c 0
 365 759 382 754 391 743 c 1
 414 747 437 752 464 759 c 1
 436 480 429 201 429 112 c 0
 429 27 443 23 494 23 c 1
 494 0 l 1
 432 -3 407 0 348 -16 c 1
 372 248 386 586 386 686 c 1
763 46 m 1
 780 30 l 1
 761 7 736 -10 696 -10 c 0
 595 -10 492 168 456 240 c 1
 519 322 611 438 687 438 c 0
 715 438 730 421 730 398 c 0
 730 387 726 374 718 361 c 1
 705 369 692 372 673 372 c 0
 622 372 552 320 513 268 c 1
 537 221 664 30 733 30 c 0
 741 30 751 31 763 46 c 1
EndSplineSet
Validated: 1
Ligature2: "'liga' Standard Ligatures lookup 4 subtable" f k
EndChar

StartChar: acute.case
Encoding: 235 -1 224
Width: 324
Flags: W
LayerCount: 2
Back
Fore
SplineSet
219 755 m 1
 201 777 l 1
 368 924 l 1
 381 901 397 881 416 866 c 1
 219 755 l 1
EndSplineSet
Validated: 1
EndChar

StartChar: dieresis.case
Encoding: 236 -1 225
Width: 446
Flags: W
LayerCount: 2
Back
Fore
SplineSet
330 811 m 0
 330 846 354 861 378 861 c 0
 401 861 426 846 426 811 c 0
 426 778 405 755 378 755 c 0
 350 755 330 778 330 811 c 0
150 811 m 0
 150 846 174 861 198 861 c 0
 223 861 246 846 246 811 c 0
 246 778 226 755 198 755 c 0
 171 755 150 778 150 811 c 0
EndSplineSet
Validated: 1
EndChar

StartChar: grave.case
Encoding: 237 -1 226
Width: 333
Flags: W
LayerCount: 2
Back
Fore
SplineSet
338 779 m 1
 319 755 l 1
 121 859 l 1
 137 879 151 900 163 921 c 1
 338 779 l 1
EndSplineSet
Validated: 1
EndChar

StartChar: tilde.case
Encoding: 238 -1 227
Width: 477
Flags: W
LayerCount: 2
Back
Fore
SplineSet
448 888 m 1
 475 878 l 1
 461 826 429 755 357 755 c 0
 325 755 297 775 265 800 c 0
 230 827 220 840 199 840 c 0
 166 840 146 784 135 755 c 1
 108 765 l 1
 121 816 154 888 226 888 c 0
 258 888 286 868 318 843 c 0
 353 816 363 803 384 803 c 0
 418 803 437 859 448 888 c 1
EndSplineSet
Validated: 1
EndChar

StartChar: ring.case
Encoding: 239 -1 228
Width: 342
Flags: W
LayerCount: 2
Back
Fore
SplineSet
239 913 m 0
 203 913 181 882 181 848 c 0
 181 819 200 784 240 784 c 0
 276 784 298 808 298 848 c 0
 298 875 279 913 239 913 c 0
140 841 m 0
 140 892 183 941 250 941 c 0
 312 941 341 902 341 859 c 0
 341 800 290 755 232 755 c 0
 164 755 140 798 140 841 c 0
EndSplineSet
Validated: 1
EndChar

StartChar: caron.case
Encoding: 240 -1 229
Width: 471
Flags: W
LayerCount: 2
Back
Fore
SplineSet
313 837 m 1
 462 924 l 1
 481 904 l 1
 310 755 l 1
 150 904 l 1
 171 924 l 1
 313 837 l 1
EndSplineSet
Validated: 1
EndChar

StartChar: circumflex.case
Encoding: 241 -1 230
Width: 472
Flags: W
LayerCount: 2
Back
Fore
SplineSet
318 842 m 1
 169 755 l 1
 150 775 l 1
 321 924 l 1
 481 775 l 1
 460 755 l 1
 318 842 l 1
EndSplineSet
Validated: 1
EndChar

StartChar: imacron
Encoding: 196 299 239
Width: 255
Flags: W
HStem: 0 23<169.009 238> 389 23<10 70.391> 418 20G<152.5 169>
VStem: 99 54<77.623 344.074>
LayerCount: 2
Back
Fore
SplineSet
177 438 m 1
 161 334 153 223 153 126 c 0
 153 37 158 23 216 23 c 2
 238 23 l 1
 238 0 l 1
 230 0 l 2
 169 0 122 -4 75 -16 c 1
 91 89 99 195 99 296 c 0
 99 357 89 389 20 389 c 2
 10 389 l 1
 10 412 l 1
 75 415 128 425 177 438 c 1
EndSplineSet
Refer: 111 175 N 1 0 0 1 -140 -23 2
Validated: 1
EndChar

StartChar: Imacron
Encoding: 195 298 240
Width: 300
Flags: W
HStem: 0 28<30 101.926 198.561 251> 7 27<32.2441 103> 651 28<52 104.869 201.164 273>
VStem: 103 78<38.7058 269.51> 122 78<409.49 640.449>
LayerCount: 2
Back
Fore
SplineSet
30 0 m 1xb0
 30 28 l 1xb0
 63 31 80 34 103 34 c 1x70
 111 294 122 549 122 577 c 0
 122 635 106 643 73 648 c 2
 52 651 l 1
 52 679 l 1
 59 678 67 676 78 675 c 0
 94 674 119 672 152 672 c 0
 185 672 225 674 273 679 c 1
 273 651 l 1
 239 648 225 648 200 645 c 1x68
 192 385 181 130 181 102 c 0
 181 46 198 34 230 31 c 1
 251 28 l 1
 251 0 l 1xb0
 225 3 l 2
 208 4 183 7 151 7 c 0x70
 118 7 78 5 30 0 c 1xb0
EndSplineSet
Refer: 111 175 N 1 0 0 1 -107 179 2
Validated: 1
EndChar

StartChar: dotaccent
Encoding: 256 729 255
Width: 255
Flags: W
HStem: 553 106<101.703 178.742>
VStem: 92 96<561.768 649.994>
LayerCount: 2
Back
Fore
SplineSet
139 553 m 0
 112 553 92 569 92 604 c 0
 92 633 111 659 142 659 c 0
 167 659 188 641 188 608 c 0
 188 579 170 553 139 553 c 0
EndSplineSet
Validated: 1
EndChar

